<svg id="Layer_1" xmlns="http://www.w3.org/2000/svg" viewBox="0 0 104 92" width="104" height="92"><style>.st0{opacity:0.1;fill:#17234E;enable-background:new ;} .st1{fill:#2EBBE8;} .st2{opacity:0.61;fill:#C1C1C1;} .st3{fill:#FFFFFF;} .st4{fill:#C1C1C1;} .st5{fill:none;stroke:#2EBBE8;stroke-width:1.46;stroke-linecap:round;stroke-miterlimit:10;stroke-opacity:0.7;stroke-dasharray:5.85,5.85,5.85;} .st6{fill:none;stroke:#2EBBE8;stroke-width:1.37;stroke-linecap:round;stroke-miterlimit:10;stroke-opacity:0.7;stroke-dasharray:5.48,5.48,5.48;} .st7{fill:#EAEAEA;} .st8{opacity:0.1;fill:#FFFFFF;enable-background:new ;} .st9{fill:#339900;} .st10{fill:#54CB30;}</style><title>smart_scanning</title><path class="st0" d="M26.4 86.6L4.8 65.3c-1.5-1.5-.8-4 1.2-4.5l64-18c.8-.2 1.6 0 2.3.4l26.4 18.6c1.8 1.3 1.4 4-.6 4.8L37.6 89c-4 1.4-8.2.4-11-2.4z"/><path class="st2" d="M28.6 84L8.2 64l62.2-17.5L90 61.7z"/><path class="st3" d="M28.6 82L8.2 62.2l62.2-17.6L90 59.8z"/><path class="st4" d="M84.4 59.3l-1 .4L68 47.3l1-.4zM75 54.3l-1 .3-8.3-6.6 1-.4zM78.6 61.2l-1 .4-15-12.6 1-.3zM73.4 62.8l-1 .4L57 50.6l1-.3zM69.5 64l-1 .4-14.6-12.7 1-.3zM65.5 65.2l-1 .3-14.3-12.7 1-.3zM61.2 66.6l-1 .3-14-13 1-.3zM57.4 67.8l-1 .3-14-12.8 1-.3zM49.2 65l-1 .2L39 57l1-.4zM41.7 64.6l-1 .3-7-6.5 1-.3zM42.2 71l-1 .2-11.8-11.7 1-.3zM40.3 74l-1 .4-14-13.7 1-.4zM35.3 75.3l-1 .4-14-13.8 1-.4zM31.5 76.3l-1 .4-14-13.8 1-.4z"/><path class="st5" d="M67 24l24.4 37"/><path class="st6" d="M42.5 30.4L6.3 62.2"/><path class="st4" d="M23 34.5L6 20.2c-1-.8-1-4 .3-4.4L62.6 2.6c1.8-.5 3.8-.2 5.3 1l18.5 10.3c1 .6.7 3.6-.6 4L26 35c-1 .4-2.2.2-3-.5z"/><path class="st7" d="M23 32.7L6 18.4c-.7-.5-.8-1.5-.3-2 .3-.4.6-.6 1-.7l56-15c1.7-.5 3.7-.2 5.2 1l18.2 12c1 .6 1.2 1.8-.4 2.3L26.2 33.3c-1 .3-2.2 0-3-.6z"/><ellipse transform="rotate(-8.23 27.938 19.96)" class="st8" cx="27.9" cy="20" rx="3.9" ry="2.1"/><path class="st9" d="M25.8 30.6L9.2 17 64 2.5l19 12z"/><path class="st10" d="M9.2 17l16.6 13.6L83 14.4z"/><path class="st3" d="M35 25.4l-12.2-10L63 4.7l14 8.8z"/><path class="st4" d="M72 12.8l-.5.2L62 6.4h.4zM66.4 10.3l-.6.2-5.2-3.7h.6zM69.3 14l-.5.2-10-6.8.6-.2zM65.3 15h-.6l-9.4-6.8.6-.2zM62.4 15.5l-.5.2-9.6-7h.6zM60 16.4h-.4L50 9.7l.7-.2zM57.4 17H57l-9.6-7h.6zM51.8 15l-.6.3L45 11l.5-.3zM47.7 15l-.6.2-4.4-3.4.6-.2zM48.6 19.3l-.5.2-8-7h.6zM45.8 20h-.6l-8-6.8.6-.2zM42.8 20.4l-.6.2-8-7h.6zM40.2 21h-.5l-8-7h.5zM38 21.8h-.5l-8-6.8.5-.2zM35.3 22l-.6.2-8-7h.6z"/><ellipse class="st3" cx="22.8" cy="22.2" rx="3.5" ry="1.9"/></svg>