<svg id="Layer_1" xmlns="http://www.w3.org/2000/svg" viewBox="0 0 104 82" width="104" height="82"><style>.st0{fill:#C1C1C1;} .st1{opacity:0.1;fill:#17234E;enable-background:new ;} .st2{fill:#EAEAEA;} .st3{fill:#1A9BF5;} .st4{fill:#FFFFFF;} .st5{fill:#EAEAE9;} .st6{opacity:5.000000e-02;enable-background:new ;} .st7{fill:#17234E;} .st8{fill:#54CB30;} .st9{fill:#106EBE;}</style><path class="st0" d="M49.7 51.2h3.6v12h-3.6z"/><path class="st1" d="M92.3 81.7H10.5l19.5-18h43z"/><path class="st2" d="M95 49c0 1.7-1.7 3-3 3H11c-1.7 0-3-1.3-3-3V3c0-1.7 1.4-3 3-3h81.3C93.7 0 95 1 95 2.7V49z"/><path class="st3" d="M92 46c0 .5-1.5 2-2 2H12c-.8 0-2-1.5-2-2V4c0-.8 1-1.8 2-1.8 79 0 78-.2 78-.2.5 0 2 1 2 2v42z"/><path class="st1" d="M12 48h78c.5 0 2-1.5 2-2v-.4l-6.6-39H18L10 46c0 .6 1.2 2 2 2z"/><path class="st4" d="M18 6.5h67.4V43H18z"/><path class="st5" d="M18 6.5h67.4v2.8H18z"/><path class="st6 st7" d="M70 33h-3l1.3 3.5-2 1-1.6-3.7L63 36V25l7 8z"/><path class="st8" d="M45.8 24.2H47v-2c0-2.2 1.7-4 3.8-4.4 2.3-.4 4.5 1 5.2 3.2l.2 1.4v1.8h1.2V31c0 .5-.2 1-.4 1.6-.4 1-1 1.6-2 2h-6.2c-1 0-1.6-.5-2.2-1.2-.6-.7-1-1.5-1-2.4l.2-6.7zm9 0v-2.7c-.4-1.6-2-2.7-3.7-2.4-1.2.5-2.4 2-2.5 3.4v2H55zm-4.7 8h3c0-1-.3-2-.4-3V29c.7-.5.7-1.4.2-2s-1.4-.5-2 0c-.5.5-.5 1.4 0 2 0 1-.2 1.6-.3 2.4l-.2.7z" id="_x30_QulcZ.tif_5_"/><path class="st0" d="M30 63.8h43c0-.8 0-1.8-2-1.8H32c-1 0-2 1-2 1.8zM76.4 78h-56c-.4 0-.8-.4-.8-1v-.4L29 69h40l8.4 7.6v.5c0 .7-.5 1-1 1z"/><path class="st4" d="M77.4 76.6H19.6l9.5-9H69z"/><path class="st2" d="M75 75.6H22l7.7-7.5H68z"/><path class="st4" d="M34.8 67.8l-4 7h3l3-7h-2m2.6 0l-2 5H38l2-5h-2.8m3.5 0l-2 5H42l1-4.8-2.5-.2m3.2 0l-1 5h3v-5h-2m11 0l2 5h-2.5l-2-5H55m2.7 0l3 7h-2.2l-3.2-7H58m5 .2l4.6 6.8H65L60.6 68H63m2.7 0l2.2 3.6h-2L63.5 68h2m2 0l3 3.6h-2L66 68h2.2m-16.4-.2l1.4 5H50l-.6-5H52m-3.4 0l.6 5h-2.7v-5H49m9 7H34l.7-1.3h22zm-31.4 0h-3l1.4-1.3h3zm4.6-1.6H25l1.7-1.4h5.5zm-1-1.8h-3.5l1.5-1.3h3zm2.8-1.7h-4.5l1.5-1.3h4zm-.8 1.7h-1.5L32 70h1zm-2 3.4h-3l1.4-1.3h2.6z"/><path class="st4" d="M58 68l3.4 7h3l-4.2-7h-2m9 5.5l.8 1.3h5.6l-1.4-1.5-5 .2m1.4-1.8l1 1.4H72L70.8 72h-2.2m-2.6 0l1 1.4h2l-1-1.4h-1.7"/><path class="st2" d="M32.5 71.3h38.3v.4H32.5zM33 70h37v.5H33zm3.6-1H69v.5H36.5zm31.7-.6H36.6l.2-.3H68zm-11 4.6h9.4v.2h-9.5z"/><path class="st0" d="M78.5 72.4c-4-1.4-5-3-5-4.5l-.3.7c-.3 1.3.4 3 4.6 4.5 0 0 4 .8 4.8-1-1.7.6-4 0-4 0z"/><path class="st2" d="M75.7 66.7c-1 0-1.7.5-2 1.2-.2 1.2.7 3 4.8 4.3 0 0 2.5.5 4-.2.6-2-2.4-5.6-6.8-5.4z"/><path class="st9" d="M71 31h-3l1.3 3.5-2 1-1.6-3.7L64 34V23l7 8z"/></svg>