<svg viewBox="0 0 100 100" width="100" height="100" xmlns="http://www.w3.org/2000/svg" fill-rule="evenodd" clip-rule="evenodd" stroke-linejoin="round" stroke-miterlimit="1.4"><path d="M0 70v.6c0 2.2 1.8 4 4 4h92c2.2 0 4-1.8 4-4V70H0z" fill="#D3D3D3" fill-rule="nonzero"/><ellipse cx="52.8" cy="89.1" rx="13.9" ry="3.7" fill="#EAEAEA"/><path d="M25.7 79.3c-.6 0-1-.8-1-1.5V43.5c0-1 .4-1.5 1-1.5h52.5c.7 0 1 .6 1 1.5v34.3c0 .8-.4 1.5-1 1.5H25.7z" fill="#EAEAEA" fill-rule="nonzero"/><path d="M62.4 88.3c0 .4-.4.7-.8.7H44c-.4 0-.7-.3-.8-.7v-34c0-.3.3-.6.7-.6h17.6c.4 0 .7.3.8.7v34z" fill="#F4F4F4" fill-rule="nonzero"/><path d="M7 69.5h86V12c0-1-.8-2-2-2H9c-1 0-2 .8-2 2v57.5z" fill="#EAEAEA" fill-rule="nonzero"/><path fill="#1A9BF5" d="M10.2 14.5h79.6V67H10.2z"/><path d="M22.8 29l.5.2c0-3.4 3-6 6.4-6 2.7.2 5 2 5.7 4.8.8-1 2-1.4 3.3-1.4 2.3 0 4.3 1.8 4.5 4 .8.2 1.6.5 2.2 1 .4-.6 1.2-1 2-1 1.4 0 2.6 1.2 2.6 2.6 0 1.4-1 2.5-2.5 2.5h-25c-1.7 0-3-1.7-3-3.5 0-1.7 1.5-3 3.3-3z" fill="#fff" fill-opacity=".6" fill-rule="nonzero"/><path d="M10.2 56.5v7.2h79.5v-29s-46.5-2-79.5 21.8z" fill="#2EBBE8" fill-rule="nonzero"/><path fill="#2EBBE8" d="M28.6 45.6h46.6v30H28.6z"/><path d="M89.8 58.8c-7.6-1.8-18 3.4-18 3.4-8.2-4.6-19.8-4.7-28.2-.4L41 63S22.4 59 10.3 63V67H90v-8h-.2z" fill="#54CB30" fill-rule="nonzero"/><path d="M24.5 43.2c0-1 .5-1.2 1-1.2h26.2L10.2 14.5V67h14.3c-.2-23.8 0-23.8 0-23.8zM79.3 60v7h10.3l-10.3-7z" fill="#17234E" fill-opacity=".1" fill-rule="nonzero"/><path d="M72.8 30.4c1 0 1.7.2 2.3 1 .7-1.4 2-2 3.4-1.4.3 0 .4.2.6.3-.8-1-2.2-1.2-3.2-.5l-.7.8c-.7-1-2-1.2-3-.4-.4.2-.6.6-.8 1 .3-.4 1-.7 1.6-.8zM56.3 21.5c1 0 1.7.2 2.3 1 .6-1.3 2-2 3.4-1.3.2 0 .3.2.5.3-.8-1-2.2-1.2-3.2-.5l-.7.8c-.8-1-2.2-1.2-3.2-.4-.3.2-.5.6-.7 1 .4-.5 1-.8 1.6-1z" fill="#106EBE" fill-rule="nonzero"/><path fill="#54CB30" d="M28.6 63.7h46.6v12H28.6z"/><path d="M62.4 67.4v8.3h12.8l-12.8-8.3zM43.3 55.2l-14.7-9.6v30h14.7V55.2z" fill="#17234E" fill-opacity=".1" fill-rule="nonzero"/><path d="M79.3 69.5h-4v6.2H28.5v-6.2h-4v8.3c0 .8.4 1.5 1 1.5h52.6c.7 0 1-.8 1-1.5v-8.3z" fill="#EAEAEA" fill-rule="nonzero"/><path d="M28.6 45.6h46.6v24h4v-26c0-1-.4-1.6-1-1.6H25.7c-.6 0-1 .6-1 1.5v26h4v-24z" fill="#EAEAEA" fill-rule="nonzero"/><path fill="#54CB30" d="M45 73.7h15.5V86H45z"/><path d="M45 86h15.5v-7L45 70.6V86z" fill="#17234E" fill-opacity=".2" fill-rule="nonzero"/><path d="M61.6 53.7H44c-.4 0-.7.3-.8.7v34c0 .3.4.6.8.6h17.6c.4 0 .7-.3.8-.7v-34c0-.3-.4-.6-.8-.6zm-1 32.4H45V56h15.5v30z" fill="#F4F4F4" fill-rule="nonzero"/></svg>