<svg id="Layer_1" xmlns="http://www.w3.org/2000/svg" viewBox="0 0 104 86" width="104" height="86"><style>.st0{opacity:5.000000e-02;fill:#002050;} .st1{fill:#828282;} .st2{opacity:0.1;fill:#002050;} .st3{opacity:5.000000e-02;} .st4{fill:#002050;} .st5{opacity:0.1;fill:#FFFFFF;enable-background:new ;} .st6{fill:#FFFFFF;} .st7{fill:none;stroke:#2EBBE8;stroke-width:1.46;stroke-linecap:round;stroke-miterlimit:10;stroke-opacity:0.7;stroke-dasharray:5.85,5.85,5.85;} .st8{fill:#2EBBE8;} .st9{fill:#54CB30;} .st10{opacity:0.46;} .st11{opacity:0.3;} .st12{fill:none;stroke:#FFFFFF;stroke-width:2;stroke-miterlimit:10;} .st13{fill:none;stroke:#FFFFFF;stroke-width:2.04;stroke-miterlimit:10;} .st14{fill:#A6A6A6;}</style><path class="st0" d="M59.4.6l-.8.8c-.5.5-1 .8-1.8.8h-23c-.6 0-1.2.3-1.2 1v1.5c0 .7-.6 1-1.2 1s-1 .3-1 1v28.2c0 .4.5.7 1 .7h46c.6 0 1-.4 1-.8V1.4c0-.7-.4-1-1-1H60.8c-.4 0-1.3-.2-1.6 0z"/><title>offline_access</title><path class="st1" d="M59.7 1l-2 2H33v3h-2v29h46.8V1z"/><path class="st2" d="M58.2 2.5l.3-.4h18c.2 0 .4.3.4.6V11h-.5L58.2 2.4z"/><path class="st3 st4" d="M100 86H4c-1.6 0-2.7-1.7-2-3.2l12-28c.5-1 1.2-1 2.2-1h72.2c1 0 2 0 2.2 1L102 83c.6 1.4-.5 3-2 3z"/><path class="st5" d="M29.6 66.7L34.2 77h9.3L39 67.4z"/><path class="st6" d="M98.7 83.2h-94l10.6-29H89z"/><path class="st7" d="M33.3 36.2l23.2 38"/><path class="st8" d="M94.8 81.3H8.3l9-25.3h69.2z"/><path class="st9" d="M90.6 68.6l-.7-2L86.4 56H52s-7.8 13.5-17 17c-5.4 2-26.7 8.3-26.7 8.3H76c2-7.3 18.8 0 14.6-12.7z"/><path class="st2" d="M58.5 66c-.4 0-1 0-1 .4l-2.3 4-3-4.6c0-.4-.6-.5-1-.3s-.5.7-.3 1l3 5c0 .2.2.3.4.3 0 .3 0 .6.4.8.4.2 1 0 1-.3l3-5.2c.2-.2 0-.7-.3-1zM49 62c-.4 0-1 0-1-.4l-3.2-5c-.2-.4 0-1 .3-1 .5-.3 1-.2 1.2.2l3 5c.3.3.2.8-.2 1zM60.4 62.3c.4.2 1 0 1-.3l3-5c.2-.5 0-1-.3-1.2-.3-.2-.8 0-1 .3l-3 5.2c0 .4 0 1 .4 1z"/><g class="st10 st11"><path class="st12" d="M26.7 81.3l6-25.3M43.4 81.3L46.8 56M60.8 81.3l-1-25.3M77.7 81.3L72.5 56"/><path class="st13" d="M15 59.6h73.3M13 64h76.5M11.8 69.2H91M10 75h83.4"/></g><path class="st6" d="M34.5 32h42V2.5h-42z"/><path class="st9" d="M35.7 32h39.7V3.5H35.6z"/><path class="st2" d="M33 5.7h20.7c.7 0 1.3 0 1.8.6L59 10c.8.7 1 1 2 1h16.8V13L31 12.6V6h2v-.3z"/><path class="st14" d="M31 35V6h23.7l5 5.2h18v24z"/><path class="st7" d="M55.2 72L74.8 36M55.2 72L74.8 36M33.3 36.2l23.2 38M33.3 36.2l23.2 38"/><path class="st2" d="M34.2 3h.3v2.7h-.3z"/></svg>