<svg id="Layer_1" xmlns="http://www.w3.org/2000/svg" viewBox="0 0 104 104" width="104" height="104"><style>.st0{fill:#0078D7;} .st1{fill:none;stroke:#FFFFFF;stroke-miterlimit:10;} .st2{fill:#F7F7F7;} .st3{fill:#1A9BF5;} .st4{fill:#A5A5A5;} .st5{fill:#FFB4B1;} .st6{fill:#00B294;} .st7{fill:#008272;} .st8{fill:#FFBC9F;} .st9{fill:#DD9B9B;} .st10{fill:#00A890;} .st11{fill:#008C74;} .st12{fill:#85D54E;} .st13{fill:#33CC99;} .st14{fill:#EAEAEA;} .st15{fill:#C1C1C1;} .st16{opacity:0.3;fill:#004578;enable-background:new ;} .st17{opacity:0.4;fill:#217893;enable-background:new ;} .st18{fill:#A6A6A6;} .st19{fill:#F4F4F4;} .st20{fill:#F9FAFA;} .st21{fill:#FFFFFF;} .st22{fill:#AA298F;} .st23{fill:#68217A;} .st24{opacity:0.1;} .st25{fill:#333333;} .st26{fill:#004578;} .st27{fill:#00863E;} .st28{fill:#D83B01;} .st29{clip-path:url(#SVGID_2_);} .st30{fill:#B2291B;} .st31{fill:#505050;} .st32{fill:#D2D2D2;} .st33{fill:#DC3C00;} .st34{clip-path:url(#SVGID_4_);} .st35{fill:#737373;} .st36{fill:#969696;} .st37{fill:#B4A0FF;} .st38{fill:#DDCFB1;} .st39{fill:#F472D0;} .st40{fill:#FCEE1E;} .st41{fill:#FDB813;} .st42{fill:#FF8C00;} .st43{fill:#D1D1D1;} .st44{fill:none;stroke:#FFFFFF;stroke-width:1.1577;stroke-miterlimit:10;stroke-dasharray:9.2614,9.2614,9.2614;} .st45{opacity:0.6;fill:none;stroke:#0078D7;stroke-width:1.5;stroke-miterlimit:10;stroke-dasharray:9.2614,9.2614,9.2614;} .st46{fill:#86CBCE;} .st47{fill:#65CE90;} .st48{fill:#106EBE;} .st49{opacity:0.3;fill:#217893;} .st50{fill:#019E4A;} .st51{fill:#005A9E;} .st52{fill:#6CE09D;} .st53{fill:#6DC2E9;} .st54{fill:#0072C6;} .st55{fill:#247B96;} .st56{fill:#A57676;} .st57{fill:none;stroke:#DEECF9;stroke-width:0.3951;stroke-miterlimit:10;} .st58{fill:none;stroke:#FFFFFF;stroke-width:0.3951;stroke-miterlimit:10;} .st59{fill:none;stroke:#FFFFFF;stroke-width:0.3544;stroke-linecap:round;stroke-linejoin:round;stroke-miterlimit:10;} .st60{fill:#C8C8C8;} .st61{opacity:6.000000e-02;fill:url(#SVGID_5_);} .st62{fill:#FFFFFF;stroke:#F4F4F4;stroke-miterlimit:10;} .st63{fill:#2EBBE8;} .st64{fill:#FFB900;} .st65{fill:#F9FAFA;stroke:#F4F4F4;stroke-width:1.1282;stroke-miterlimit:10;} .st66{opacity:0.2;fill:#004578;} .st67{opacity:0.1;fill:#FFFFFF;} .st68{opacity:0.2;fill:#273B86;} .st69{opacity:0.15;fill:#273B86;} .st70{fill:#2350A2;} .st71{opacity:0.3;} .st72{clip-path:url(#SVGID_7_);} .st73{fill:none;stroke:#DEECF9;stroke-width:0.1239;stroke-miterlimit:10;} .st74{fill:none;stroke:#FFFFFF;stroke-width:0.1239;stroke-miterlimit:10;} .st75{fill:none;stroke:#FFFFFF;stroke-width:0.1111;stroke-linecap:round;stroke-linejoin:round;stroke-miterlimit:10;} .st76{fill:none;stroke:#DEECF9;stroke-width:8.278593e-02;stroke-miterlimit:10;} .st77{fill:none;stroke:#FFFFFF;stroke-width:8.278593e-02;stroke-miterlimit:10;} .st78{fill:none;stroke:#FFFFFF;stroke-width:7.425737e-02;stroke-linecap:round;stroke-linejoin:round;stroke-miterlimit:10;} .st79{fill:none;stroke:#DEECF9;stroke-width:5.937092e-02;stroke-miterlimit:10;} .st80{fill:none;stroke:#FFFFFF;stroke-width:5.937092e-02;stroke-miterlimit:10;} .st81{fill:none;stroke:#FFFFFF;stroke-width:5.325456e-02;stroke-linecap:round;stroke-linejoin:round;stroke-miterlimit:10;} .st82{fill:none;stroke:#C7E0F4;stroke-miterlimit:10;} .st83{fill:#002050;} .st84{fill:#EAEAE9;} .st85{fill:#70CEEF;} .st86{fill:#54CB30;} .st87{opacity:0.46;} .st88{fill:#004B50;stroke:#FFFFFF;stroke-miterlimit:10;} .st89{fill:#004B50;stroke:#FFFFFF;stroke-width:2;stroke-miterlimit:10;} .st90{fill:#004B50;stroke:#FFFFFF;stroke-width:2.0445;stroke-miterlimit:10;} .st91{opacity:0.7;} .st92{fill:none;stroke:#2EBBE8;stroke-width:1.3711;stroke-linecap:round;stroke-miterlimit:10;stroke-opacity:0.7;stroke-dasharray:5.4843,5.4843,5.4843;} .st93{fill:#828282;} .st94{fill:none;} .st95{opacity:0.1;fill:#17234E;} .st96{fill:none;stroke:#2EBBE8;stroke-width:1.4617;stroke-linecap:round;stroke-miterlimit:10;stroke-opacity:0.7;stroke-dasharray:5.8467,5.8467,5.8467;} .st97{fill:#339900;} .st98{clip-path:url(#SVGID_9_);} .st99{fill:#FFE490;} .st100{clip-path:url(#SVGID_11_);} .st101{fill:#F4F4F4;stroke:#C1C1C1;stroke-width:1.3164;stroke-miterlimit:10;} .st102{fill:#008D78;} .st103{clip-path:url(#SVGID_13_);} .st104{fill:#2A3281;} .st105{filter:url(#Adobe_OpacityMaskFilter);} .st106{mask:url(#mask-2_2_);} .st107{opacity:0.58;} .st108{fill:#4279BC;} .st109{filter:url(#Adobe_OpacityMaskFilter_1_);} .st110{mask:url(#mask-2_6_);} .st111{opacity:0.88;} .st112{filter:url(#Adobe_OpacityMaskFilter_2_);} .st113{mask:url(#mask-2_5_);} .st114{fill:#FFFFFF;stroke:#E0E0E0;stroke-width:5;stroke-miterlimit:10;} .st115{fill:#5FCE3D;} .st116{filter:url(#Adobe_OpacityMaskFilter_3_);} .st117{mask:url(#mask-2_1_);} .st118{fill:#FFFFFF;stroke:#CCCCCC;stroke-width:5;stroke-miterlimit:10;} .st119{opacity:0.56;} .st120{fill:none;stroke:#0078D7;stroke-miterlimit:10;} .st121{clip-path:url(#SVGID_15_);} .st122{clip-path:url(#SVGID_17_);} .st123{clip-path:url(#SVGID_19_);} .st124{clip-path:url(#SVGID_21_);} .st125{clip-path:url(#SVGID_23_);} .st126{clip-path:url(#SVGID_25_);} .st127{fill:#CCCCCC;} .st128{filter:url(#Adobe_OpacityMaskFilter_4_);} .st129{mask:url(#mask-2_9_);} .st130{clip-path:url(#SVGID_27_);} .st131{clip-path:url(#SVGID_29_);} .st132{clip-path:url(#SVGID_31_);} .st133{opacity:0.61;} .st134{opacity:0.89;fill:#2A3281;}</style><g id="mask-2_10_"><ellipse id="path-1_15_" class="st21" cx="52.1" cy="59.9" rx="33.4" ry="33.1"/></g><path class="st24 st83" d="M27.5 89.8c1.5-.7 3-1.2 4.8-1.6 2-.5 4-1 6-1.3 2.3-.5 4.7-.7 7.4-1l8-.2c3 0 5.6 0 8.2.3l7.2 1c2 .2 4 .6 6.2 1.2 1.6.4 3.2 1 4.8 1.6 1 .5 2 1 3 2 1.2.8 1.4 2.5.5 3.7l-.5.5c-1 .8-2 1.5-3 2-1.5.6-3 1-4.7 1.5-2 .5-4 1-6 1.3-2.3.4-4.7.6-7.4.8-2.5.2-5.2.3-8 .3s-5.5-.2-8-.4l-7.4-.8c-2-.3-4-.7-6-1.3-1.7-.4-3.3-1-4.8-1.6-1-.6-2.2-1.2-3-2-.8-.5-1.2-1.3-1.2-2.2"/><path id="Rectangle-7_18_" class="st15" d="M72.6 93.3l-5.4-3.5 2.2-3 5.3 3.5c.6.4.7 1.2.4 1.8v.2l-.7.8c-.4.6-1.2.7-1.7.3z"/><path id="Rectangle-7-2_2_" class="st15" d="M30.8 92l-.7-1c-.3-.6-.2-1.4.4-1.8l5.3-3.4 2.2 3-5.5 3.4c-.6.4-1.3.3-1.7-.3z"/><path id="Rectangle-7-3_2_" class="st15" d="M28 31l5-3.4 2.6 4-5 3.4z"/><path id="Rectangle-7-4_2_" class="st15" d="M70.3 33l2.6-4 5 3.3-2.6 4z"/><g id="Group-8-Copy_5_"><g id="Oval_7_"><ellipse id="path-1-2_2_" class="st62" cx="52.1" cy="59.9" rx="33.4" ry="33.1"/></g><g id="Oval-2_14_"><ellipse id="path-1-3_2_" transform="matrix(.9999 -.01204 .01204 .9999 -.718 .632)" class="st3" cx="52.1" cy="59.9" rx="27.9" ry="27.6"/></g><path class="st0" d="M68.5 50.3L56.7 56l3-13.4-9.4 16.8c-1 1.3-.8 3.3.5 4.4 1 .8 2.4 1 3.5.2.5-.3 1-.7 1-1.2l13.2-12.5z"/><path class="st86" d="M68 50l-11.8 5.5L59 42.8c.2-1.3 0-1.4-.7-.2l-7.6 15.6c-1 1.2-.7 2.8.5 3.7 1 .6 2 .6 3 0 .4 0 .7-.5 1-1l13-10.6c1.2-.8 1-1-.2-.4z"/><g class="st119"><ellipse id="Oval-2-2_2_" class="st104" cx="53.1" cy="39.3" rx="2.4" ry="2.3"/><ellipse id="Oval-2-Copy-2_7_" class="st104" cx="31.5" cy="60.4" rx="2.4" ry="2.3"/><ellipse id="Oval-2-Copy-3_7_" class="st104" cx="73.6" cy="59.8" rx="2.4" ry="2.3"/><ellipse id="Oval-2-Copy_7_" class="st104" cx="52.5" cy="80.3" rx="2.4" ry="2.3"/></g></g><path id="Rectangle-9_7_" class="st15" d="M52 16.6h2.6v10.2H52z"/><path id="Rectangle-8_14_" class="st15" d="M47.7 14h10.8c.6 0 1 .5 1 1v3.2c0 .6-.4 1-1 1H47.7c-.6 0-1-.4-1-1v-3c0-.7.4-1.2 1-1.2z"/><path id="Rectangle-8-2_2_" class="st86" d="M20.6 24.4l9.5-6.2c3-2 7.2-1 9.2 2l1.8 2.6-20.6 13.4-1.8-2.7c-2-3-1-7 2-9z"/><path id="Rectangle-8-3_2_" class="st86" d="M87.2 34.8l-1.8 2.7L65 24.3l1.8-2.8c2-3 6-4 9-2l9.6 6.3c3 2 3.8 6 1.8 9z"/><path class="st86" d="M27.5 26C30 13.7 40.5 4.7 52.8 4.7s22.8 9 25.4 21.2H82C79.2 11.7 67.2 1 52.7 1s-26.4 10.7-29 25h3.7z"/><ellipse id="Oval-2-3_2_" class="st86" cx="24.4" cy="21.3" rx="2.4" ry="2.3"/><ellipse id="Oval-2-4_2_" class="st86" cx="82.2" cy="22.5" rx="2.4" ry="2.3"/><g id="Oval-3_2_"><ellipse id="path-1-4_2_" transform="matrix(.9999 -.01204 .01204 .9999 -.718 .632)" class="st120" cx="52.1" cy="59.9" rx="27.9" ry="27.6"/></g></svg>