<svg id="Layer_1" xmlns="http://www.w3.org/2000/svg" xmlns:xlink="http://www.w3.org/1999/xlink" viewBox="0 0 800 404" width="800" height="404"><style>.st0{fill:#C1C1C1;} .st1{opacity:6.000000e-02;fill:url(#SVGID_1_);enable-background:new ;} .st2{fill:#FFFFFF;stroke:#F4F4F4;stroke-miterlimit:10;} .st3{fill:#1A9BF5;} .st4{fill:#FFFFFF;} .st5{fill:#2EBBE8;} .st6{fill:#FFB900;} .st7{opacity:0.47;fill:#F4F4F4;} .st8{fill:#F9FAFA;stroke:#F4F4F4;stroke-width:1.1282;stroke-miterlimit:10;} .st9{opacity:0.2;fill:#004578;enable-background:new ;} .st10{fill:#FFB4B1;} .st11{fill:#DD9B9B;} .st12{fill:#A57676;} .st13{fill:#00A890;} .st14{fill:#008C74;} .st15{fill:#85D54E;} .st16{fill:#00B294;} .st17{opacity:0.1;fill:#FFFFFF;enable-background:new ;} .st18{opacity:0.2;fill:#273B86;enable-background:new ;} .st19{opacity:0.15;fill:#273B86;enable-background:new ;} .st20{fill:#2350A2;} .st21{opacity:0.3;} .st22{clip-path:url(#SVGID_3_);} .st23{fill:#0078D7;} .st24{fill:#106EBE;} .st25{fill:url(#SVGID_4_);}</style><path class="st0" d="M638.2 65.5c.2.5.6 3 .5 3.6l-29 176.8L341 175l-.2 1.7 265.8 71.6c3 .8 5.8-1 6.2-4l28-173.2c.5-2-.7-5-2.6-5.4z"/><linearGradient id="SVGID_1_" gradientUnits="userSpaceOnUse" x1="392.1" y1="219.1" x2="414.2" y2="-33.7" gradientTransform="matrix(1 0 0 -1 0 404)"><stop offset="0"/><stop offset=".1" stop-color="#0F0F0F" stop-opacity=".9"/><stop offset=".3" stop-color="#353535" stop-opacity=".7"/><stop offset=".5" stop-color="#737373" stop-opacity=".5"/><stop offset=".8" stop-color="#C8C8C8" stop-opacity=".2"/><stop offset="1" stop-color="#FFF" stop-opacity="0"/></linearGradient><path class="st1" d="M3.4 250.8L198 404h602v-66l-190.8-90.7L310.4 217l-27-8.2-38.3-11-2.7 14.8z"/><path class="st0" d="M87 316L3.4 251C-.2 248.2 1 239 5 237l141-63.6c1.8-.8 3.8-.8 5.5 0l90 41.8c4.2 2.2 3.4 12-.6 14.4l-147.5 87c-2 1-4.6 1-6.6-.5z"/><path class="st2" d="M87.5 310.2L4 247.2c-3.5-2.7-3-8.2 1-10l141.6-69.5c1.7-.8 3.7-.8 5.4 0l89 47.2c4.2 2 4.4 8 .3 10.2L94 310.6c-2 1.2-4.6 1-6.5-.4z"/><path class="st3" d="M91.6 300.3l-79.5-60 138-67.6 84.7 47z"/><path class="st4" d="M95.5 292.8L24 239.2 145 180l76 42.2z"/><path class="st5" d="M95.7 289l-67-50.2 116-57 71.5 39.7z"/><path class="st6" d="M100.5 227.6c-1 .8-2 1-3.4 1s-2-.8-3-1.8c-.6-1-1-2-.7-3.4.2-1.3.7-2.3 1.7-3 1-.8 2-1 3.3-1s2.3.8 3 1.8 1 2 1 3.4c-.2 1.2-.8 2.3-1.8 3z"/><path class="st4" d="M149 194.8l-.6.5c-1.6 1.6-3 3.5-3.6 5.7 0 .3 0 1.4-.3 1.6-.2.2-1.3 0-1.6 0-1.4 0-2.6.3-3.7.8-2.4-3.4-7.8-4-12.5-1.5-2.7 1.2-4.6 3.4-5.4 5.5-3.6-3.3-10-3.7-15.8-.6-6.5 3.5-9.4 12-7 17l-1 .5c-3.6 2-5.4 4.4-4 7 1.6 3 5.4 3.6 9 2l22.2-12.3 9-5 1.6-.8 9.3-5c1-.8 2.4-1.7 3.6-2.2 1.4-.6 3-1 4.5-1.5 3-1.2 5.7-3 8-5 .2 0 .3-.2.3-.3l9-5.2c-4.7-3.2-11-6.2-14.7-8.4-2.5.7-5.2 4.5-6.6 6.8z"/><path class="st4" d="M121.8 213c-.4.2-.6.5-1 .6-2.7-4.4-9.5-5.3-15.3-2-5 2.7-8 7.8-7.2 12-2-.3-4.5 0-7 1.3-4 2-6 6.4-4.8 10-1.3 1-2.4 2-3 3.4-1.4-.4-3-.4-4.5.5-2.5 1.3-3.7 4-2.6 6 1 2 4 2.3 6.5 1l1-.7 15-8c12-3 15.3-2.5 15.3-2.5 20-11 12.6-13 12.6-13 3-2 4.2-5 3-7.6-1.5-2.5-5-3.2-8.3-1.4z"/><path class="st0" d="M714 371.7l-98.5-46.5c-4-2-3.4-9.2.2-12l35.3-24c1-1 2.5-1 3.8-.5l97.6 42c2.4 1.2 3 6.8 1 8.6L721 370.7c-2 1.6-4.7 2-7 1z"/><path class="st2" d="M715.7 368l-100.5-47.7c-2.5-1.2-2.8-4.5-.7-6.2l36-27.6c1-.8 2.5-1 3.8-.4l97.6 44.5c2.2 1 2.7 4.2 1 6l-33.3 31c-1 1-2.7 1.3-4 .6z"/><path class="st3" d="M712 363l-88.7-42.2c-2-1-2-3.4-.5-4.7l32.3-24.7c1-.6 2-.7 3-.3l86 39.2c1.8.8 2 3.2.7 4.5L715 362.4c-.8 1-2 1-3 .6z"/><path class="st0" d="M544.6 350.8L251.4 260c-6-2-8-14-2.8-17.7L344 176l265.3 71.3.2 1.2c.3 2.2-.4 6-1.5 8l-50.6 90c-1.8 3-9.3 5.4-12.8 4.3z"/><path class="st2" d="M545.5 346.2L252.2 254c-6-2-7.4-10-2.2-14l88-65.8 271 73s.2 0 0 .3l-54.4 95c-2 3.4-5.6 4.7-9 3.7z"/><path class="st7" d="M435.8 302l-70-22.2c-5.4-1.7-6.8-8.8-2.4-12.6l17.3-14.4c2-1.6 4.6-2 7-1.3l64.3 20.8c4.7 1.6 6.5 7.3 3.5 11.3l-11.6 16c-2 2.4-5.4 3.5-8.3 2.5zm126.2-6l-252.7-78.5c-3-1-3.7-5-1-6.8l34.4-26.7c1-.8 2.4-1 3.7-.7L586 250c2.6 1 5.2 3.8 3.8 6.2l-23.4 38.2c-1 1.5-2.8 2.2-4.5 1.7z"/><path class="st8" d="M608.8 247.2l-270.7-73L356 16c.2-2.2 2.2-3.7 4.3-3.3L635.8 65c2 .3 3.3 2 3 4l-29.5 178s-.3.3-.5.2z"/><path class="st3" d="M599.7 238L350 172.3l16.6-142.6c.2-2 2-3.2 4-3L623.4 76c1.8.3 3 2 2.7 3.8L600 238z"/><path class="st9" d="M368.7 164.6l23.7 19L599.7 238l2.8-16.2L623 97.5l-13-10"/><path class="st10" d="M266 158.7h-36c-2 0-3.6 2-3 4l15.2 50c.4 1.2 1.6 2 3 2h34.2c1.4 0 2.6-.8 3-2l15.2-50c.6-2-1-4-3-4H266z"/><path class="st11" d="M258.4 171H295l2.6-8.5c.6-2-.8-3.8-2.8-3.8H230c-2 0-3.5 2-3 3.8l2.7 8.5h28.7z"/><path class="st10" d="M242.4 213.2s13.6 15 35.3 4c3.3-1.5 5.3-4.6 5.7-8.3v-.3c.8-7-13.5-6.7-13.5-6.7l-27.7 11.2z"/><path class="st11" d="M229.5 171s31.3 9 65.5 0"/><path class="st12" d="M229.7 158.7s28.5 7.4 65 0c0 0-22.7-6-65 0z"/><path class="st13" d="M261 138.3V166h3v-32.8l-3 5z"/><path class="st14" d="M267.3 124s12-5.5 23.3-2.2c11.3 3.4 20 31.6 19 33.7 0 0-12.2-12.3-24-15-11.8-2.4-23-11.7-18.3-16.4zm14-71s8.3 1 15-2 17 .5 20-5.7c0 0 .7-6.2-4.5-6.2s-33.5 11-33.5 11l3 3.3z"/><path class="st15" d="M255.3 64.7s-.5-7-1-8-3.3-7.4-3.3-8.4S222.3 50 228 0c0 0 15 3.6 27.2 41.2 0 0 2.8 4.4-1.6 6.3 0 0-1.7 2 1.2 6.6 0 0 2.3-9 4.4-9.7 0 0-4 11.8-2 14 0 0 6.7-16.6 55.3-19 0 0-18.3 5.7-33.4 16 0 0-8 5.8-17.6.7 0 0-3.3 3.7-3.3 4.2s0 13.8 1.3 18.7l-2.4 1-1.6-15.4z"/><path class="st16" d="M224 79.6c-1.2.5-2.4 0-3-1l-.3-.3c-1.2-.8-10.3-10 3.6-17.3s28.7-3.4 32.3.2c3.6 3.5-1.4 12.4-8.5 12.5-5.4 0-18 3.4-24 6zm37.2 16s15.8-18 25-20c9.4-1.7 13-5.3 20-2.2 7 3.2-21.4 3.8-32.7 15.8 0 0-10 5-12.2 9v8h-2s-.7-16.3-2.5-17.4c-1.8-1-1.5-3.6-11.7-3.6s-16.4 13.7-46.7 8.2c0 0 12.4-18.6 52.4-10l8 1.8-1.8-8 2.3.2c0 .2 2.6 17 2 18.3z"/><path class="st14" d="M255.6 84.6c-1-2.5.2-5.5 2.6-6.7 3.5-2 9.2-4.6 12-4.6 4 0 27.7 11.4 27.7 14 0 2-2 3.3-2.7 5.2-.5 1.3-2 2.2-3.3 1.8-1.6-.5-3.8-.7-6 0-4 1-26.6-.5-30.4-10zm-28 13.4s31-22 31.5 8.4l-9.4 5.3s2-4-18-5.3c-20.2-1.5-3.8-8.5-3.8-8.5z"/><path class="st15" d="M257 105.5s-24 7.4-24.6 8.4c-.6 1-11.4 8.7 2 28.4 1.8 2.8 4 5.2 6.8 7.4.2 0 .4.3.6.5.8 1 2.2 1 3.3.6 2.3-1 5.8-2.4 10.4-3.5 6.2-1.5 17.3-21.4 15.8-34-.6-5.6-6-9.6-11.7-8.5l-2.2.5z"/><path class="st11" d="M260.6 162h3.8l1.8 3.6-.4 1.4-4.3.3-4.3-1.5 3-3.8"/><path class="st4" d="M588 221.3l-219.3-56.7 13.6-123 228 45.8z"/><path class="st5" d="M583 214.2l-208-53.8L387.7 48 604 91.3z"/><path class="st17" d="M465.8 114.4l-78-66.5L604.2 91l-123.8 31.4z"/><path class="st6" d="M471.5 103c-2.4 0-4.5-1-6.3-2.7-1.8-1.8-2.7-4-2.7-6.3s1-4.5 2.7-6.3c1.8-1.8 4-2.7 6.3-2.7s4.5 1 6.3 2.7c1.8 1.8 2.7 4 2.7 6.3s-1 4.5-2.7 6.3c-1.8 1.8-4 2.7-6.3 2.7z"/><path class="st4" d="M585.8 114.2h-1.3c-4.4.5-8.8 2-12.3 4.7-.5.2-2 2-2.4 2-.6 0-2-1.7-2.5-2-2-1.4-4-2.4-6.4-3 0-8-7.5-15.6-17.7-17-5.8-1-11.2 0-15 2.3-1.7-9.5-11.2-18-24-20C490 79 475.6 88.6 473 99.6c-.6 0-1.2-.5-2.2-.6-8-1-13.7.3-14.7 6.5-1 6 4 11.8 11.6 13.3l49 7.8 20.2 3.2 3.3.5 20.6 3.3c2.7.4 5.7.5 8.4 1.2 3 .7 5.8 2.3 8.7 3 6 1.7 12 2.3 18.2 2l.6-.3v-.6c1.7-7.6 3.2-14.7 4-22-4.7-2-10-3-15.2-3z"/><path class="st4" d="M522 110c-1-.2-1.6 0-2.2-.2 1-10-8.5-19.6-21.3-21.7-11.3-1.6-21.7 2.8-25.7 10.5-2.6-3-7-5.5-12-6.3-9.3-1.4-17.8 3-19.8 10-3-.3-6.3.4-9 1.6-1.5-2.2-4-4-7.4-4.6-5.5-1-10.6 2-11.3 6.2-.7 4.3 3.4 8.3 9 9.2l2.6.4 32.4 5.2c22.2 10 25 9.8 25 9.8 43.8 7 37 0 37 0 6.7 1 12.5-2.5 13.4-8 .8-5.4-4-10.8-11-12z"/><path class="st18" d="M524.6 160.5l1.2-5.4L380.4 122 378 133c4 3.6 18 8.6 26 10.4 10.5 2.4 20 1.6 25-1.4 2.7 1.4 6 2.6 9.6 3.4 5.7 1.3 11 1.4 15.5.6 3.3 2.5 9 6.4 14 7.8 7.2 2.2 15 1.8 20.7 0l36 6.7z"/><path class="st14" d="M381.4 103.7c35.2-3.7 71.2 3 102 20.7 1.3.8 2.7 1.5 4.2 1.5 1 0 2-.7 3-1 8.2-3.6 17-5 25.7-5.8 28-2.5 55.2 1.6 80.6 13.2-3 15.6-5.7 32.2-8.4 48-37 .4-72.3-8-108.2-17.3-19.5-5-39-10.3-58-18-11.6-4.6-23.3-10.5-31.5-20-5-6-11-10-10.3-17.5l.6-4z"/><path class="st18" d="M592 161.8c-5.7-3.2-13-.8-19.2-3-3.3-1-6-3.4-9.4-4.4-2-.6-4-.7-5.8-.7-4.3 0-8.6.4-12.8-.6-5.6-1-10.4-5-16-6.4-8-2.2-17 .3-25-2l-7-3c-4.6-1.6-9.4-2-14-1.2.2 3 3 4.7 6 5.8 3.5 1.6 7.3 2.8 11 3.7 3.2.7 6.5 1.3 9.8 2.2 3 .8 6 2 8.7 3 23.3 8.4 47 16.6 71.4 20L592 162z"/><path class="st13" d="M388.6 106.5c19.3 2.6 30.6 10 46.2 21.7 1 .7 1.8 1.4 2.8 1.8 1.5.6 3.2.6 4.8.5 15.2 0 30.4 4 43.5 12 2 1.2 3.7 2.4 6 3.3 1.5.7 3.4 1 5.2 1.4l15 3c15 3 31.2 6.7 40.8 18.6-.2.5-.6 1.6-1 2-16.7 4.6-34.7 4-52 .7s-33.7-9-50.4-14C425.4 150 403.4 133 378 133l3-27c1 0 6.6.3 7.6.5z"/><path class="st3" d="M583 214.3l-208-53.7 4-36.7 210.6 51z"/><path class="st15" d="M379 124l171 41.3c-9.7-13-24.2-12.5-37.6-15.2l-15-3c-1.8-.2-3.7-.5-5.4-1.2-2-.8-4-2-6-3.3-13-7.8-28.3-12-43.5-12-1.6 0-3.3 0-4.8-.5-1-.5-2-1.2-2.8-2-15.8-11.6-27-19-46.4-21.6l-7.5-.5-2 18z"/><path class="st16" d="M379 124l171 41.3c-16.6-7.8-22.7-9-36-11.7-5-1-10.2-1.8-15-2.8-2-.4-7-1.4-8.7-2-2-.7-4-1.7-6-2.7-12.6-6.2-25.4-8.4-40.6-9.2-1.6 0-3.3 0-4.8-.6-1-.3-2-.8-3-1.3-15-9.4-25.6-11-44.8-14l-11.8-.7-.4 4z"/><path class="st19" d="M379 124l171 41.3c-13 3.8-27.4.2-40.6-3.5l-14.7-4.2c-1.8-.5-3.6-1-5.4-1.2-2.3-.2-4.6 0-7 .2-15 1-30.5-2.2-44-9.2-1.4-.7-3-1.5-4.5-1.7-1 0-2.2 0-3.3.3-19.2 3.3-32.6 4.7-51-1.8l-2.6-1 2-19.3z"/><path class="st20" d="M426.7 86.7c1 .2 2 1 2.3 2 .7-.8 1.7-1.2 2.8-1 .8.2 1.5.6 2 1.3-.4-1-1.2-1.6-2.2-1.8-1-.2-2 .2-2.5.8 0-1-1-1.5-2-1.7-1-.2-2 .2-2.4 1 .6-.5 1.4-.7 2.2-.6z"/><path class="st21 st5" d="M495.7 152.2l87.4 62 1.8-9.5-81.2-50.7zm13.3 3.2l76.3 45.5 1.4-8.4-69.6-35.3zm16.8 4l61.6 29 1-5-56.6-22.5zm17.4 4.3l45.7 15.7.5-4.3zM453.5 142l15.7 43 28.5 7.2-34.3-47.8zm-15-3.7l-6.5 37 28 7.2-10.8-41.6zM425 135l-19 33.6 17.8 4.6 10.2-36zm-15-3.5l-35.3 29 24 6.3 20.6-33zm81.8 19.8l77 59.3-32.6-8.4-52.3-52.8zm-12.5-3l48.5 52-23.7-6.3-35-48.2zm-73-17.8L376 152.3l1.5-15 22-8.4zm-12.5-3l-15.8 4.3 1-8z"/><path class="st16" d="M588.8 180.2s-62-19-109.4 7.3L583 214.3l5.8-34z"/><path class="st15" d="M587 190.6s-43-13.2-76 5l72 18.7 4-23.7z"/><path class="st20" d="M439.2 84.8c1 .2 2 1 2.3 2 .7-.8 1.7-1.2 2.8-1 .8.2 1.5.6 2 1.3-.4-.7-1.2-1.4-2.2-1.6-1-.2-1.7.2-2.3.8-.3-.8-1-1.4-2-1.6-1-.2-2 .2-2.6 1 .7-.6 1.5-.8 2.3-.6z"/><path class="st14" d="M166.6 194c-16.5 4.4-29.6 13-41.7 25-4 4-7.5 8-10 12.7l-1 1.7c-.8.6-1.8.8-2.7 1-19.8 3.4-40.6 11.2-55.2 25l15.3 11.4c6.6.4 13.2-1.2 19.6-3.2 11.6-3.7 23-9 34-14 20.5-9.5 51-30 68.2-44.7-14.2-8.7-16.2-8.6-26.7-15z"/><path class="st18" d="M174.8 198.6c-5.2 1.6-2.7 3-7 4.7-2.2 1-4.8 1-7 2-1.4.7-2.5 1.5-3.6 2.4-2.3 2-4.4 4.3-7 5.7-3.7 2-8 2.2-11.7 4-5.4 2.6-3.3 6-8.8 8.6-1.7.8-4.3 5-6 5.8-3 1.2-7.2 4.3-9.3 7 1.6 1.5.4-2 2.4-2.6 2.6-1 5.2-2 7.6-3.3 2-1.3 4-2.5 6.3-3.6 2-1 4-1.8 6-2.6 16.4-6.6 33-13.3 47.6-23l-9.5-5.4z"/><path class="st15" d="M67.4 267.7l89.7-49c-7.4 0-18 5.5-24.6 9.5l-7.3 4.4-2.7 1.5c-1.2.7-2.5 1-3.8 1-8.4 2-16.3 6-22.6 11.8-.8.6-1.4 1.2-2.3 1.6l-2 .4c-11 1.3-18 3-27 9l-5.2 4.2 8 5.7z"/><path class="st16" d="M67.4 267.7l89.7-49c-9.7 3-16 6.3-22.6 10.2l-7.3 4.4-4.2 2.4c-1 .4-2.3.7-3.5 1-7.7 2.4-14 6.3-20.4 11.7-.8.6-1.5 1.2-2.3 1.5-.6.2-1 .4-1.7.5-10 2-15 4.7-24 10.7-.5.3-4.8 2.2-6.5 4l3 2.3z"/><path class="st3" d="M95.7 289l-29-21.7 117.8-63.5 31.7 17.7z"/><path class="st19" d="M66.7 267.3l90.3-48.7c-4.3 6.3-14.4 12.6-21.3 15.8L128 238c-1 .5-2 1-2.8 1.6-1 .7-2 1.7-3 2.6-6 6-14 10.3-22 12.4-1 .2-2 .4-2.6 1-.5.3-1 .8-1.3 1.2-7.2 8.4-20.5 16.7-21 16.8l-8.6-6.3z"/><path class="st20" d="M75 236c.7-.6 1.5-1 2.3-.7-.2-.8 0-1.6.6-2.3.3-.5 1-.7 1.5-.7-.7-.2-1.5 0-2 .6-.6.4-.8 1-.6 2-.8-.4-1.6 0-2 .4-.7.6-.8 1.4-.6 2 0-.4 0-1 .6-1.5zM79 226.8c.7-.6 1.5-1 2.3-.7-.2-.6 0-1.4.6-2 .3-.6 1-.8 1.5-.8-.7 0-1.5 0-2 .7-.6.5-.8 1.2-.6 2-.8-.3-1.6 0-2 .5-.7.6-.8 1.4-.6 2 0-.4 0-1 .6-1.5z"/><defs><path id="SVGID_2_" d="M712 363l-88.7-42.2c-2-1-2-3.4-.5-4.7l32.3-24.7c1-.6 2-.7 3-.3l86 39.2c1.8.8 2 3.2.7 4.5L715 362.4c-.8 1-2 1-3 .6z"/></defs><clipPath id="SVGID_3_"><use xlink:href="#SVGID_2_" overflow="visible"/></clipPath><g class="st22"><path class="st5" d="M679 366l-77.6-35.6L681 270l79.4 27z"/><path class="st6" d="M667.6 317.3c-.6.7-1.4 1-2.4 1.2s-1.8-.2-2.6-.8c-.7-.6-1-1.4-1.2-2.4s.2-1.8.8-2.6c.6-.7 1.4-1 2.4-1.2s1.8.2 2.6.8c.7.6 1 1.4 1.2 2.4 0 1 0 2-.8 2.6z"/><path class="st4" d="M699.4 285.2c0 .2-.2.3-.3.4-1 1.4-1.5 3-1.6 5v1.2c-.2.2-1 .2-1.2.3-.8.4-1.7.8-2.4 1.3-2.4-2.2-6.5-2-9.7.7-2 1.4-3 3.3-3.2 5-3.3-2-8.2-1.3-12 2-4.5 3.6-5.4 10.3-2.8 14-.3 0-.6.2-1 .4-2.3 2-3.4 4-1.8 6s4.6 2 7 0l15-12.6 6.2-5 1-1 6.3-5c.8-.8 1.6-1.7 2.5-2.3 1-.7 2.2-1 3.2-1.8 2-1.4 3.8-3 5.3-5v-.3l6.2-5.3c-4.3-1.5-9.4-3-12.7-4-1.8 1-3.3 4.4-4 6.3z"/><path class="st4" d="M681.6 303l-.6.7c-2.7-3-8-2.6-12 .7-3.5 3-4.8 7-3.6 10.3-1.6 0-3.4.6-5 2-2.8 2.3-3.7 6-2.2 8.4-1 1-1.5 2-1.8 3.3-1 0-2.3.2-3.3 1-1.5 1.4-2 3.7-1 5 1 1.3 3.5 1.2 5-.2l1-.6 10-8.4c8.6-4 11.3-4.2 11.3-4.2 13.5-11.2 7.6-11.7 7.6-11.7 2-1.6 2.4-4.2 1-6-1.3-1.6-4-1.6-6.3 0z"/><path class="st14" d="M715.5 278.2c-13 6.4-22.6 15.7-30.7 27.7-2.6 3.5-4.8 7.5-6 12l-.8 1.5c-.5.6-1.3 1-2 1.2-16 6-32 16-42 30l14.6 7c5.6-.8 11-3.2 15.8-6 9.2-5 17.7-11 26.2-17.2 15.5-11.3 37.7-33.3 49.6-48.3-13.2-4.7-14.8-4.4-24.7-8z"/><path class="st18" d="M725.6 285.7c-3.7 2-1.6 2.6-4.6 4.6-1.6 1-3.6 1.5-5 2.6-1 .4-1.7 1.2-2.4 2-1.5 2-2.7 4-4.5 5.5-2.2 2-5.5 3-8 4.8-3.7 2.8-1.6 5-5.4 7.8-1.2 1-2.5 4.6-3.7 5.4-2.3 1.4-5 4.4-6 6.7 1.3 1 0-1.4 1.3-2.2 2-1.2 3.6-2.4 5.3-3.8l4.3-3.5c1.2-1 2.7-2 4-2.8 11.6-7.4 23-15 32.7-24.6l-8-2.6z"/><path class="st15" d="M654.5 354l60.6-50.5c-5.6 1.2-13 7-17.2 11l-5 4.5c-.5.5-1 1-1.8 1.5l-2.8 1.3c-6 2.7-11.5 7-15.4 12.2-.4.6-.8 1-1.4 1.5-.4.3-1 .4-1.4.6-8 2.8-13.2 5-19 11-.4.4-3.3 3.6-3.5 4l7 3z"/><path class="st16" d="M654.5 354l60.6-50.5c-7 4-11.2 7.3-15.5 11.2l-5 4.5-2.8 2.5c-.8.6-1.6 1-2.5 1.4-5.4 3-9.5 7-13.6 12l-1.4 1.5-1.2.6c-7.2 3-10.6 6-16.5 11.8-.3.3-3.3 2.4-4.3 4l2.5 1.4z"/><path class="st3" d="M700.3 376L654 353.7l79.7-65.6 48 18.8z"/><path class="st21 st5" d="M699.5 316.2l67-21.8-9-3-53.8 21.2zm7.2-6l47-20-6.2-2-36.3 18.2zm9.3-7.8l28.3-15.2-3.3-1-21.8 13.5zm9.5-8l13.2-9-1.7-.4zm-49 41l38 11.3 8-15-40.7-.8zm-8.5 7l37.2 30.7 16.3-16.4-47.5-19zm-7 6l13.7 31 11-9.4-20-25.7zm-8.3 6.8l1.2 24.6 13 6.2 3.3-3-12.6-32zm44.7-37.2l64.8-18.5-18 14.7-51 7.3zm-6.8 5.6l49-5.6-13.3 10.6-41.3-.3zm-40 33.2l-.4 21.3-7.5-3.3 4-14.5zm-6.8 5.8l-4.2 10.6-5.3-2.6z"/><path class="st19" d="M654 353.8l61-50.3c-2.2 5.4-9 11.7-13.7 15.2l-5.3 4-2 1.4c-.6 1-1 1.8-1.7 2.6-3.8 5.5-9 10-15 12.7l-1.7 1-.8 1.3c-4.2 7.5-13 15.7-13.4 16L654 354z"/><path class="st20" d="M646 323.3c.5-.6 1-1 1.7-1-.3-.5-.3-1 0-1.7.4-.4.8-.7 1.3-.8-.6 0-1.2.2-1.5.8-.3.5-.3 1 0 1.6-.7 0-1.2.3-1.5.8-.3.5-.3 1.2 0 1.7-.2-.4 0-1 0-1.4zm1.8-7.5c.4-.6 1-1 1.6-1-.3-.5-.3-1 0-1.7.4-.2.8-.5 1.3-.6-.6 0-1.2.2-1.5.8-.3.6-.3 1.2 0 1.7-.7 0-1.2.2-1.5.7-.3.5-.3 1.2 0 1.7-.2-.5 0-1 0-1.4z"/><path class="st16" d="M731.4 309.8s-22 14.2-17 53l44.5-38-27.7-15z"/><path class="st15" d="M739.8 314.4s-15 9.8-11.7 36.6l31-26.2-19-10.4z"/></g><path class="st21 st5" d="M141.5 227l70-8-8.3-4.6-56.8 10zm8.3-4.5l50-10-5.7-3.2-39 10.4zm10.6-5.7l30.8-9.2-3-1.7-24 8.7zm11-5.8l14.6-6.3-1.5-.8zM115 241.2l28 15 18-9.5-39.8-8.8zm-9.5 5l17.2 27.5 20-11-30.4-20zm-8.3 4.6l7.4 33 12.5-7-14-29zm-9.4 5L84 280.2l11.7 8.7 4-2.4-6-34zm51.2-27.5l67.3-5-20.7 10.7-51.4-3zm-7.7 4.2l49 4.2-15 7.8L125 236zM85.5 257l-4.7 20.8-6.6-5 6.8-13.3zm-8 4.3l-6 9.5-4.8-3.5z"/><path class="st16" d="M186 204.7s-38.7 17.6-52.7 63.2l83-46.5-30.3-17z"/><path class="st15" d="M195.3 209.8s-26.7 12.2-36.5 43.8l57.5-32-21-11.8z"/><path class="st23" d="M459.7 164.2c-.3 0-.5-.4-.5-.7s.4-.5.7-.5v-.2l-4-.6-.3 1.5 4 .7v-.2z"/><path class="st23" d="M466.2 163c0 .7-.7 1-1.3 1l-16.7-3c-.6 0-1-.5-1-1 .2-.7.8-1 1.4-1l16.5 2.8c.6 0 1 .6 1 1.3z"/><path class="st23" d="M460.5 162c0 .7-.7 1-1.3 1l-16.5-3c-.6 0-1-.5-1-1 .2-.7.8-1 1.4-1l16.7 2.8c.6.2 1 .7 1 1.3zm3.2 3.7c0 .4-.5.7-1 .7l-12-2c-.5-.2-.8-.6-.7-1 0-.4.4-.7 1-.6l12 2c.5 0 .8.4.7 1zm-2.7 1.8c0 .3-.3.5-.6.5l-9.5-1.6c-.5 0-.7-.4-.7-.7 0-.4.4-.6.7-.6l9.6 1.8c.3 0 .5.5.5.8z"/><path class="st23" d="M452.5 163c.3 0 .6-.2.6-.5s0-.6-.2-.7v-.2l3.8.6-.3 1.5-4-.7h.3zm7.5 3.7c-.2 0-.4-.2-.4-.4s.3-.4.5-.4v-.3l-2.3-.4h-.3l-2.5-.4s.3.3.3.5-.3.3-.5.3l2.4.4h.4l2.5.4z"/><path class="st4" d="M458 126.2s-23.6 9.3-12 29l7.8-2s-2-8 1.2-17c3.4-9 3.4-10 3.4-10"/><path class="st24" d="M453.3 156.7l5.3-31.6h.5l-5 32z"/><path class="st12" d="M448 156.6s2.7-.6 6 0l5.7 1c.8 0 1.3.8 1.2 1.6l-13-2.6z"/><path class="st24" d="M447.3 157l.2-1.5v1.5zm3.7.7l.3-1.4v1.5zm4.7 1l.2-1.5-.3 1.5zm4.5 1l.3-1.5-.2 1.5zm4.2.7l.3-1.4-.3 1.4zm.2-1.4l-20-4.2 20 4.2zm-19.8-3v-1s0-.2-.2 0l.2 1z"/><path class="st4" d="M460.4 130.6l4 26L454 155l5-29.3"/><path class="st24" d="M454 154.6l-.2.5 10.4 2c.3 0 .5 0 .6-.4l-11-2zm11 5l-20.5-4 1.7 3.4 20 3.4c.2 0 0-2.3-1-2.8z"/><path class="st10" d="M446.2 159l20 3.4s0-1-.4-2l-21-4 1.4 2.6z"/><g><path class="st23" d="M118 254.4h-.4v-.7l-2 1.4.5 1c2.3-1.5 2.3-1.5 2-1.5z"/><path class="st23" d="M120.6 250.8c.2.3 0 .8-.2 1l-9 6.5c-.4.2-1 .2-1 0-.4-.5-.2-1 0-1l9.2-6.6c.3-.3.8-.3 1 0z"/><path class="st23" d="M117.5 253c.2.3 0 .8-.2 1l-9 6.5c-.4.2-1 .2-1 0-.4-.5-.2-1 0-1l9.2-6.6c.3-.5.8-.5 1 0zm3.2 0c.2.3 0 .7 0 1l-6.8 4.7c-.4.2-.7 0-1-.2v-.7l7-4.8h.6zm-.4 2.3v.6l-5.3 3.5h-.6v-.7l5.3-3.8c.2-.2.5 0 .6 0z"/><path class="st23" d="M114 257.2c.3 0 .3-.4.2-.5 0-.2-.3-.2-.5 0v-.2l2-1.5.6.8-2.2 1.4zm5.4-1.8h-.4v-.4l-1.4 1h-.2l-1.4 1c.2 0 .4 0 .5.2v.4l1.3-1h.2c1.5-1 1.5-1 1.4-1.2z"/><path class="st4" d="M99.3 237.2s-6.7 15.5 8 19.3l2.8-4.7s-4.5-2.7-7.2-8.5c-2.7-6-3.2-6.4-3.2-6.4"/><path class="st24" d="M99 236.5l.4-.2 12.4 17.5h-.3z"/><path class="st12" d="M109 256.3s1-1.6 2.8-3l3-2c.5-.4 1-.3 1.5 0l-7.3 5z"/><path class="st24" d="M108.2 256l.7 1h-.3zm2.2-1.4l.7.8zm2.6-1.8l.6.8zm2.6-1.8l.6 1zm3-.6l-.6-.8.5.8z"/><path class="st24" d="M118 249.6l-11.4 7.5v.3l11.4-7.6z"/><path class="st24" d="M107.2 257.5l-.5-.4v.3l.5.3z"/><path class="st4" d="M102.5 238.2l14.2 10.4-5.7 4-11.4-16"/><path class="st24" d="M110.8 252.6l.2.3 5.7-4.3s.2-.3 0-.5l-6 4.3zm7.7-3l-11.7 7.8 2.4.8 11-8c.2 0-1-.8-1.7-.6z"/><path class="st10" d="M109.3 258.3l11-8s-.4-.4-1-.6l-11.8 8 1.8.6z"/></g><g><path class="st23" d="M701.3 337.2h-.4c-.3 0-.3-.3 0-.4h-.3l-1.3 1 .5.6 1.2-1.2z"/><path class="st23" d="M702.8 334.4c.2.2.2.5 0 .7l-6 5.7c-.2.2-.5.2-.7 0v-.7l6-5.6c.4-.3.7-.3 1 0z"/><path class="st23" d="M700.8 336.2c.2.2.2.5 0 .7l-6 5.3c-.2.2-.5.2-.7 0v-.7l6-5.5h1zm2.2-.2c.2.2.2.4 0 .5l-4.3 4h-.5v-.5l4.4-4h.5zm0 1.6v.4l-3.4 3c0 .2-.3.2-.4 0v-.3l3.4-3c0-.2.3-.2.4 0z"/><path class="st23" d="M698.8 339.5v-.4h-.4l1.2-1 .5.4-1 1.2zm3.5-1.7h-.3v-.3l-1 .7-1 1h.4v.3l1-.7 1-1z"/><path class="st4" d="M686.4 326.7s-3.4 11.7 7.4 13l1.6-3.6s-3.6-1.3-6-5.2-3-4.3-3-4.3"/><path class="st24" d="M686 326h.3l10.4 11.3z"/><path class="st12" d="M695 339.4s.5-1.2 1.7-2.3l2-1.7c.3-.3.7-.2 1 0l-4.7 4.2z"/><path class="st24" d="M694.5 339.3l.5.4zm1.5-1.3l.5.4zm1.6-1.4l.5.5zm1.7-1.6l.5.5zm2-.7l-.4-.5.2.5zm-.5-.5l-7.4 6.4 7.4-6.4zm-7 6.6l-.4-.3.4.5z"/><path class="st4" d="M688.8 327l11 6.2-3.7 3.3-9.4-10.3"/><path class="st24" d="M696 336.5l.2.2 3.7-3.4v-.3l-4 3.5zm5.2-2.8l-7.6 6.6 1.8.4 7.2-6.6s-1-.4-1.4-.2z"/><path class="st10" d="M695.4 340.7l7.2-6.6-.8-.2-7.7 6.7 1.5.3z"/></g><linearGradient id="SVGID_4_" gradientUnits="userSpaceOnUse" x1="637.2" y1="65.5" x2="637.2" y2="65.5"><stop offset="0"/><stop offset=".1" stop-color="#0F0F0F" stop-opacity=".9"/><stop offset=".3" stop-color="#353535" stop-opacity=".7"/><stop offset=".5" stop-color="#737373" stop-opacity=".5"/><stop offset=".8" stop-color="#C8C8C8" stop-opacity=".2"/><stop offset="1" stop-color="#FFF" stop-opacity="0"/></linearGradient></svg>