<svg id="Layer_1" xmlns="http://www.w3.org/2000/svg" viewBox="0 0 640 460" width="640" height="460"><style>.st0{fill:#F7F7F7;} .st1{opacity:0.25;fill:#C1C1C1;} .st2{fill:#FFFFFF;} .st3{fill:#00B294;} .st4{fill:#0078D7;} .st5{fill:#1A9BF5;} .st6{opacity:0.6;fill:none;stroke:#0078D7;stroke-width:2;stroke-linecap:round;stroke-miterlimit:10;stroke-dasharray:9.26,9.26,9.26;enable-background:new ;} .st7{opacity:0.43;fill:#EAEAEA;} .st8{fill:#86CBCE;} .st9{fill:#65CE90;} .st10{fill:#106EBE;} .st11{opacity:0.3;fill:#217893;enable-background:new ;} .st12{fill:#019E4A;} .st13{fill:#85D54E;} .st14{fill:#005A9E;} .st15{fill:#6CE09D;} .st16{fill:#FFB4B1;} .st17{fill:#6DC2E9;} .st18{fill:#0072C6;} .st19{fill:#247B96;} .st20{fill:#A57676;} .st21{fill:#00A890;} .st22{fill:#008C74;} .st23{fill:#EAEAEA;} .st24{fill:#C8C8C8;} .st25{opacity:0.4;fill:#C1C1C1;}</style><title>Share</title><circle class="st0" cx="323.6" cy="230.1" r="229"/><path class="st1" d="M187.8 341L17 369.7l64-142.4-65 142.4v.2c-.5 1 .3 2 1.2 1.6L187.8 343v-2z"/><path class="st2" d="M291.4 105.3c1 0 1.8.4 2.6.4.8-16 14.4-28.3 30.4-27.4 12.6.6 23.3 9.4 26.5 21.6 3.7-4.5 9.3-7 15-6.8 11 0 20.3 8.5 21.3 19.5 3.8.5 7.4 2.2 10.2 4.8 2.2-3 5.7-5 9.5-5 6.7 0 12 5.4 12 12s-5.3 11.8-12 11.8H290.7c-8.5-.7-14.8-8.2-14-16.7.6-8 7-14 14.7-14.4zM541.7 254l-81.4-40-142.5 14-110-31-121 28.4L17 369.6 188 341l147 34.6 186.2-21.4 100 15.8z"/><path class="st3" d="M312.7 298.2L209 278.8l-2-80 110.5 29.8z"/><path class="st1" d="M620.8 370l-100-15.8-61-140 81.5 40z"/><path class="st4" d="M188.6 335.4l-157 25L87 226.6l120-28z"/><path class="st5" d="M518 347.6l-184.2 20-16.3-139 142.8-13z"/><path class="st4" d="M613.2 362.8L518 347.6l-58-132.2 80 39.8zM317.5 228.6l-11.6-3c.6 1 1.4 2.3 2 3.6 3 6 1 12.7 1.7 19.2 1 10-4 19.7-9.7 28-2 3-4.4 6.3-7.6 8.2s-7.6 2.4-10.7.2c-4.3-3-4.3-9.4-7-14s-8-6.7-11.8-10.6c-6-6-8-13.2-15-18.2s-5.6-8.5-4-15.3l1-4c.7-4.7 0-9.4-1-14l-37-10-18.5 136.7 145.3 32-16.5-138.8z"/><path class="st2" d="M242 178.6c1-3 4.8-5.2 15.2-2.8 0 0 1.3-32.7 36-24.4 0 0 23 9 18 24.4 0 0 10.7 4.8 11.3-5.4.6-10 17.8-18.4 24.7-10 0 0 33.6-42 59 3.7 0 0 21.6-15 27.3 12 0 0 10-1.8 8.8 4-.7 3-3.4 5-6.5 5h-189c-2.7 0-5-2-5-5 0-.3 0-1 .3-1.3z"/><path class="st6" d="M150.4 153.3s62.2-91.6 160.6-46m-40 190.4S247.4 168 369 161"/><path class="st2" d="M313 108.2l50.7-.4 13.5 13.3v-.6l-.3-18.6-70 .5.6 89.4h5.8z"/><path class="st7" d="M313 108.2l50.7-.4 13.5 13.3v-.6l-.3-18.6-70 .5.6 89.4h5.8z"/><path class="st2" d="M375.8 189.3l-66 .4-.7-85.5 66-.5.5 18z"/><path class="st8" d="M593.5 330.8h-.5l.3.5c-.3.7 1-.3.2-.5z"/><path class="st9" d="M460.3 215.5c-3.6-.8-81 7.4-81 7.4l-1.8 1c-6.3 4.8-12 8-16 13.7-1.6 2-1 5 1 6.4.7.6 1.5 1 2.4 1h11c5.4-.6 12.2-1 15.4 3.4 4 6-1.2 16.6 5 20.3 4 2.3 8.7-.4 13-.8 5-.5 9.7 2 13.7 5s8 6.4 12.6 8 10.6 1.3 13.6-2.6c3-3.7 2-9 2.5-13.7s3.3-10.3 8-9.8c2.4.2 4.2 2 6 3.7 5 5.2 17.5 24.2 18.3 29 2 12.5-8.6 11.8-14.7 19.4-2.4 3-4.2 6.4-6.6 9.3-4 5-9.8 8.7-15.4 12.2-2 1-4 2.7-5.6 4.5-1.4 2-2 5-.6 7 1.4 1.7 3.8 2.4 6 2.3 2-.2 4.2-.7 6.2-1.4 7-2 14-1 21-.4 8.5 1 22.3 7 29.6 1.7 2.6-2 7.3-7 8.2-9 3.3-7.2-5.3-12.2-9-20.4l-14.7-34-26-59.7-1.7-4z"/><path class="st6" d="M314.8 132.7s136.7 20.2 102 138.8"/><path class="st3" d="M572.6 341c5.3-5 12-8.2 19-9.5h.3L540 255s-77.2-39-80-39.8l52 118c15.7-.3 31.4 3 45.6 10 5 2.5 11 1.5 15-2.3zm-369.2-6c1.2-4 1.7-8 1.4-12-.2-1.4 0-2.8.4-4 .7-1 1.5-1.8 2.6-2.3l18.2-11c2-.6 3.4-3 2.8-5l-1-11.2c-.3-1.6-.2-3.3.2-5 1-3 4.3-4.6 7.4-5s6.3 0 9.5-.4c.7 0 1.5 0 2.2-.6 1.5-1 1.6-3.3 1-5-2-5.3-8.4-7-12.8-10.5-4.8-4-7-10.4-11-15-3.5-4-9-8-8-13 .4-2.7 2.3-4.7 3.7-6.8 5-7.7 5-18-.3-25.5l-.3-.4L207 199l-18.7 136.7 13.4 3c.8-1 1.2-2.2 1.6-3.4z"/><path class="st9" d="M87 226.7L47.3 322c3-3 7-4.6 11-5 6-.2 13 2 16.7-2.4 1.6-2 2-4.4 3-6.6 2.5-6 9.4-9.4 16-10.5s13.4-.6 20-2c5.7-1.2 11-4 17-5 5.8-1.2 12.6-.5 16.5 4 3.4 4.2 3.5 10 2.8 15.4s-2 10.4-1 15.7c1 6 3 9 8.7 11 .2 0 2.2 2 2.2 2 0 .3-.2.6-.5 1 0 0-.2 0-.3.2l29-4.6L207 198.7l-120 28z"/><path class="st10" d="M94 207.8s-2.3 19.7 2.4 26l2.6-.7s-4.5-4.2-3.6-25H94z"/><path class="st11" d="M144.6 220.2c-22.4 0-44 1.6-60.7 18.7h55l-13 4 16 12.5 27.4-7.4 9.4 7.6 20.7-2.6 2.5-18.3 5-36-34.3 8c-16 3.7-21.3 13.5-28.4 13.5z"/><path class="st3" d="M126.8 233.7c-6-9.7-18.5-12.7-28.2-6.8-2.8 1.5-5 4-6.8 6.6h35z"/><path class="st12" d="M116 241.2c-6-9.7-18.6-12.7-28.3-6.8-2.8 1.7-5 4-6.8 6.8h35z"/><path class="st13" d="M104 243.8c-3-5-9.5-6.7-14.6-3.6-1.5 1-2.7 2-3.6 3.6H104z"/><path class="st14" d="M141.3 154.5h15.3V144l-3.2-1.6z"/><path class="st3" d="M147.2 239.8h12.2l5.7-8.2.7-81.4-6.3-3.5z"/><path class="st11" d="M147.2 239.8h12.2l6.6-8.8v-81l-6.7-3.3z"/><path class="st15" d="M132 146.7h27.5v63.5H132z"/><path class="st15" d="M138 142.4h15.4v12H138z"/><path class="st14" d="M136.5 150.2h2.2v3.7h-2.2zm5 0h2.3v3.7h-2.2zm5.2 0h2.2v3.7h-2.4z"/><path class="st2" d="M151.8 150.2h2.2v3.7h-2.2zm-15.3 7.4h2.2v3.7h-2.2z"/><path class="st14" d="M141.6 157.6h2.2v3.7h-2.2zm5 0h2.3v3.7h-2.4z"/><path class="st4" d="M151.8 157.6h2.2v3.7h-2.2zm-15.3 7.4h2.2v3.8h-2.2z"/><path class="st2" d="M141.6 165h2.2v3.8h-2.2z"/><path class="st4" d="M146.7 165h2.2v3.8h-2.4z"/><path class="st16" d="M151.8 165h2.2v3.8h-2.2zm-15.3 7.6h2.2v3.7h-2.2z"/><path class="st14" d="M141.6 172.6h2.2v3.7h-2.2z"/><path class="st4" d="M146.7 172.6h2.2v3.7h-2.4zm5 0h2.3v3.7h-2.2z"/><path class="st17" d="M136.5 180h2.2v3.8h-2.2zm5 0h2.3v3.8h-2.2zm5.2 0h2.2v3.8h-2.4zm5 0h2.3v3.8h-2.2z"/><path class="st18" d="M136.5 187.5h2.2v3.7h-2.2z"/><path class="st17" d="M141.6 187.5h2.2v3.7h-2.2zm5 0h2.3v3.7h-2.4zm5.2 0h2.2v3.7h-2.2zm-15.3 7.5h2.2v3.7h-2.2zm5 0h2.3v3.7h-2.2zm5.2 0h2.2v3.7h-2.4zm5 0h2.3v3.7h-2.2zm-15.2 7.5h2.2v3.7h-2.2zm5 0h2.3v3.7h-2.2zm5.2 0h2.2v3.7h-2.4zm5 0h2.3v3.7h-2.2z"/><path class="st15" d="M132 179.7h27.5v60H132z"/><path class="st14" d="M136.5 179.7h2.2v3.7h-2.2zm5 0h2.3v3.7h-2.2zm5.2 0h2.2v3.7h-2.4z"/><path class="st4" d="M151.8 179.7h2.2v3.7h-2.2zm-15.3 7.3h2.2v3.8h-2.2z"/><path class="st14" d="M141.6 187h2.2v3.8h-2.2zm5 0h2.3v3.8h-2.4z"/><path class="st2" d="M151.8 187h2.2v3.8h-2.2zm-15.3 7.6h2.2v3.7h-2.2z"/><path class="st4" d="M141.6 194.6h2.2v3.7h-2.2zm5 0h2.3v3.7h-2.4z"/><path class="st14" d="M151.8 194.6h2.2v3.7h-2.2z"/><path class="st4" d="M136.5 202h2.2v3.8h-2.2z"/><path class="st14" d="M141.6 202h2.2v3.8h-2.2z"/><path class="st4" d="M146.7 202h2.2v3.8h-2.4zm5 0h2.3v3.8h-2.2zm-15.2 7.6h2.2v3.7h-2.2zm5 0h2.3v3.7h-2.2zm5.2 0h2.2v3.7h-2.4z"/><path class="st2" d="M151.8 209.6h2.2v3.7h-2.2z"/><path class="st14" d="M136.5 217h2.2v3.7h-2.2z"/><path class="st4" d="M141.6 217h2.2v3.7h-2.2zm5 0h2.3v3.7h-2.4zm5.2 0h2.2v3.7h-2.2z"/><path class="st19" d="M136.5 224.5h2.2v3.7h-2.2z"/><path class="st4" d="M141.6 224.5h2.2v3.7h-2.2zm5 0h2.3v3.7h-2.4zm5.2 0h2.2v3.7h-2.2z"/><path class="st16" d="M107.5 255.6l16 5.8v-13l-16-.3z"/><path class="st20" d="M106.7 246h35.7v2.7h-35.7z"/><path class="st14" d="M123.4 246h19v2.7h-19z"/><path class="st4" d="M106.7 248.5h35.7v.7h-35.7z"/><path class="st16" d="M124 247.3l-14.6-1v-36l14.5-6.6z"/><path class="st4" d="M122.5 209l-13.2 5.7V213l13.2-6zm0 5l-13 5.4v-2l13-5.2zm0 5l-13 4.7v-2l13-4.4zm0 5.3l-13 3V226l13-3.7zm0 5l-13 2.5V230l13-2.6zm0 5.2l-13 1.6v-1.6l13-1.6zm0 5l-13 .8v-1.7l13-.7zm0 5.2h-13v-2l13 .2z"/><path class="st3" d="M124 247l16-1-.5-35.6L124 203z"/><path class="st14" d="M125.5 209l14 5.7V213l-14-6zm0 5l14 5.4v-2l-14-5.2zm0 5l14 4.7v-2l-14-4.4zm0 5.3l14 3V226l-14-3.5zm0 5l14 2.5V230l-14-2.6zm0 5.2l14 1.6v-1.5l-14-1.7zm0 5l14 .8v-1.7l-14-.7zm0 5.2h14v-2l-14 .2z"/><path class="st3" d="M141.6 255.6l-18.2 5.8v-13l18.2.5z"/><path class="st16" d="M123.4 248.5h19v.7h-19z"/><path class="st10" d="M183.4 213.2s-2.4 19.7 2.3 26l2.6-.7s-4.5-4.4-3.6-25.3h-1.3z"/><path class="st13" d="M184.2 214c-1-2.5-3-4.4-5.3-5.3-3-1.2-5.7-1-6.3.3l11.4 5z"/><path class="st13" d="M185 213.7c-2.4-.7-5-.4-7.3 1-2.6 1.3-4.2 3.5-3.5 5l11-6z"/><path class="st13" d="M183.8 214c2.6.3 4.8 1.7 6.3 3.8 2 2.4 2.5 5 1.3 6l-7.4-10z"/><path class="st13" d="M183.8 214c2-1.6 4.7-2.2 7.2-1.8 3 .4 5.2 2 5 3.5l-12.2-1.8z"/><path class="st13" d="M183.7 214.2c.4-2.6 1.8-4.8 4-6.3 2.3-2 5-2.5 6-1.3l-10 7.4zM95 208.5c-1-2.4-3-4.3-5.4-5.2-2.8-1.2-5.5-1-6 .3l11.3 5z"/><path class="st13" d="M95.8 208.4c-2.5-.7-5-.4-7.4 1-2.6 1.3-4.2 3.5-3.5 5l10.7-6z"/><path class="st13" d="M94.5 208.5c2.6.4 4.8 1.8 6.3 4 1.8 2.3 2.3 5 1 6l-7.3-10z"/><path class="st13" d="M94.5 208.6c2-1.5 4.7-2 7.2-1.7 3 .2 5.2 2 5 3.3l-12.2-1.8z"/><path class="st13" d="M94.4 208.8c.4-2.6 1.8-4.8 4-6.3 2.3-1.8 5-2.3 6-1l-10 7.3z"/><path class="st12" d="M200.2 244.7c-6-9.7-18.5-12.7-28.2-6.8-2.8 1.5-5 4-6.8 6.6h35z"/><path class="st3" d="M199.7 253.2c-3.6-6-12-12-19.3-12s-4.2 9.8-8 15.7l27.3-4z"/><path class="st11" d="M199.7 253.2c-3.6-6-12-12-19.3-12s-4.2 9.8-8 15.7l27.3-4z"/><path class="st16" d="M150.7 236.3h27.8V256h-27.8z"/><path class="st20" d="M178.5 256l6.3-5v-10l-6.3-5z"/><path class="st14" d="M146 236.2h4.8V256h-5zm6.6 17.8h26v2h-26z"/><path class="st21" d="M495.8 191L471 218.3l21 28.4 17.2 8 33 3.6z"/><path class="st13" d="M495.8 191l-3.8 57-21-29.6z"/><path class="st13" d="M468.7 204.2L439 226.6l35.7 22.5 18.8-10.6z"/><path class="st21" d="M468.7 204.2l6 45 32.7 3.4z"/><path class="st22" d="M511.5 234.2l-9.5 21.4h19z"/><path class="st22" d="M511.6 227.2l-6.8 15.2h13.5z"/><path class="st22" d="M511.6 223l-4 9h8zm43.7 54.6l-17-25L477 249l16.4 3.5c.6 1.4 2.7 2.4 2 4.2-.4.7-1 1.2-2 1.4-1.8.4-5 .5-4.7 2.7 0 .7.2 1.4.5 2 3 7.7 10.8 7.7 16.3 9.5 3.6 1.2 8.7.7 9.3 4.5.6 3.5-2 5.4-1 8.8.8 3 4.4 4.4 7.6 4.6s6-.2 9 0 6.3 1 8 3.6c2.2 2.7 2 6.7 4.8 9.3.7.6 1.6 1 2.6 1.2 3.4.3 4.3-3.4 7-4.6 4.6-2 9.7 5.5 14.2 3 1.7-.8 2.3-2.6 2.5-4.5l-14.2-21z"/><path class="st12" d="M539.8 254.8c-2.7-4.4-7.4-7-12.6-7.3-5 0-9.5 2.6-12 6.8l24.6.5z"/><path class="st6" d="M381 127.8s137.6-15.4 141.4 126.7"/><path class="st22" d="M493.8 230l-9.4 21 15.4 5.5 3.3-5.5z"/><path class="st22" d="M493.8 222l-7.7 17.3h15.6z"/><path class="st22" d="M493.8 217.3l-4.4 10.3h9zm-18.8 32s20 5.3 20.2 6.5 4-7 4-7l-24 .6z"/><path class="st5" d="M512.2 245.6l14 9-2 1.5-12-9"/><path class="st16" d="M522.2 253.4l5.7-4.7v-.3l-5-4.6-.6-.4L508 241v1.4l14.2 11z"/><path class="st3" d="M522.2 268.8l5.8-12.3-.2-7.6-5.6 4.3z"/><path class="st15" d="M522.2 253.4l-14.2-11-14.3 11v13.4l28.5 2z"/><path class="st14" d="M504.8 267.6l5.5.4v-11.5h-5.5zm13.7-8.2v3c0 .7-.7 1.4-1.5 1.4h-2.4c-.8 0-1.5-.7-1.5-1.5V258c0-1 1-1.6 1.7-1.6h1c1.5 0 2.8 1.3 3 3z"/><path class="st4" d="M513.6 263v-6h4.3v6z"/><path class="st14" d="M513.3 260h5v.3h-5z"/><path class="st14" d="M515.5 256.6h.4v7h-.6zm-19 6.2v-6c0-.3.3-.7.8-.7l4 .3c.3 0 .6.4.6.8v6c0 .3-.5.7-1 .7h-4c-.3 0-.6-.4-.6-.8z"/><path class="st2" d="M497 262.7v-6l4.3.3v5.7z"/><path class="st14" d="M496.8 259.6h5v.4h-5z"/><path class="st14" d="M499 256.3h.4v7h-.4z"/><path class="st4" d="M506.2 247.8h2.7v4.3h-3z"/><path class="st3" d="M522.7 254c.3 0 .4.5.2 1-.4.2-1 .3-1 0l-14.5-10.7c-.3-.2-.4-.6-.2-1 .2-.3.2-1 .5-1"/><path class="st3" d="M493.3 254.3l14.2-11c.2-.3.6-.2.8 0v.2c.3.2.2.6 0 .8l-14.2 11c0 .3-.4.2-.6 0v-.2c-.3 0-.2-.4 0-.6zm10.5 12.7v-11c0-.4.3-.7.7-.7h.2c.4 0 .7.3.7.7v11c0 .3-.3.6-.7.6h-.2c-.4 0-.7-.3-.7-.7z"/><path class="st3" d="M494.2 265.4l10 .5c.3 0 .5 0 .5.5v.2c0 .4-.3.6-.7.6l-10-.5c-.3 0-.5-.4-.5-.8v-.2c0-.3.4-.6.7-.6zm17.2 1.4l10.6.6c.4 0 .6.3.6.7v.4c0 .4-.3.6-.7.6l-10.8-.7c-.4 0-.6-.3-.6-.7v-.2c0-.3.3-.6.7-.6z"/><path class="st3" d="M510 267.4v-10.8c0-.4.3-.7.7-.7h.2c.2 0 .5 0 .5.5v10.8c0 .4-.3.7-.7.7h-.3c-.4 0-.7-.3-.7-.6z"/><path class="st14" d="M508.5 251.8V248c0-.2 0-.3.3-.3s.4 0 .4.3v3.8c0 .2 0 .3-.3.3h-.3s-.3 0-.3 0z"/><path class="st14" d="M505.7 247.5h3.5c.2 0 .3 0 .3.3s0 .4-.3.4h-3.5c-.2 0-.3 0-.3-.3v-.3c0-.2.2-.3.3-.3zm0 3.8h3.6c.2 0 .3 0 .3.3s0 .4-.3.4h-3.5c-.2 0-.3 0-.3-.3 0-.2 0-.4.3-.4z"/><path class="st14" d="M505.8 251.8V248c0-.2 0-.3.3-.3h.3c.2 0 .3 0 .3.3v3.8c0 .2 0 .3-.3.3h-.4z"/><path class="st3" d="M504.5 255l6.5.3c.4 0 .6.3.6.7v.2c0 .4-.3.6-.7.6l-6.7-.4c-.4 0-.6-.3-.6-.7v-.2c0-.3.3-.6.7-.6z"/><path class="st16" d="M507.5 241.2c.3-.3.8-.2 1 0 .4.4.3 1 0 1.2l-15 11.8c-.3.3-.8.2-1 0-.4-.4-.3-1 0-1.2"/><circle class="st4" cx="509.3" cy="262.1" r=".6"/><path class="st4" d="M514 242.8l3.7 2v-7.3H514z"/><path class="st14" d="M517.6 245l2-2v-5.5h-2z"/><path class="st3" d="M277.8 309.7c8-1 16-.3 23.8 2.2 1 .2 2.5 1 2.3 2-.3 1-1.5 1.5-2.3 2-4.2 2-5 7.7-4.8 12.4.2 4 .6 9-2.8 11-1.7 1.2-3.8 1.2-5.8 1-2.7-.3-5.3-1.2-7.5-2.8-1.6-1.2-2.8-3-4-4.2s-3.7-2.4-5.6-2c-4.8 1.4-4.8 6-10.7 4.2-4-1-5.5-3.7-6.3-7.4C252 317 269 311 277.8 309.7z"/><path class="st11" d="M278.6 314c-6.7 0-12.5 2.3-15.4 5.4-1 1.2-1 3 0 4 .6.6 1.3 1 2 1h27c1.6 0 2.8-1.3 2.8-2.8 0-.7-.2-1.3-.7-1.8-2.8-3.4-8.8-5.7-15.7-5.7z"/><path class="st2" d="M258.5 317c1.6-.5 3.3-.4 4.8.4.7-1.5 2-2.6 3.7-3 1.6-.4 3.3-.3 4.8.5.7-1.7 2-2.8 3.7-3 1.6-.6 3.3-.5 4.8.3.7-1.5 2-2.6 3.7-3 1.6-.5 3.3-.4 4.8.4.7-1.5 2-2.6 3.7-3 .6 0 1-.2 1.7-.3-4-9-14.2-13.8-23.7-11-9.5 2.8-15.3 12.3-13.4 22l1.6-.6z"/><path class="st16" d="M263.3 317.4c.7-1.5 2-2.6 3.7-3 1.6-.4 3.3-.3 4.8.5.7-1.7 2-2.8 3.7-3l-5-16.4c-7.2 2-10.3 11.8-7.2 21.7z"/><path class="st16" d="M288.7 310c-1.5-1-3.2-1-4.8-.6-1.8.5-3 1.6-4 3-1.4-.7-3-1-4.7-.4l-5-16.2c7-2.2 15.2 4 18.3 14z"/><path class="st2" d="M275.4 312c1.6-.5 3.3-.4 4.8.4-3-10-7.6-17.4-10-16.7s-1.6 9.3 1.5 19.2c.8-1.7 2-2.8 3.7-3z"/><path class="st4" d="M275.4 312c-.2 0-.4 0-.7.2l4.4 12.2h1.7l-4.5-12.6h-.6zm147.2 7c-.6 0-1.2-.5-1.2-1 0-.7.4-1.3 1-1.3h.2v-.4h-7.2v3h7.4l-.2-.4z"/><path class="st4" d="M434.2 314.8c0 1-1 2-2 2h-31.6c-1 0-2-1-2-2s.7-2 1.8-2H432c1.2 0 2 .7 2.2 1.8v.2z"/><path class="st4" d="M423.4 314.8c0 1-1 2-2 2h-31.6c-1 0-2-1-2-2s.7-2 1.8-2h31.7c1-.2 2 .7 2 1.8v.2zm7 5.5c0 .8-.6 1.5-1.4 1.5h-23.3c-.8 0-1.4-.7-1.4-1.4 0-.8.5-1.4 1.2-1.5H429c.8 0 1.5.4 1.5 1.2zm-4.2 4.3c0 .6-.5 1-1 1H407c-.6 0-1-.4-1-1s.4-1.2 1-1.2h18c.7 0 1.2.6 1.2 1.2z"/><path class="st4" d="M408.8 319c.6-.2 1-.8 1-1.4-.2-.5-.5-.8-1-1v-.3h7.2v3h-7.5l.3-.4zm15 4.4c-.4 0-.8-.3-.8-.7 0-.5.4-.8.8-.8v-.5h-10v.3c.4 0 .8.3.8.7 0 .4-.4.7-.8.7v.3h10v-.3z"/><path class="st2" d="M407.5 249s-40.8 24.6-13.4 57.4l14.3-6c-4-10-5-21-3-31.7 3.4-17.8 3-20 3-20"/><path class="st10" d="M408.3 246.7h1V307h-1z"/><path class="st20" d="M398.5 308.5c3.5-1.3 7.3-2 11-2h11c1.4 0 2.7 1.2 2.7 2.8l-24.7-.8z"/><path class="st10" d="M397 306.6h.3v2.8h-.2zm7.7.2h.2v2.8h-.4zm8.6.4h.2v2.8h-.2zm8.7.3h.2v2.8h-.2zm8 3v-2.8 2.7z"/><path class="st10" d="M430 307.7l-38.2-1.3v-.2l38.2 1.4zm-39.5 1.7h-.2l-.7-1.7h.2l.7 1.7z"/><path class="st2" d="M413.3 256.4l15.5 47h-19.6v-55.7"/><path class="st10" d="M408.8 303.8v-1h20.8v.2c0 .4-.3.8-.8.8h-20zm22.4 5l-39.5-1 4.3 5.7h38.4s-1.2-4.3-3.2-4.8z"/><path class="st16" d="M396 313.4h38.4c-.3-1.2-.8-2.3-1.5-3.3h-.3l-40-1 3.2 4.5z"/><path class="st2" d="M383 197.7l-69.5.5-.6-90 50.6-.4 19 18.7z"/><path class="st7" d="M383 197.7l-69.5.5-.6-90 50.6-.4 19 18.7z"/><path class="st23" d="M314.7 110.4l48.3-.3 12.4 12.4v-3L363.7 108l-50.8.3.4 81.5h1.7z"/><path class="st2" d="M381.4 195.5l-66.2.5-.6-85.6 48.4-.3 18 18z"/><path class="st23" d="M360.5 130.2H381v-2.4L363 110h-2.5z"/><path class="st2" d="M363 128l18-.2-18-17.7z"/><path class="st24" d="M324 158.5l48.2-.4v3.8l-48.3.4zm-.3-34h24v3.5l-24 .2zm.3 42l48.2-.4v3.8l-48.3.4zm0 8l48.3-.3v3.6l-48.3.4zm0 8l48.3-.3v3.6l-48.3.4zm-.2-35l48.3-.5v4.2l-48 .4zm0-9l48.3-.5v4.2l-48 .4z"/><path class="st13" d="M188.7 257.5c-3-5-9.6-6.7-14.7-3.6-1.5.7-2.7 2-3.6 3.4h18.3zm-59.4 5.2c-3-5-9.6-6.7-14.7-3.6-1.5 1-2.7 2.3-3.6 3.8h18.3z"/><path class="st21" d="M438.3 231.8s9-7 14.4 0c0 0 8 0 9.2 7.7 0 0 5.6-1.3 6.5 3.3 0 0 2.3 2.5-14.3 5.7 0 0-1.7-3-3.6-5.7l-12.4-11z"/><path class="st12" d="M438.2 217l-5.7 13H444z"/><path class="st12" d="M438.2 212.3l-4.7 10.5h9.4z"/><path class="st12" d="M438.2 209.4l-2.6 6.2h5.5zM475 249c-3.4-11.4-11-11.4-15-11.4-3.8 0-7.2 2-9.2 5.2l24.3 6z"/><path class="st21" d="M442 230c-2.2-3.7-7-5-10.6-2.7-1 .6-2 1.5-2.6 2.6H442z"/><path class="st12" d="M475 249c-2.2-3.8-6-6-10.5-6.2-4 0-8 2.2-10 5.7l20.6.4zm61.5 22c-2.3-3.7-6.2-6-10.6-6-4.3 0-8 2-10.3 5.6l20.7.4z"/><path class="st22" d="M500.6 268.8c-1.6-2.6-4.4-4.2-7.4-4.3-3 0-5.6 1.5-7 4l14.4.3z"/><path class="st12" d="M451.8 231.8c-2.3-3.7-7-5-10.8-2.6-1 .7-2 1.6-2.6 2.6h13.4zm-2.2 6.8c-2.3-3.7-7-5-10.8-2.6-1 .7-2 1.6-2.6 2.6h13.4z"/><path class="st22" d="M490 250.4c-1.4-2.3-5.4-4.8-8.2-4.8-2.7 0-5.3 1.4-6.7 3.8l15 1z"/><path class="st25" d="M187.8 343l147 34L521 355.6l99.4 15.7c.6 0 .7-.6.5-1.2l-100-15.7-186 21.4L188 341l-.2 2z"/><path class="st1" d="M188.6 335.5l-.8 5.6 147 34.7-1-8z"/></svg>