<svg id="Layer_1" xmlns="http://www.w3.org/2000/svg" viewBox="0 0 575 310" width="575" height="310"><style>.st0{opacity:0.4;fill:#C1C1C1;} .st1{fill:#1A9BF5;} .st2{opacity:0.57;fill:#0078D7;} .st3{fill:#A5A5A5;} .st4{opacity:0.1;fill:#333333;} .st5{fill:#FFB4B1;} .st6{fill:#00B294;} .st7{fill:#008272;} .st8{fill:#FFBC9F;} .st9{fill:#DD9B9B;} .st10{fill:#00A890;} .st11{fill:#008C74;} .st12{fill:#85D54E;} .st13{fill:#33CC99;} .st14{fill:#EAEAEA;} .st15{opacity:0.59;fill:#C1C1C1;} .st16{opacity:0.15;} .st17{opacity:0.3;fill:#004578;enable-background:new ;} .st18{opacity:0.15;fill:#004578;enable-background:new ;} .st19{fill:#A6A6A6;} .st20{fill:#F4F4F4;} .st21{fill:#F9FAFA;} .st22{fill:#0078D7;} .st23{fill:#FFFFFF;} .st24{fill:#AA298F;} .st25{fill:#68217A;} .st26{opacity:0.1;} .st27{fill:#333333;} .st28{opacity:5.000000e-02;fill:#333333;} .st29{fill:#004578;} .st30{fill:#00863E;} .st31{fill:#D83B01;} .st32{fill:#505050;} .st33{fill:#D2D2D2;} .st34{fill:#737373;} .st35{fill:#969696;} .st36{fill:#B2291B;} .st37{fill:#DC3C00;} .st38{opacity:0.59;fill:#AA298F;} .st39{fill:#F472D0;} .st40{fill:#FCEE1E;} .st41{opacity:0.49;fill:#FDB813;} .st42{fill:#DDCFB1;} .st43{opacity:0.13;fill:#F9FAFA;}</style><path class="st0" d="M265.5 279C135 279 29.2 232.3 26.8 174.4v2c0 59 106.8 106.6 238.7 106.6s238.8-47.7 238.8-106.6v-2C501.8 232.4 396 279 265.5 279z"/><title>OneDrive+Office-01</title><ellipse class="st1" cx="265.5" cy="172.4" rx="238.8" ry="106.6"/><path class="st2" d="M70 116.2L209.7 262l272.7-83.5-201-94.7zm424.4 26.2l-.7-1.5c-5.6-8-13.2-16-22.7-23l-.7-.5C456 119.5 446 132 446 132l2.3 23s42 9.6 46-12.6z"/><path class="st2" d="M81.7 140c-2 .5-3 2.8-1.7 4.5 0 0 73.4 94.7 102 127.8l4 .7c1 1-1-.5.5.2 10 4.6 16.5 2.8 20.6 2.7l15.4 1.2 133.3-69.7-165-99.8-109 32.2z"/><path class="st3" d="M130.8 202l62.4 80.7c.3.5 1 .6 1.5.3l70.7-37.3c.4-.2.6-.6.6-1v-2L131.5 201c-.3-.4-.6-.3-.8 0-.2.3 0 .6 0 1z"/><path class="st4" d="M130.8 202l62.4 80.7c.3.5 1 .6 1.5.3l70.7-37.3c.4-.2.6-.6.6-1v-2L131.5 201c-.3-.4-.6-.3-.8 0-.2.3 0 .6 0 1z"/><path class="st5" d="M472 80h-40l17 55.5c14.8 10.7 27.5 6.6 34 3 2.6-1.5 4.7-4 5.6-7L504.3 80H472z"/><path class="st6" d="M382.3 85.4s-10.4-12-19 11.3c0 0 14.6 1 19-11.3z"/><path class="st7" d="M476.7 65.6s-11.4-1-11 7.4 9.2 15 9.2 15 4.4-18.2 1.6-22.4zm-32.3-11s21 4 16.7 21c0 0-23.5-1.6-22.2-12.5s5.7-8.2 5.7-8.2z"/><path class="st8" d="M464.4 92.2h36.2l3.7-12.2H432l3.8 12.2z"/><path class="st9" d="M500.6 92.2s-23.2 6.6-46.4 1.6l14-12.7 34 5.8-1.6 5.5z"/><path class="st10" d="M439 33.8l7 7 .5-2-7.5-7.6z"/><path class="st11" d="M474.6 44.4L486 47s8.5-8.2 12 3.5c2 6.8 1.5 14-1.4 20.6 0 0-19.2-12-11.6-21.5l-11.5-3 1-2z"/><path class="st11" d="M473 59s-3.7 7.2 1 13.4-1 12.2-1 12.2 25.6-22.2 4.8-27.6l-4.8 2zm13.3-24.2s12.7-3.8 19 7.5 5.2 9 4.5 12.8c0 0-15.4-24.2-34-13.7v-3.5l10.5-3zm-.6-5.6s9.7 2.6 12 .3 12.4 2.8 12.8 5 5-8.3-4.4-9.8-15-3-17.2-2.8-8.6 4.3-3 7z"/><path class="st6" d="M462 3.2s29.2-3.4 18.7 15.2L462 3.2z"/><path class="st7" d="M401.5 50.5l3 15 1.2-1.3-2-16.4zm-19.2 35s13.2 15 17.3 13.7l-1.8.6-7.2-3.2s-8.2-9.3-9.2-9.8 1-1.4 1-1.4z"/><path class="st6" d="M400.8 26.6S385 48.3 403.2 52c0 0 10.6-12.4-2.4-25.4z"/><path class="st7" d="M433.7 54.7c-2.7 2-4.6 6.5-6.7 13.8-2.3-1-7.2-4-2.8-11.3l-.8-1.4s-8.6 10.3 3 14.7L422 87.8s-9.7.2-13.4-13.3l-1.2-2.5-.8 2s2 13.4 14.5 15.5c0 0-2.4 7.8-9.6 10.3h.3C404.2 101.4 383 74 383 74l-1.5.7c12.7 17.6 23.3 24.2 26.4 25.8-3 .2-5.8-.3-8.4-1.3l-1.8.6 1.7.7s14.3 7 21.6-8.4 8.4-40 17.3-34.6l2.8 2.8 1.3-1c-.2 0-5-7-8.8-4.3z"/><path class="st6" d="M446 45.7s-14-3.2-10 13.8c0 0 16.3 4 15-7s-5-6.8-5-6.8z"/><path class="st7" d="M383.4 77.3s-12.8-10 2-18.6c0 0-4.8 12.8-2 18.6z"/><path class="st11" d="M430.2 37.4s.8-10.6-10-7.2c-15 4.5 1.2 21.7 3.7 29.2 0 0 18-13.6 15.5-19s-9.4-3-9.4-3z"/><path class="st6" d="M390.3 96s-15.6 2-4.8 25c0 0 5.5-12 8.5-11.5S404.2 98 395.3 96h-5z"/><path class="st7" d="M394.6 99.3s-9.8-20 0-22c0 0 3.8 0 3.6 3.3 0 0 8-5.5 7 3.8s-10.6 15-10.6 15z"/><path class="st6" d="M406.8 75.4s-9.7 1-6-6 8.3-16.7 20.5-18.8c0 0-5.7 28.4-14.5 24.8z"/><path class="st11" d="M439 33.8s-31.6-12 1.8-32c0 0-1.5 12.7 1.6 16s3 13-3.4 16zm23-30.6s15.7 13.4 15.7 30.4c0 0 7.7-21.5-1.5-25.5S462 3.4 462 3.4zm-.7 9s-16.8 22-4.7 24c11.4 2.2 4.7-24 4.7-24z"/><path class="st12" d="M478.2 23s2-19 28-12.2l-28.4 22.8.4-10.7z"/><path class="st7" d="M451 42.7s-2.7-8.2-5.4-6.5-1.5 11.7 2.7 15.5 0 9 5.6 13.6c0 0 8.5-11 5.6-16.5s-2-10.2-8.8-6z"/><path class="st6" d="M462 74l-11.3 2.6s-8.5-8-12 3.6c-2 6.8-1.5 14 1.4 20.6 0 0 19.4-12.2 11.8-21.7l11.5-3-1-2z"/><path class="st6" d="M436.6 73.8s-12.8-3.7-19 7.5-5.2 9-4.5 12.8c0 0 15.6-24.2 34.3-13.6V77l-10.6-3z"/><path class="st11" d="M480 79s-9-3-8.8 5.3 3 13.3 3 13.3 8.7-14.2 6-18.5z"/><path class="st12" d="M535.2 80.2l-2.8 15L531 94l2-16.5zm19.3 34.8s-13.2 15-17.3 14l1.8.5 7.2-3.2s8.2-9.3 9.2-9.8-1-1.4-1-1.4z"/><path class="st12" d="M554.5 115s10.4-11.8 19 11.4c0 0-14.6 1-19-11.3zM536 56.2s15.6 21.7-2.5 25.4c0 0-10.5-12.4 2.4-25.4z"/><path class="st11" d="M503 84.3c2.7 2 4.6 6.5 6.7 13.8 2.3-.7 7.2-3.7 2.8-11l.8-1.5s8.6 10.3-3 14.7l4.5 17.4s9.6.2 13.3-13.3l1.4-2.3.8 2s-2 13.4-14.4 15.5c0 0 2.6 7.8 9.8 10.3h-.3c7.5 1.8 28.8-25.7 28.8-25.7l1.6.7c-12.6 17.5-23.3 24-26.4 25.8 2.7.2 5.5-.3 8-1.3l2 .5-2 .7s-14.2 7-21.4-8.4-8.3-40.3-17.2-34.8l-2.8 2.8-1.3-1.3s4.8-7 8.7-4.2z"/><path class="st11" d="M490.7 75.3S505 72 500.7 89c0 0-16.2 4-15-7s5-6.7 5-6.7zm62.6 31.7s12.8-10-2-18.7c0 0 5 13 2 18.6z"/><path class="st12" d="M506.6 67s-.8-10.6 10-7.2c15 4.5-1.2 21.7-3.7 29.2 0 0-18-13.6-16-19s9.5-3 9.5-3zm40 58.5s15.6 2 4.7 25c0 0-5.5-11.8-8.5-11.4s-10.2-11.3-1.3-13.4h5z"/><path class="st11" d="M542.2 129s9.8-20.2 0-22.2c0 0-3.8 0-3.6 3.3 0 0-8-5.3-7 4s10.6 15 10.6 15z"/><path class="st12" d="M530 105s9.7 1 6-6-8.3-16.6-20.5-18.8c0 0 5.7 28.4 14.5 25z"/><path class="st11" d="M484 28.7S469.3 50 469.3 67c0 0-8.5-29.4.7-33.4s14-5 14-5z"/><path class="st13" d="M474.7 36.3s16.8 22 4.7 24c-11.5 2.2-4.7-24-4.7-24z"/><path class="st11" d="M468 48.4s-2.2-18.8-28-12L468.3 59l-.4-10.6z"/><path class="st12" d="M487 71.2s2.7-8.2 5.4-6.5c2.8 1.7 1.5 11.7-2.7 15.5s0 9-5.6 13.6c0 0-8.5-11-5.6-16.5s2-10.2 8.8-6z"/><path class="st6" d="M474.7 64.4s-1-11.5-11.6-4 2.4 28.6 2.4 28.6 8.7-19.8 9.4-24.6z"/><path class="st14" d="M70.6 116l141.6 143.8 268.4-82.2-201-95.8z"/><path class="st15" d="M453.8 172.4l8.3-3.6-34.5-16.5-9 12.3z"/><path class="st6" d="M77 117.8l135.2 137L472.8 176 279 85z"/><path class="st16 st17" d="M264.7 243l-2.6 1.5 3.5-1zm82-41l-3.6-2.5-62 34.5 56.3-16.8 9.2-4.8c4-2 4.4-8 .4-10.5z"/><path class="st15" d="M337 217.2l-77 23.2 5.7 3L317 228z"/><path class="st18" d="M248 100s-7.2 19.6 18.2 25l46.5-15s-31.5-20.4-45.5-15.5l-19 5.6z"/><path class="st18" d="M257.2 125.4l-.6 3.6c0 1.2.6 2.2 1.6 3l112 75.2c2.4-.5 11.8-4 14-4.2l75.5-33-12.8-6-113.7-55-76.2 16.4z"/><path class="st19" d="M196 279.6l146.2-77c1-.6 1.5-2 1-3l-.7-1-136.8-96.2c-.6-.4-1.3-.5-2-.3L85.4 139c-1.2.3-2 1.5-1.5 2.7 0 .3 0 .5.2.7l109 136.5c.7 1 2 1 2.8.5z"/><path class="st14" d="M335.5 104.3L449 164.6l3.6-3.6c.8-.8 1.3-1.7 1.6-2.7l29.6-106.7c.6-2-.6-4.3-2.7-5L347 12.2l-11.5 92z"/><path class="st14" d="M257.2 125.4v1.8c0 1.2.6 2.2 1.6 2.8L366 198c1.6 1 3.6 1.2 5.3.4l77.8-34v-3L328.8 106l-71.4 19.6z"/><path class="st20" d="M259 126.5l110.4 68.8c.7.4 1.5.5 2.2.2l77.5-33.8-117.6-57.4L259 125c-.4 0-.7.5-.5 1 0 .2.3.4.5.5z"/><path class="st21" d="M331.4 104.3L449 161.7 480 51c.5-1.8-.6-3.8-2.4-4.3L347 12.2l-15.6 92z"/><path class="st1" d="M334.4 103.4l112 54.6 30.3-108.4L349 15.8z"/><path class="st22" d="M344.4 100l6.4 11.4 95.6 46.6L472 66l-8-11.3z"/><path class="st21" d="M302 121l89.8 48.7 35.5-14.8-93-44.5z"/><path class="st23" d="M296 145l33 19.6 26.7-9.8-34.3-18.4z"/><path class="st14" d="M398.6 167l-1.3.4-88.3-48.6 1.8-.6zm7-3l-1.3.6L314 117l1.2-.4zm4.8-2l-1.3.6-89.2-47 1-.6zm7-3l-1.4.7-90.7-46 1-.5zm5.3-2l-1.2.4-91.3-45.5 1-.7z"/><path class="st24" d="M190.7 109l-14.2 5.2-4.8-4 14.5-4.2z"/><path class="st25" d="M167 116.4l-14 5.2-5-4 14.6-4.3z"/><path class="st26 st27" d="M197.4 274.5L339.8 201l-76.3-56L134 199z"/><path class="st23" d="M126.8 190.8L255 143l-47.2-33-118.5 33.5z"/><path class="st28" d="M126.8 190.8L255 143l-50.4-35.7L86 141z"/><path class="st23" d="M193.3 272.7l145-74-79-55.4L129.8 197z"/><path class="st29" d="M322.5 206.8l16.4-8.2-79.8-55.3-14.6 5.8z"/><path class="st20" d="M271.5 180.8l4.4-2.3L245 156l-4 1.7zm17.3 28.2l7-3.5-58.6-46-6 2.6zm-10.8 5.4l7-3.6-57.4-47.2-6 2.6zm-10.7 5.6l7-3.6-56-49-6 2.6zm-11 5.5l7-3.6-54.8-50.4-6 2.6zm-9.3 4.7l7-3.6-54.8-50-6 2.4z"/><path class="st23" d="M122.7 187.3l131-46-50-35L85 140z"/><path class="st30" d="M253.8 141.3l-50.2-35-9.5 3.8 48 35.8z"/><path class="st28" d="M121.4 185.7L249 138l-43.6-31.6-119.2 36.3z"/><path class="st23" d="M118 182.2l130-46.8-43.7-31.8L89 138.8z"/><path class="st25" d="M237.4 139.2l10.7-3.8-43.6-31.8-9.8 3z"/><path class="st20" d="M224.4 139l5-1.8-37-27.2-4 1.6zm-8.4 3.2l5-1.8-37-27-3.7 1.5zm-9.4 3.2l5-1.7-36.8-27-4.3 1zm-8.6 4l4.8-2-37.5-28-4.2 1zm-11 3.6l5-2-36-28.5-4.3 1.2z"/><path class="st19" d="M119.2 184.7l67-26L143 121l-59 19zm77.8 94l69.7-37-74.2-67.4-62 25.3 62.3 78.2c1 1.2 2.7 1.6 4 1z"/><path class="st20" d="M198.2 230.4c.8 1 .6 2.6-.5 3.5-1 .7-2.4 1.3-3.4.2l-8.7-8.6c-1.7-1.6-1-3.5.2-4.8 1.2-1.3 3.2-1.4 4.4-.2 0 0 2.5-2.2 5-.8 1.5 1 2.2 2.7 1.7 4.4 1 .3 1.7 1 2 2 .6 1.6 0 3-1 4z"/><path class="st20" d="M185.2 220.5c1.3-1.4 3.5-1.6 5-.5 0 0 2.7-2 5.4-.6 1.7.8 2.6 2.8 2.2 4.6.5 0 1 .4 1.4 1 1.2-1.6 1.6-3.7 1-5.5-1-2.3-3.7-3.5-6-2.5-.4-1.2-1.4-2.2-2.6-2.5-1.7-.3-3.4.3-4.4 1.6-1.4-1-3.3-.6-4.4.8-1.2 1.2-1.3 3.2-.2 4.5l1.5 1.4c0-.8.6-1.5 1.3-2z"/><path class="st23" d="M344.4 100l94.3 45L464 54.6 358 27z"/><path class="st14" d="M353 98l6.2 2.7L370 54.4l-7.4-2.8zm9.4 4.3l6 2.8 9-35.5L371 67zm9.8 4.5l6 2.8 8-30.2-6.5-2.5zm10.5 5l6 2.8L395 91l-6.2-2.7z"/><ellipse class="st20" cx="421.6" cy="101.4" rx="17.5" ry="23.7"/><path class="st31" d="M355.5 41.2l103 33 5.4-19.5L358 27z"/><path class="st19" d="M405.2 93.4l.6.2 16 7.8 6.4-22c-2-1-4.2-1.7-6.5-1.7-7.7 0-14 6.6-16.5 15.7z"/><path class="st14" d="M438.4 95C437 88 433 82 428 79.5l-6.4 22 16.8-6.3z"/><ellipse class="st11" cx="264.5" cy="69.3" rx="16.7" ry="4.7"/><ellipse class="st17" cx="264.5" cy="69.3" rx="16.7" ry="4.7"/><path class="st22" d="M255.7 35.3V33c0-.2 0-.5.5-.5h2.7s.3.2.3.5v2.2h-3.7z"/><path class="st29" d="M259.5 41.8l.2 4h.4l.4 1c0-.4.3-.7.8-.8.3 0 .6 0 .7.2l.4 4.6c.2 2.7 0 5.3-.7 8 0 0 0 .4.4.5 0 0 .5 0 .6-.3.7-2.7 1-5.5.8-8.3 0-3.5-1-10-3.4-10-.4 0-.7.3-.7.6-.2.2 0 .4.2.5zm-4-3h4v1l-4 .2z"/><path class="st32" d="M259.6 96.2c0-.2.2-.4.5-.4s.6 0 .6.3l.2 5.5c0 .2 0 .5-.3.5s-.5-.3-.5-.6l-.4-5.2z"/><path class="st33" d="M259.5 100.3h1.6l1-7.4h-4z"/><path class="st1" d="M255.3 39.8l4.8-.2 2.5 52-5 .3z"/><path class="st32" d="M257.5 92l5-.2V93l-5 .2z"/><path class="st1" d="M255 35.2l5-.2.2 3.6-5 .2z"/><path class="st34" d="M273 102.4v2.2c0 .3-.4.6-.7.6l-2.8-.2c-.3 0-.5-.3-.5-.6v-2.2l4 .2z"/><path class="st35" d="M269.8 95l.2-3.8h-.4v-1c-.2.3-.5.6-1 .6 0 0-.4 0-.5-.3V86c.3-2.8.8-5.4 1.7-8 0 0 0-.4-.3-.5-.2 0-.5 0-.7.2-1 2.6-1.5 5.4-1.6 8.2 0 3.3 0 10 2.5 10 .3 0 .6 0 .7-.3s0-.6-.2-.7z"/><path class="st36" d="M268.3 99l.2-2.7 4 .2-.2 2.8z"/><path class="st29" d="M275 41l-.6.2c-.2 0-.3 0-.4-.3v-.3l.3-5.3c0-.2 0-.4.4-.5.3 0 .5 0 .5.4L275 41z"/><path class="st33" d="M275.3 36.8h-1.5L272 44l4.2.2z"/><path class="st1" d="M268.8 97l2.8-52 5 .4-3 52z"/><path class="st22" d="M268.8 97l2.8-52 5 .4-3 52z"/><path class="st29" d="M271.7 45v-1h5v1.3z"/><path class="st37" d="M268.5 102.6l.2-3.6 5 .3-.3 3.6z"/><path class="st25" d="M250.7 47l5-.2 2 43-4.8.2z"/><path class="st38" d="M250.7 47h2.4l2.4 43H253z"/><path class="st33" d="M252.7 40l-2 7h5z"/><path class="st29" d="M252.7 40l-.7 2.6h1.8z"/><path class="st39" d="M258 91.5v2.7c0 .3-.3.6-.6.7H254c-.5 0-.8 0-.8-.6l-.2-2.7 5-.3z"/><path class="st33" d="M253 90l5-.2v1.7l-5 .2z"/><path class="st34" d="M253.8 91h-.5c0-.3 0-.4.2-.4s.3 0 .3.3zm1-.2s0 .2-.3.2c0 0-.2 0-.2-.2s0-.3.2-.3.2 0 .2.3zm1 0s0 .2-.4.2c0 0-.2 0-.2-.2s0-.3.2-.3.3 0 .3.3zm.8 0s0 0-.2 0l-.2-.2c0-.2 0-.3.2-.3s.2 0 .2.3zm1 0s0 0-.2 0-.4 0-.4-.2 0-.3.3-.3.3 0 .3.3z"/><path class="st40" d="M263.5 91.5l.6-43h5l-.5 43z"/><path class="st41" d="M266 91.5l.7-43h2.4l-.5 43z"/><path class="st42" d="M266 98.6l2.4-7h-5z"/><path class="st32" d="M266 98.6l.8-2.6H265z"/><path class="st5" d="M264.2 46.8V44c0-.2.4-.5.7-.5h3.3c.3 0 .6.3.7.6v3h-4.8z"/><path class="st9" d="M264.2 48.5V47h5v1.6z"/><circle class="st23" cx="247.2" cy="56.4" r="1"/><path class="st6" d="M281.3 69.3c0 2.6-7.5 4.7-16.7 4.7S248 72 248 69.3v29.4c0 2 1 3.6 2.7 4.5 4.4 2 9 3 14 3.2 5 0 10-1.3 14.4-3.5 1.5-1 2.4-2.3 2.4-3.8v-30z"/><path class="st43" d="M264.5 80c9.2 0 16.7-2 16.7-4.6v24-30c0 2.5-7.5 4.6-16.7 4.6s-16.7-2-16.7-4.7v6c0 2.7 7.5 4.8 16.7 4.8z"/><path class="st43" d="M279 97.4c-4.4 2.2-9.4 3.4-14.4 3.5-4.8-.3-9.6-1.4-14-3.4-1.6-.8-2.7-2.6-2.7-4.5v5.5c0 2 1 3.6 2.6 4.5 4.4 2 9 3.2 14 3.3 5 0 10-1.3 14.4-3.5 1.4-.7 2.3-2 2.3-3.6v-5.4c0 1.6-1 3-2.2 3.6z"/><path class="st19" d="M265.8 243l.2.3-2.3.8-2.3-.6z"/></svg>