<?xml version="1.0" encoding="utf-8"?>
<!-- Generator: Adobe Illustrator 19.1.1, SVG Export Plug-In . SVG Version: 6.00 Build 0)  -->
<svg version="1.1" id="Layer_1" xmlns="http://www.w3.org/2000/svg" xmlns:xlink="http://www.w3.org/1999/xlink" x="0px" y="0px"
	 viewBox="275 -15.4 834 311.9" style="enable-background:new 275 -15.4 834 311.9;" xml:space="preserve">
<style type="text/css">
	.st0{fill:none;stroke:#AAD6F2;stroke-miterlimit:10;}
	.st1{fill:#D7EDF9;}
	.st2{fill:#AAD6F2;}
	.st3{fill:#2E4661;}
	.st4{fill:#243C51;}
	.st5{fill:#B99A6F;}
	.st6{fill:#363636;}
	.st7{fill:#FFFFFF;}
	.st8{fill:#ED8B00;}
	.st9{fill:#334E66;}
	.st10{fill:#647380;}
	.st11{fill:#37474F;}
	.st12{fill:#45555B;}
	.st13{fill:#C1D6E0;}
	.st14{fill:#0C84C6;}
	.st15{fill:#E7CAAD;}
	.st16{fill:#3A3029;}
	.st17{fill:#58666B;}
	.st18{opacity:0.13;}
	.st19{fill:#C5CCCC;}
	.st20{fill:#EDEEEF;}
	.st21{fill:#DAE5EA;}
	.st22{fill:#E8CBAE;}
	.st23{fill:#AF8D66;}
	.st24{fill:#097EB2;}
	.st25{fill:#D87907;}
	.st26{fill:#F9A23A;}
	.st27{fill:none;}
	.st28{fill:#B7BAC4;}
	.st29{fill:#333332;}
	.st30{fill:#F9A03E;}
	.st31{fill:#DD5712;}
	.st32{fill:#485959;}
	.st33{fill:#DD7903;}
	.st34{fill:#F4A647;}
	.st35{opacity:0.5;}
	.st36{fill:#C9804F;}
	.st37{fill:#CC6E09;}
	.st38{opacity:0.8;fill:#C2D8EF;enable-background:new    ;}
	.st39{fill:#B6B8BF;}
	.st40{opacity:0.6;}
	.st41{fill:#4C888E;}
	.st42{fill:#EAA16A;}
	.st43{opacity:0.8;fill:#FFFFFF;enable-background:new    ;}
	.st44{fill:#4B994B;}
	.st45{fill:#DDE8E8;}
	.st46{fill:#71BE72;}
	.st47{fill:#2EA4D8;}
	.st48{fill:#424242;}
	.st49{fill:#2B3C42;}
	.st50{fill:none;stroke:#91CE91;stroke-width:2;stroke-miterlimit:10;}
	.st51{fill:none;stroke:#91CE91;stroke-width:4;stroke-miterlimit:10;}
	.st52{fill:#F6CCB8;}
	.st53{opacity:0.8;fill:#F7CDB9;enable-background:new    ;}
	.st54{fill:#F7CDB9;}
	.st55{fill:#F05D44;}
	.st56{fill:#91CE91;}
	.st57{fill:#E5E5E5;}
	.st58{fill:#9AAFB7;}
	.st59{fill:#90A4AE;}
	.st60{fill:#78909C;}
	.st61{fill:#BDD7E5;}
	.st62{fill:#5A676B;}
	.st63{clip-path:url(#SVGID_2_);fill:#0C84C6;}
	.st64{fill:#E2F4FD;}
	.st65{opacity:0.8;fill:#F6CCB8;enable-background:new    ;}
	.st66{fill:#84D1C9;}
	.st67{fill:none;stroke:#0C84C6;stroke-miterlimit:10;}
	.st68{fill:#E6E6E6;}
	.st69{opacity:0.8;fill:#F7CDB9;}
	.st70{fill:#3C2417;}
	.st71{fill:#EE9D25;}
	.st72{fill:#43414D;}
	.st73{fill:#EBF0F2;}
	.st74{fill:#4F3C30;}
	.st75{fill:#91A1A8;}
	.st76{fill:#CFD2D3;}
	.st77{fill:#C5672F;}
	.st78{fill:#3C2415;}
	.st79{fill:#70BEF2;}
</style>
<path class="st0" d="M519.2,265c-0.1-2.1-0.1-4.1-0.1-6.2c0-99.4,80.5-179.9,179.9-179.9s179.9,80.5,179.9,179.9c0,1.5,0,3-0.1,4.4"
	/>
<path class="st0" d="M437,219.8C470.9,106.4,576.1,23.7,700.6,23.7c108,0,201.4,62.2,246.4,152.7"/>
<path class="st1" d="M946.1,163.6L946.1,163.6c26.1,0,47.2,21.1,47.2,47.2v0c0,26.1-21.1,47.2-47.2,47.2h0
	c-26.1,0-47.2-21.1-47.2-47.2v0C899,184.8,920.1,163.6,946.1,163.6z"/>
<path class="st2" d="M434.3,161.5L434.3,161.5c26.6,0,48.2,21.6,48.2,48.2v0c0,26.6-21.6,48.2-48.2,48.2h0
	c-26.6,0-48.2-21.6-48.2-48.2v0C386.2,183.1,407.7,161.5,434.3,161.5z"/>
<g>
	<g>
		<g>
			<g>
				<polygon class="st3" points="445.2,189.1 440.4,200.9 433.8,203.9 434.3,206.4 441.6,204.8 447.5,195.5 				"/>
			</g>
			<g>
				<polygon class="st4" points="443.3,212.5 441.6,223.9 444.4,240.8 447.2,240.8 446.5,225.9 448.3,213.7 				"/>
			</g>
			<g>
				<path class="st3" d="M446,188.5l1.8-0.7c0.4-0.1,0.7-0.1,1,0.3c1,1.4,3.8,5.6,6,12.1c2.5,7.4-1.9,13-3.2,14.5
					c-0.2,0.2-0.4,0.3-0.7,0.2c-1.3-0.3-5-1-7.4-1.3c-0.4-0.1-0.7-0.4-0.7-0.7l-0.3-10.4c0-0.1,0-0.1,0-0.2l2.7-12.8
					C445,189.1,445.7,188.6,446,188.5z"/>
			</g>
			<g>
				<polygon class="st4" points="447.2,213.4 449.6,240.8 452.6,240.8 452.5,226.2 454.3,211.7 				"/>
			</g>
			<g>
				<g>
					<path class="st5" d="M441.6,182.4c1.7-0.1,3-1.7,4.7-1.6c1.1,0.1,2.1,0.9,2.6,1.8c0.2,0.4,0.4,1,0.3,1.5
						c-0.1,0.4-0.2,0.7-0.4,0.9c-0.2,0.4-0.5,0.7-0.9,1c0.3,0.3,0.9,1.5,1.2,1.8c-0.7,0.4-1.6,0.2-2.4,0.6c-0.2-0.4-0.7-1.1-0.9-1.5
						c-0.2,0.1-0.4,0.1-0.7,0c-1.4-0.1-2.7-1.2-3.2-2.5C441.7,183.8,441.6,183.1,441.6,182.4z"/>
				</g>
				<g>
					<path class="st6" d="M442.4,182.7l4-1.1c0.4-0.1,0.8,0.1,1,0.4l0.8,2c0.2,0.5,0.9,0.7,1.3,0.2l0.1-0.1c0.2-0.2,0.3-0.5,0.2-0.7
						l-1.4-5.2c-0.1-0.4-0.5-0.7-0.9-0.6l-6.3,0.8c-0.1,0.1-0.3,0.1-0.4,0.2l-2.3,1.8c-0.2,0.2-0.4,0.5-0.3,0.8l0.2,1
						c0.1,0.2,0.2,0.4,0.4,0.5l1.9,0.9c0.4,0.2,1,0,1.1-0.4l0,0C442,183,442.2,182.8,442.4,182.7z"/>
				</g>
			</g>
			<g>
				<path class="st7" d="M446,189l0.6-0.8c0,0,5.5,3.2,9.1,11c3.5,7.7-3.3,9.7-3.3,9.7s-4.7,1.2-7.4,1.1l-0.1-9.1L446,189z"/>
			</g>
			<g>
				<path class="st8" d="M445.5,199.6c-0.1,1.2-0.1,2.4,0.4,3.4c0,0,1,1.3,1,1.3s0.7-0.9,0.8-1.4c0.2-0.9,0.1-2-0.1-2.9
					c-0.7-3.4-1.5-6.8-1.6-10.2c0.6-0.4,1.6-1.1,0.5-1.5c-1.2,0.7-0.7,3.7-0.8,4.9C445.7,195.3,445.6,197.5,445.5,199.6z"/>
			</g>
			<g>
				<polygon class="st6" points="444.4,240.8 441.9,241.9 441.9,242.5 444.6,242.7 447.2,242.4 447.2,240.8 				"/>
			</g>
			<g>
				<polygon class="st6" points="450,240.8 448.7,242.2 447.9,243 448.6,243.9 450.9,243.3 452.8,241.7 452.5,240.8 				"/>
			</g>
			<g>
				<path class="st3" d="M454.2,198.9c-1.6-4.7-1.2-5.9-2.4-8c-0.7-1.3-1.1-2.8-2.8-3.3l-1.5,0.5l-0.7,0.3c-0.1,0.1-0.6,0.5-0.6,0.7
					c0.2,0.6,0.1,0.9,0.2,1.8c0.1,1.4,0.3,1.5,0.7,2.9c0.7,2.4,1.2,4.9,1.5,7.4c0.3,2.4,0.4,4.9,0.4,7.2c-0.1,2.1,0.1,1-0.1,3
					c-0.3,1.8,1,1.8,2.7,1.9c1.4,0.1,1.2,0.2,1.6,0.3c0.7,0.1,1,0.8,1,0.1C454.2,209.7,457,206.8,454.2,198.9z"/>
			</g>
			<g>
				<path class="st9" d="M450.5,188.9l0.6,0.4c0.2,0.1,0.4,0.3,0.5,0.5l5.9,10.4c0.1,0.2,0.2,0.5,0.2,0.7l-0.1,8.2
					c0,0.8-0.7,1.5-1.5,1.5l0,0c-0.8,0-1.5-0.7-1.5-1.5L454,202c0-0.3-0.1-0.5-0.3-0.7l-5-7.2c-0.1-0.2-0.2-0.4-0.3-0.7l-0.3-3.1
					C448,189.1,449.4,188.3,450.5,188.9z"/>
			</g>
		</g>
		<g>
			<g>
				<path class="st10" d="M421.9,239.4l1.8,1.3l0.6,1c0,0-0.7,0.3-1.1,0.4c-0.4,0.1-3.3-0.4-3.3-0.4v-1.7L421.9,239.4z"/>
			</g>
			<g>
				<path class="st10" d="M415.4,240.2l1,1c0,0,0.8,1.3,0.4,1.3s-2.4,0.2-2.6,0c-0.1-0.2-1.3-1-1.4-1.2c-0.1-0.1-0.1-1.5-0.1-1.5
					L415.4,240.2z"/>
			</g>
			<g>
				<path class="st11" d="M418.8,213.7l-1.3,12.9l-2.2,13.6h-2.7l-0.3-14.2c0,0-0.4-12.2-0.7-16L418.8,213.7z"/>
			</g>
			<g>
				<polygon class="st11" points="424.4,214.4 422.6,239.9 419.9,239.9 419.1,226.6 418.5,214.7 423.5,207.9 				"/>
			</g>
			<g>
				<path class="st12" d="M423.8,188.6c0,0-3.3-2.5-6.9-0.7c-3.5,1.8-4.5,6.1-5.2,16.1c-0.6,10.3,0.1,9.1,1.3,9.4
					c1,0.4,0.7,0.3,2.1,0c1.3-0.3,4.9,0.2,8.3,0.4c2.7,0.1-0.5-4.9,0.2-11.9C424.3,195,426.6,191,423.8,188.6z"/>
			</g>
			<g>
				<polygon class="st13" points="419.8,187.4 418.8,187.4 418.5,188.3 420.6,198.9 422.1,194.6 422.2,188.2 				"/>
			</g>
			<g>
				<g>
					<path class="st14" d="M421.8,195.4c0.1-0.4,0.1-0.7,0.1-1c0.1-2.1-1-4.9-1-4.9s0-0.6,0.1-1.1l-1.2-0.4l-0.1,1.3l0.4,0.6
						c0,0,0.5,4.9,0.3,6.9c-0.1,0.2-0.1,0.4-0.1,0.6l0.3,1.5L421.8,195.4z"/>
				</g>
			</g>
			<g>
				<polygon class="st13" points="420.5,202.8 418,208.9 419.3,209.3 420.9,209.3 421,204.7 				"/>
			</g>
			<g>
				<g>
					<path class="st15" d="M421.2,188.5c-0.7-0.2-1.3-0.4-2-0.6c0.1-0.5,0.2-1,0.4-1.5c-0.5-0.3-1.1-0.7-1.1-1.3
						c0-0.2,0.1-0.4,0.1-0.5c0.3-0.7,0.4-1.5,0.8-2.2c0.1-0.2,0.2-0.5,0.4-0.7c0.3-0.4,0.8-0.4,1.3-0.4c1.2,0.1,2.4,0.5,3.2,1.5
						c0.2,0.2,0.4,0.5,0.4,0.8c0.1,0.5-0.1,1-0.4,1.4s-0.4,0.8-0.6,1.3c-0.2,0.4-0.5,1-1,1.1c-0.3,0.1-0.6-0.1-0.8,0.1
						C421.5,187.5,421.5,188.1,421.2,188.5z"/>
				</g>
				<g>
					<path class="st16" d="M427.2,179.9c-0.1-0.1-0.3-0.1-0.4-0.2c-0.4-0.4-0.7-0.8-1.1-1.2c-0.9-0.7-2.2-0.9-3.3-0.7
						c-1.1,0.1-2.4,0-3.4,0.3c-0.4,0.1-0.7,0.4-1.1,0.7c-1,1.1-1.4,2.8-0.8,4.2c0.1,0.3,0.3,0.6,0.4,0.9c0.4,0.6,0.8,1.3,1.4,1.6
						c0.1-0.6-0.1-2.5,0.5-2.9c0.7-0.5,1.8-0.2,2.5,0.1c0.9,0.3,1.7,0.2,2.6,0.5c0.4,0.1,1,0.4,1.4,0.1c0.5-0.2,1.6-1.1,2-1.5
						c0.3-0.4,0.3-0.9,0.1-1.3C427.8,180.1,427.5,180.1,427.2,179.9z"/>
				</g>
			</g>
			<g>
				<path class="st17" d="M416.8,187.9l-0.7,0.4c-0.3,0.1-1.8,1.7-1.9,2l-0.7,1.8c-0.2,0.4-0.1,2.1,0.1,2.4l7.2,9.2
					c0.1,0.1,0.3,0.3,0.5,0.4l8.2,2.3c0.5,0.1,1.1-0.1,1.3-0.6l0.3-0.7c0.2-0.5,0-1.1-0.4-1.3l-7.5-4.3c-0.1-0.1-0.3-0.2-0.4-0.4
					l-4.9-8.9c-0.1-0.3-0.2-0.7-0.1-1l0,0C418.1,188.4,417.6,187.7,416.8,187.9z"/>
			</g>
		</g>
		<g>
			<g>
				
					<rect x="449.9" y="215.1" transform="matrix(0.9724 -0.2333 0.2333 0.9724 -38.7583 112.9324)" class="st10" width="16.2" height="10.5"/>
			</g>
			<g>
				<g>
					<path class="st10" d="M459.9,214.3l-0.8,0.2l-0.4-1.7l-4.6,1.1l0.4,1.5l-0.8,0.2l-0.4-1.8c-0.1-0.4,0.1-0.7,0.4-0.8l5.1-1.3
						c0.4-0.1,0.7,0.1,0.8,0.5L459.9,214.3z"/>
				</g>
			</g>
			<g class="st18">
				<path d="M465.1,215.5l-6.8,2.9l0.1,0.1l-1.1,0.7l-0.4,0.3l0.7,0.1l0.1,0.3c0.1,0.1,0.1,0.1,0.2,0.1l0.4-0.1
					c0.1-0.1,0.1-0.1,0.1-0.2l-0.1-0.3l0.7-0.1l-0.1-0.7l6.5-2.4L465.1,215.5z"/>
			</g>
			<g>
				<polygon class="st19" points="465,215.7 457.6,218.8 449.2,219.4 448.5,216.5 464.3,212.7 				"/>
			</g>
			<g>
				<path class="st3" d="M458.6,218.1l-2.1,0.5l0.3,1.2l0.7-0.1l0.1,0.3c0.1,0.1,0.1,0.1,0.2,0.1l0.4-0.1c0.1-0.1,0.1-0.1,0.1-0.2
					l-0.1-0.3l0.7-0.1L458.6,218.1z"/>
			</g>
		</g>
		<g>
			<polygon class="st20" points="454.8,210 454.8,210.7 457.1,210.7 457.1,210.3 			"/>
		</g>
		<g>
			<polygon class="st21" points="431.4,204.4 432,204.7 431.1,206.6 430.5,206.5 			"/>
		</g>
		<g>
			<polygon class="st20" points="433.9,204 433.2,204.2 433.7,206.4 434.3,206.2 			"/>
		</g>
		<g>
			<polygon class="st5" points="455,210.7 454.6,212.4 455.3,213.7 457.3,213.3 457.6,212.4 457,210.7 			"/>
		</g>
		<g>
			<polygon class="st22" points="432,204.7 432.7,204.1 433.8,204.7 434.3,205 434.3,206.2 433.2,206.5 431.2,206.3 			"/>
		</g>
		<g>
			<polygon class="st5" points="433.2,204.2 432.5,204 432,204.1 432.1,205.2 432.6,205.1 432.6,204.2 432.7,204.1 433.2,204.4 			
				"/>
		</g>
	</g>
	<polygon class="st11" points="420.9,209.3 422.5,217.5 414.4,215.6 416.8,210.7 418,208.9 	"/>
	<polygon class="st16" points="418,208.9 420.9,209.3 421.2,210.5 417.2,210 	"/>
	<polygon class="st4" points="449,209.7 449,213.3 446.3,215.2 444.3,214.8 444.9,211.4 444.9,210 446.6,209.9 	"/>
	<polygon class="st16" points="444.9,210 444.9,210.9 446.6,210.9 449,210.7 449,209.7 447.2,209.9 	"/>
</g>
<g>
	<g>
		<g>
			<g>
				<path class="st23" d="M964.8,213.5l-2.5,4.9c-0.2,0.2-0.4,0.5-0.6,0.5l-7.3,1c-0.4,0.1,0.3,0.4,0.3,0.8l0.6,0.2
					c0.8,0,0.3,0,0.8,0l5.7-0.4c0.2,0,1.3-0.5,1.4-0.7l3.5-3c0.3-0.3,0.3-0.8,0.2-1.1l-1-1.5C965.6,213.5,965.1,212.9,964.8,213.5z"
					/>
			</g>
			<g>
				<polygon class="st24" points="964.1,227 963.7,233.4 965.6,244.2 967.3,244.2 966.9,234.7 968.1,226.9 				"/>
			</g>
			<g>
				<polygon class="st14" points="966.4,227 968.9,244.2 970.8,244.2 970.8,234.9 971.6,225.7 				"/>
			</g>
			<g>
				<polygon class="st6" points="968.1,206.6 968.1,207.9 968,208.6 967.5,207.9 966.9,207.4 966.3,207.1 965.5,206.8 965.3,206.6 
					966.4,206.3 967.5,206.2 				"/>
				<g>
					<g>
						<path class="st25" d="M961.9,207.4c0.2-0.1,1.1-0.4,1.4-0.5c0,0.3,0.2,0.7,0.2,1L963,208C961.1,208.9,960.3,207.9,961.9,207.4
							z"/>
						<path class="st8" d="M962.8,207.4c0.1-0.2,0.3-0.2,1.1-0.5c0.8-0.3,1.8-0.5,2.5-0.6c0.8-0.1,1.4,0,1.7,0.3
							c0.1,0-0.1-0.7-0.2-1.2v-0.1c-0.1-0.2-0.2-0.4-0.3-0.5c-0.5-0.7-1.4-1.1-2.8-0.8l0,0c-0.2,0-0.3,0.1-0.5,0.2
							c-0.1,0-0.1,0-0.2,0.1c-0.3,0.2-0.6,0.3-0.8,0.5c0,0,0,0-0.1,0.1c-0.5,0.5-0.8,1.1-0.8,1.6
							C962.5,206.8,962.7,207.4,962.8,207.4z"/>
						<path class="st25" d="M968.1,206.6c-0.3-0.3-0.9-0.4-1.7-0.3c-0.8,0.1-1.7,0.3-2.5,0.6c-0.8,0.3-0.9,0.3-1.1,0.5
							c-0.2,0-0.3-0.5-0.3-1.1c0-0.5,0.2-1.1,0.8-1.6c-0.4,0.5-0.2,1.4-0.1,1.8c0.1,0.3,1,0.1,2.4-0.2
							C967.2,206,967.9,206.2,968.1,206.6z"/>
					</g>
					<path class="st26" d="M961.5,207.6c0.6-0.2,0.9-0.1,2.4-0.2c1.1-0.1,1.9-0.8,2.5-1.2c-0.3-0.2-2.8,0.5-4.1,0.9
						C961.9,207.3,961.5,207.5,961.5,207.6z"/>
				</g>
				<g>
					<path class="st5" d="M963.2,207.4c1.1-0.1,1.9-1.1,3-1.1c0.7,0,1.3,0.5,1.7,1.2c0.2,0.3,0.2,0.6,0.2,1c0,0.2-0.2,0.4-0.2,0.6
						c-0.2,0.2-0.3,0.5-0.5,0.6c0.2,0.2,0.4,0.4,0.5,0.5c-0.5,0.2-0.9,0.5-1.4,0.8c-0.2-0.2-0.3-0.5-0.5-0.8c-0.2,0-0.3,0-0.5,0
						c-0.9-0.1-1.8-0.8-2.1-1.6C963.3,208.4,963.2,207.9,963.2,207.4z"/>
				</g>
				<ellipse class="st5" cx="967.5" cy="207.3" rx="0.4" ry="0.6"/>
			</g>
			<g>
				<path class="st8" d="M966.4,211.1l1.4-0.8c0,0,2.2,2.4,3.3,7.7c1.1,6,0.1,11.7,0.1,11.7s-5.3-2.7-7.1-2.7V219L966.4,211.1z"/>
			</g>
			<g>
				<polygon class="st6" points="965.6,244.2 964,244.9 964,245.3 965.7,245.5 967.4,245.2 967.3,244.2 				"/>
			</g>
			<g>
				<polygon class="st6" points="969.2,244.2 968.3,245.1 967.8,245.6 968.3,246.2 969.8,245.9 971,244.8 970.8,244.2 				"/>
			</g>
			<g>
				<path class="st5" d="M969.8,215l0.5,0.2c0,0.2-0.1,0.3-0.2,0.5l-5.5,5.2c-0.1,0.2-0.2,0.2-0.5,0.3l-5.7,0.2
					c-0.5,0.2,0.2-0.1-0.2-0.5l0.1,0.2c-0.2-0.5-0.2-0.9,0.3-1.1l4.5-0.2c0.2-0.1,0.3-0.2,0.4-0.3l3.3-4.6c0.1-0.2,0.2-0.2,0.4-0.3
					l1.4-0.8C969.4,213.3,970,214.2,969.8,215z"/>
			</g>
			<line class="st27" x1="965.6" y1="213.9" x2="966.4" y2="214.3"/>
		</g>
		<polygon class="st25" points="966.4,211.1 964.8,213.5 963.4,216.1 964.7,216.9 		"/>
		<path class="st5" d="M959.6,220.7c-0.3-0.2-0.8-0.7-0.9-0.8c-0.2-0.2-1-0.2-1,0s0,0.5,0,0.5c0,0.1,0.1,0.2,0.2,0.2s0.1,0,0.2,0.1
			c0.2,0.1,0.6,0.2,0.6,0.2c0.1,0,0.5,0.2,0.5,0.2C959.2,221.1,959.6,220.7,959.6,220.7z"/>
		<g>
			<g>
				<path class="st28" d="M952.5,239.9l3.4-15.7L952.5,239.9z"/>
				<g>
					<path class="st29" d="M952.5,240.7c0.4,0,0.8-0.3,0.8-0.7l3.4-15.7c0.1-0.5-0.2-0.9-0.7-1s-0.9,0.2-1,0.7l-3.4,15.7
						c-0.1,0.5,0.2,0.9,0.7,1C952.4,240.7,952.4,240.7,952.5,240.7z"/>
				</g>
			</g>
			<path class="st30" d="M952.2,241.7c0,0.8,0.5,1.3,1.3,1.3h5.3c0.8,0,1.3-0.6,1.3-1.3v-10.3c0-0.8-0.5-1.7-1.1-2.1l-5.3-4.3
				c-0.5-0.5-1.1-0.2-1.1,0.5L952.2,241.7z"/>
			<polygon class="st30" points="952.2,227.1 952.4,230.5 960.1,236.3 960.1,233.4 			"/>
			<polygon class="st30" points="952.2,231.4 952.4,233 960.1,238.8 960.1,237.7 			"/>
			<g>
				<path class="st31" d="M953.2,242.1c0.2,0,0.4-0.2,0.4-0.4v-16.3c0-0.2-0.2-0.4-0.4-0.4h-11.3c-0.2,0-0.4,0.2-0.4,0.4v16.3
					c0,0.2,0.2,0.4,0.4,0.4H953.2z"/>
				<g>
					<path class="st32" d="M942.5,225.9h10.2v15.2h-10.2V225.9L942.5,225.9z M941.9,224.1c-0.8,0-1.3,0.6-1.3,1.3v16.3
						c0,0.8,0.6,1.3,1.3,1.3h11.3c0.8,0,1.3-0.6,1.3-1.3v-16.3c0-0.8-0.6-1.3-1.3-1.3H941.9L941.9,224.1z"/>
				</g>
			</g>
			<g>
				<path class="st8" d="M952.2,242.1c0.2,0,0.4-0.2,0.4-0.4v-16.3c0-0.2-0.2-0.4-0.4-0.4h-12.3c-0.2,0-0.4,0.2-0.4,0.4v16.3
					c0,0.2,0.2,0.4,0.4,0.4H952.2z"/>
				<path class="st29" d="M940.3,225.9h11.3v15.2h-11.3V225.9L940.3,225.9z M939.8,224.1c-0.8,0-1.3,0.6-1.3,1.3v16.3
					c0,0.8,0.6,1.3,1.3,1.3h12.3c0.8,0,1.3-0.6,1.3-1.3v-16.3c0-0.8-0.6-1.3-1.3-1.3H939.8L939.8,224.1z"/>
			</g>
			<rect x="948.2" y="184.1" class="st29" width="2.7" height="58.8"/>
			<polygon class="st32" points="950,226.5 950.9,224.9 950.9,184.1 950,184.1 			"/>
			<rect x="941.4" y="210.8" class="st29" width="8.2" height="1.8"/>
			<rect x="941.4" y="202.3" class="st29" width="8.2" height="1.8"/>
			<rect x="941.4" y="238.6" class="st29" width="8.2" height="1.8"/>
			<rect x="941.4" y="187.9" class="st29" width="8.2" height="1.8"/>
			<rect x="941.4" y="224.1" class="st29" width="8.2" height="1.8"/>
			<rect x="920.8" y="213.5" class="st29" width="28.8" height="1.8"/>
			<rect x="940.7" y="184.1" class="st29" width="2.7" height="58.8"/>
			<rect x="919.3" y="212.6" class="st8" width="21.7" height="1.8"/>
			<rect x="922.5" y="212.6" class="st33" width="18.2" height="1.8"/>
			<rect x="927.4" y="212.6" class="st8" width="18.1" height="1.8"/>
			<polygon class="st34" points="949,214.3 931,214.3 931,212.6 936.4,211.8 941.5,211 946.1,210.3 946.6,210.2 949,210.2 			"/>
			<polygon class="st33" points="945,212.6 944.1,214.3 932.4,214.3 933.3,212.6 			"/>
			<polygon class="st33" points="947.4,210.2 947.4,212.6 946.1,212.6 946.1,210.3 946.6,210.2 			"/>
			<g>
				<rect x="933.3" y="184.1" class="st30" width="13.5" height="28.6"/>
				<rect x="922.7" y="184.1" class="st8" width="12.7" height="28.6"/>
				<g>
					<g class="st35">
						<rect x="922.7" y="193.3" class="st36" width="24.2" height="0.5"/>
					</g>
					<g class="st35">
						<rect x="922.7" y="202.9" class="st36" width="24.2" height="0.5"/>
					</g>
				</g>
				<rect x="940.5" y="193.4" class="st37" width="1.9" height="2.1"/>
				<rect x="923.4" y="200.7" class="st38" width="1.8" height="1.6"/>
				<g>
					<rect x="929.1" y="200.7" class="st37" width="1.5" height="1.6"/>
				</g>
				<g>
					<rect x="931.1" y="200.7" class="st37" width="1.5" height="1.6"/>
				</g>
				<g>
					<rect x="933" y="200.7" class="st37" width="1.5" height="1.6"/>
				</g>
				<g>
					<rect x="929.1" y="191" class="st37" width="1.5" height="1.6"/>
				</g>
				<g>
					<rect x="931.1" y="191" class="st37" width="1.5" height="1.6"/>
				</g>
				<g>
					<rect x="933" y="191" class="st37" width="1.5" height="1.6"/>
				</g>
				<g>
					<rect x="929.1" y="210.3" class="st37" width="1.5" height="1.6"/>
				</g>
				<g>
					<rect x="931.1" y="210.3" class="st37" width="1.5" height="1.6"/>
				</g>
				<g>
					<rect x="933" y="210.3" class="st37" width="1.5" height="1.6"/>
				</g>
				
					<rect x="934.7" y="198.6" transform="matrix(0.9812 -0.1932 0.1932 0.9812 -20.9702 184.7339)" class="st38" width="4.1" height="2.7"/>
				<rect x="923.4" y="210.3" class="st38" width="1.8" height="1.6"/>
				<rect x="923.4" y="191.1" class="st38" width="1.8" height="1.6"/>
				<rect x="940.6" y="184.1" class="st37" width="1.9" height="1.8"/>
				<rect x="940.6" y="203" class="st37" width="1.9" height="2.6"/>
				<rect x="940.6" y="211.5" class="st37" width="1.9" height="1.1"/>
			</g>
		</g>
		<path class="st29" d="M955.5,220.8h2c0.3,0,0.5,0.2,0.5,0.5l-0.5,2.1c-0.1,0.3-0.4,0.5-0.6,0.5h-2c-0.3,0-0.5-0.2-0.5-0.5l0.5-2.1
			C955,221,955.2,220.8,955.5,220.8L955.5,220.8z M955.5,220c-0.7,0-1.3,0.5-1.4,1.1l-0.5,2.1c-0.1,0.4,0,0.8,0.2,1.1
			c0.2,0.3,0.6,0.5,1,0.5h2c0.7,0,1.3-0.5,1.4-1.1l0.5-2.1c0.1-0.4,0-0.8-0.2-1.1c-0.2-0.3-0.6-0.5-1-0.5H955.5L955.5,220z"/>
		<g>
			<path class="st29" d="M955.7,224.2c0.2,0,0.3-0.1,0.3-0.2l0.8-3.4c0.1-0.2-0.1-0.3-0.2-0.4c-0.2-0.1-0.3,0.1-0.4,0.2l-0.8,3.4
				C955.4,224,955.5,224.1,955.7,224.2L955.7,224.2z"/>
		</g>
		<path class="st5" d="M956,220c-0.5,0-0.5,0.6-0.5,0.8c0,0.4-0.6,0.5-0.9,0.5c-0.5,0-0.7-0.5-0.6-1c0.1-0.5,0.3-0.7,0.8-0.7
			c0.3,0,0.6,0,0.9,0C956,219.7,956,220,956,220z"/>
		<path class="st5" d="M958.7,220c-0.5,0-0.5,0.6-0.5,0.8c0,0.4-0.6,0.5-0.9,0.5c-0.5,0-0.7-0.5-0.6-1c0.1-0.5,0.3-0.7,0.8-0.7
			c0.3,0,0.6,0,0.9,0C958.7,219.6,958.7,220,958.7,220z"/>
		<path class="st29" d="M938.9,245.1c0,0.3,0.2,0.5,0.5,0.5h20.5c0.3,0,0.5-0.2,0.5-0.5v-1.5c0-0.3-0.2-0.5-0.5-0.5h-20.5
			c-0.3,0-0.5,0.2-0.5,0.5V245.1z"/>
		<path class="st29" d="M937.8,243.3c0,0.3,0.2,0.5,0.5,0.5h21.9c0.3,0,0.5-0.2,0.5-0.5v-1.5c0-0.3-0.2-0.5-0.5-0.5h-21.9
			c-0.3,0-0.5,0.2-0.5,0.5V243.3z"/>
		<path class="st32" d="M953.2,243.3c0,0.3,0.2,0.5,0.5,0.5h6.9c0.3,0,0.5-0.2,0.5-0.5v-1.6c0-0.3-0.2-0.5-0.5-0.5h-6.9
			c-0.3,0-0.5,0.2-0.5,0.5V243.3z"/>
		<g>
			<path class="st29" d="M948.7,223.2c0.2,0,0.4-0.2,0.4-0.4s-0.2-0.4-0.4-0.4c-2.1,0-3.5-2.8-3.5-7.2c0-0.2-0.2-0.4-0.4-0.4
				c-0.2,0-0.4,0.2-0.4,0.4C944.4,220.1,946.1,223.2,948.7,223.2z"/>
		</g>
		<g>
			<path class="st29" d="M942,230.7c0.2,0,0.3-0.2,0.3-0.3c0-0.2-0.2-0.3-0.3-0.3c-0.9,0-1.5-0.5-1.8-2.7c-0.3-2.4-0.4-6.6-0.4-12.6
				c0-0.2-0.2-0.3-0.3-0.3s-0.3,0.2-0.3,0.3C939.4,227.6,939.4,230.7,942,230.7z"/>
		</g>
		<polygon class="st8" points="965.3,216.9 967.2,218.7 970.5,215.9 969.3,213.2 966.2,214.3 		"/>
		<polygon class="st25" points="967.2,218.7 970.1,216.3 967.5,218.9 		"/>
		<polygon class="st25" points="965.3,216.9 965.1,216.8 966.2,214.3 		"/>
		<polyline class="st14" points="967.5,211.3 968.2,211 969.2,212.5 970.2,214.9 970.8,217 971.4,219.8 971.6,222.2 971.6,224.5 
			971.4,227.3 971.2,229.9 967.2,229.5 964,227.3 964,226.1 964.1,222.8 964.2,221.1 964.6,220.8 966.4,218.7 966.8,218.3 
			967.2,218.7 967.5,218.9 969.7,216.7 970.1,215.4 969.5,213.8 968.5,211.9 967.8,211.6 		"/>
		<g>
			<g>
				<path class="st25" d="M968.2,221.1C968.2,221.2,968.2,221.2,968.2,221.1l-2,0.1c-0.1,0-0.1-0.1-0.1-0.1v-1.3
					c0-0.1,0.1-0.1,0.1-0.1h1.9c0.1,0,0.1,0.1,0.1,0.1V221.1z"/>
			</g>
			<path class="st7" d="M968,220.8C968,220.9,967.9,220.9,968,220.8l-2,0.1c-0.1,0-0.1-0.1-0.1-0.1v-1.2c0-0.1,0.1-0.1,0.1-0.1h1.9
				c0.1,0,0.1,0.1,0.1,0.1V220.8z"/>
			<path class="st39" d="M967.2,219.5C967.2,219.6,967.1,219.6,967.2,219.5l-0.4,0.1c-0.1,0-0.1-0.1-0.1-0.1V219
				c0-0.1,0.1-0.1,0.1-0.1h0.3c0.1,0,0.1,0.1,0.1,0.1V219.5z"/>
			<g class="st40">
				<path class="st41" d="M966.6,220.2C966.6,220.2,966.6,220.2,966.6,220.2l-0.4,0.1c-0.1,0-0.1-0.1-0.1-0.1v-0.3
					c0-0.1,0.1-0.1,0.1-0.1h0.3c0.1,0,0.1,0.1,0.1,0.1V220.2z"/>
			</g>
		</g>
		<polygon class="st14" points="965.9,211.9 964.7,216.9 964.3,218.5 965.3,217 965.1,216.7 966.2,214.3 965.7,214.3 966.4,211.1 		
			"/>
		<polyline class="st14" points="966.2,214.3 967.8,211.6 967.5,211.3 965.9,214.6 		"/>
	</g>
	<g>
		<g>
			<path class="st29" d="M955.7,240.5c0.1,0,0.2-0.1,0.2-0.2v-1.6c0-0.1-0.1-0.2-0.2-0.2s-0.2,0.1-0.2,0.2v1.6
				C955.5,240.4,955.6,240.5,955.7,240.5z"/>
		</g>
		<g>
			<path class="st29" d="M956.3,240.5c0.1,0,0.2-0.1,0.2-0.2v-1.6c0-0.1-0.1-0.2-0.2-0.2s-0.2,0.1-0.2,0.2v1.6
				C956.2,240.4,956.3,240.5,956.3,240.5z"/>
		</g>
		<g>
			<path class="st29" d="M957,240.5c0.1,0,0.2-0.1,0.2-0.2v-1.6c0-0.1-0.1-0.2-0.2-0.2c-0.1,0-0.2,0.1-0.2,0.2v1.6
				C956.8,240.4,956.9,240.5,957,240.5z"/>
		</g>
		<g>
			<path class="st29" d="M957.7,240.5c0.1,0,0.2-0.1,0.2-0.2v-1.6c0-0.1-0.1-0.2-0.2-0.2s-0.2,0.1-0.2,0.2v1.6
				C957.5,240.4,957.6,240.5,957.7,240.5z"/>
		</g>
		<g>
			<path class="st29" d="M958.3,240.5c0.1,0,0.2-0.1,0.2-0.2v-1.6c0-0.1-0.1-0.2-0.2-0.2s-0.2,0.1-0.2,0.2v1.6
				C958.2,240.4,958.3,240.5,958.3,240.5z"/>
		</g>
	</g>
	<g>
		<rect x="930.4" y="178.3" class="st42" width="6.3" height="5.8"/>
		<rect x="931" y="178.3" class="st37" width="6.3" height="5.8"/>
		<rect x="924" y="178.3" class="st33" width="6.4" height="5.8"/>
	</g>
	<g>
		<rect x="938" y="176.7" class="st30" width="7.2" height="7.5"/>
		<rect x="931.7" y="176.7" class="st33" width="6.2" height="7.5"/>
		<rect x="940.8" y="176.7" class="st37" width="1.5" height="1.1"/>
	</g>
	<rect x="938.6" y="182.1" class="st43" width="2.4" height="1.6"/>
	<polygon class="st43" points="939,200.8 935.3,201.6 935.3,198.8 938.5,198.2 	"/>
	<polygon class="st38" points="935.3,198.8 935.3,201.6 935,201.7 934.5,199 	"/>
</g>
<path class="st1" d="M502.1,52.4L502.1,52.4c23.8,0,43.1,19.3,43.1,43.1v0c0,23.8-19.3,43.1-43.1,43.1h0
	c-23.8,0-43.1-19.3-43.1-43.1v0C459,71.7,478.3,52.4,502.1,52.4z"/>
<path class="st2" d="M886.6,59L886.6,59c19.9,0,36,16.1,36,36v0c0,19.9-16.1,36-36,36h0c-19.9,0-36-16.1-36-36v0
	C850.6,75.1,866.8,59,886.6,59z"/>
<g>
	<g>
		<path class="st44" d="M887.3,113.2h-17.7c-0.6,0-1.1-0.5-1.1-1.1V89.6c0-0.6,0.5-1.1,1.1-1.1h17.7c0.6,0,1.1,0.5,1.1,1.1v22.5
			C888.4,112.7,887.8,113.2,887.3,113.2z"/>
		<path class="st45" d="M886.4,112.5h-16c-0.5,0-1-0.4-1-1V90.2c0-0.5,0.4-1,1-1h16c0.5,0,1,0.4,1,1v21.3
			C887.4,112,886.9,112.5,886.4,112.5z"/>
		<rect x="880.6" y="89.2" class="st45" width="5.4" height="23.3"/>
		<path class="st46" d="M884.2,87.4h-15.8v25.8h15.8c0.6,0,1.1-0.5,1.1-1.1V88.5C885.3,87.9,884.8,87.4,884.2,87.4z"/>
		<path class="st44" d="M868.8,87.4h-2.3c-0.6,0-1.1,0.5-1.1,1.1v23.6c0,0.6,0.5,1.1,1.1,1.1h2.3V87.4z"/>
		<path class="st45" d="M881.9,96.8h-10.5c-0.5,0-1-0.4-1-1v-0.9c0-0.5,0.4-1,1-1h10.5c0.5,0,1,0.4,1,1v0.9
			C882.9,96.4,882.5,96.8,881.9,96.8z"/>
	</g>
	<g>
		<g>
			<g>
				<path class="st14" d="M887.2,106.2h-12.8c-0.5,0-0.8,0.4-0.8,0.8v5.5c0,0.5,0.4,0.8,0.8,0.8h12.8V106.2z"/>
				<path class="st47" d="M888.7,111.9v-4.3c0-0.3,0.2-0.5,0.5-0.5H908c0.3,0,0.5-0.2,0.5-0.5l0,0c0-0.3-0.2-0.5-0.5-0.5h-22
					c-0.5,0-0.8,0.4-0.8,0.8v5.5c0,0.5,0.4,0.8,0.8,0.8h22c0.3,0,0.5-0.2,0.5-0.5l0,0c0-0.3-0.2-0.5-0.5-0.5h-18.9
					C888.9,112.4,888.7,112.2,888.7,111.9z"/>
				<path class="st45" d="M907.6,112.4H888c-0.8,0-1.6-0.7-1.6-1.6v-2.1c0-0.8,0.7-1.6,1.6-1.6h19.6V112.4z"/>
				<path class="st19" d="M886.5,110.6v0.2c0,0.8,0.7,1.6,1.6,1.6h19.6v-1.8H886.5z"/>
			</g>
			<rect x="875.5" y="108.6" class="st48" width="7.3" height="2.5"/>
		</g>
		<g>
			<g>
				<path class="st8" d="M890.4,101h-12.8c-0.5,0-0.8,0.4-0.8,0.8v3.6c0,0.5,0.4,0.8,0.8,0.8h12.8V101L890.4,101z"/>
				<path class="st34" d="M891.9,104.9v-2.5c0-0.3,0.2-0.5,0.5-0.5h18.9c0.3,0,0.5-0.2,0.5-0.5l0,0c0-0.3-0.2-0.5-0.5-0.5h-22
					c-0.5,0-0.8,0.4-0.8,0.8v3.6c0,0.5,0.4,0.8,0.8,0.8h22c0.3,0,0.5-0.2,0.5-0.5l0,0c0-0.3-0.2-0.5-0.5-0.5h-18.9
					C892.1,105.3,891.9,105.1,891.9,104.9z"/>
				<path class="st45" d="M910.8,105.3h-19.6c-0.8,0-1.6-0.7-1.6-1.6v-0.3c0-0.8,0.7-1.6,1.6-1.6h19.6l0,0V105.3z"/>
				<path class="st19" d="M889.7,103.5v0.2c0,0.8,0.7,1.6,1.6,1.6h19.6v-1.8H889.7L889.7,103.5z"/>
			</g>
		</g>
		<polygon class="st14" points="878.5,106.3 879.5,106.3 879.5,101 879.5,101 878.5,101 878.5,101 		"/>
	</g>
	<g>
		<g>
			<path class="st11" d="M875,88.7c1.8,0.7,3.2,1.6,4.3,2.4c1.3,0.1,3,0.5,4.8,1.2c1.8,0.7,3.2,1.6,4.3,2.4l3-7.7l-18.1-7.1l-3,7.7
				C871.5,87.6,873.2,88,875,88.7z"/>
			<path class="st49" d="M871.3,84.7c8.4,0.5,16.5,2.8,19.5,3.8l0.6-1.5l-18.2-7.2L871.3,84.7z"/>
			<path class="st49" d="M898.3,90.5l-32.6-12.8c-0.4-0.2-0.6-0.7-0.5-1l0,0c0.2-0.4,0.7-0.6,1-0.5L898.9,89c0.4,0.2,0.6,0.7,0.5,1
				l0,0C899.3,90.4,898.8,90.7,898.3,90.5z"/>
			
				<rect x="870.3" y="82.5" transform="matrix(0.9305 0.3663 -0.3663 0.9305 91.8448 -317.4153)" class="st11" width="24" height="1.7"/>
		</g>
		<g>
			<path class="st8" d="M891.8,95c0,0,0.2,0.2,0.1,0.6c-0.2,0.4-0.5,1.2-0.5,1.2l-0.4-0.2l0,0l-0.4-0.2c0,0,0.3-0.7,0.5-1.2
				c0.2-0.4,0.4-0.4,0.4-0.4L891.8,95z"/>
			
				<rect x="891.2" y="94.5" transform="matrix(0.9305 0.3663 -0.3663 0.9305 96.6726 -320.0565)" class="st34" width="1" height="0.4"/>
			<path class="st8" d="M891.7,94.8L891.7,94.8c-0.1-0.1-0.2-0.2-0.1-0.3l2.9-7.4c0.1-0.1,0.2-0.2,0.3-0.1l0,0
				c0.1,0.1,0.2,0.2,0.1,0.3l-2.9,7.4C892,94.8,891.8,94.8,891.7,94.8z"/>
		</g>
	</g>
</g>
<g>
	<path class="st50" d="M530.3,85.8c1.1,3,1.6,6.3,1.6,9.6c0,14.4-10.4,26.4-24.1,28.9"/>
	<path class="st51" d="M529.1,82.9"/>
	<path class="st50" d="M476.9,81.1c5-9,14.6-15,25.6-15c10.5,0,19.7,5.5,24.9,13.8"/>
	<path class="st51" d="M476,82.9"/>
	<path class="st50" d="M497.3,124.3c-13.7-2.5-24.1-14.5-24.1-28.9c0-2.6,0.4-5.2,1-7.6"/>
	<g id="woman_7_">
		<g>
			<path class="st52" d="M507.3,97.4l-2-0.1c0,0,0-1.3,0-2.3v-1.1H500V95c0,1,0,2.3,0,2.3l-2,0.1l-1.3,8.3h12L507.3,97.4z"/>
			<polygon class="st52" points="500,94.2 500,95.6 505.2,97.3 505.2,94.2 			"/>
		</g>
		<path class="st46" d="M514.7,112.5h-24.2c0.1-2.6,0.1-4.9,0.3-5.6v-0.1c0.3-2.5,0.6-5.5,2.8-7.6c1.3-1.2,2.8-1.6,4.3-1.8
			c0.1,0,0.3,0,0.4,0c-0.1,1.1,0,5.7,4.4,5.7s4.4-4.6,4.4-5.7c0.1,0,0.3,0,0.4,0c1.5,0.1,3,0.6,4.3,1.8c2.2,2,2.5,5.2,2.8,7.6v0.1
			C514.6,107.7,514.6,109.9,514.7,112.5z"/>
		<g>
			<path class="st6" d="M499.3,94.7c1.1,0,3.7,0.2,5.9,0c1.6-0.1,3.2-0.7,4.1-1.9c5.9-7.6-2.3-18.6-10.7-18.4
				C492.4,74.5,490.8,94.7,499.3,94.7z"/>
			<g>
				<path class="st52" d="M508.6,84.9v-2.7c0-2.9-3.3-6.5-6-6.5c-2.6,0-6,3.7-6,6.5v2.7c-0.7,0-1.3,0.6-1.3,1.3v1.3
					c0,0.7,0.6,1.3,1.3,1.3c0,2.9,3.3,6.6,6,6.6c2.6,0,6-3.7,6-6.6c0.7,0,1.3-0.6,1.3-1.3v-1.3C509.9,85.5,509.3,84.9,508.6,84.9z"
					/>
				<path class="st53" d="M502.6,90.7v4.8c2.6,0,6-3.7,6-6.6c0.7,0,1.3-0.6,1.3-1.3v-1.3c0-0.7-0.6-1.3-1.3-1.3v-2.7
					c0-2.9-3.3-6.5-6-6.5v10.6c-1,2-1.3,4.2-1.3,4.2L502.6,90.7z"/>
				<g>
					<g>
						<circle class="st54" cx="499.4" cy="86.7" r="1.1"/>
						<circle class="st6" cx="499.4" cy="86.5" r="1.1"/>
						<circle class="st7" cx="499.7" cy="86.1" r="0.3"/>
						<path class="st6" d="M500.7,85.6c-0.2-0.4-0.7-0.8-1.2-0.8c-0.4-0.1-0.9,0-1.5,0.7h-0.1c-0.1,0-0.1,0-0.2-0.1
							c-0.1-0.1-0.3-0.2-0.3-0.2s0,0-0.1,0c0,0,0,0,0,0.1c0,0,0,0.1,0.1,0.1c0.1,0.1,0.1,0.1,0.1,0.2c0.1,0.1,0.1,0.1,0.2,0.1
							c0.1,0,0.1,0,0.1,0.1h0.1c0.1,0,0.1,0,0.1-0.1c0.4-0.5,0.8-0.7,1.3-0.6c0.4,0.1,0.8,0.4,1,0.7c0,0.1,0.1,0.1,0.1,0.1
							C500.6,85.8,500.7,85.7,500.7,85.6z"/>
					</g>
					<g>
						<circle class="st54" cx="505.9" cy="86.7" r="1.1"/>
						<circle class="st6" cx="505.9" cy="86.5" r="1.1"/>
						<circle class="st7" cx="506.2" cy="86.1" r="0.3"/>
						<path class="st6" d="M504.6,85.6c0.2-0.4,0.7-0.8,1.2-0.8c0.4-0.1,0.9,0,1.5,0.7h0.1c0.1,0,0.1,0,0.2-0.1
							c0.1-0.1,0.3-0.2,0.3-0.2s0,0,0.1,0c0,0,0,0,0,0.1c0,0,0,0.1-0.1,0.1c-0.1,0.1-0.1,0.1-0.1,0.2c-0.1,0.1-0.1,0.1-0.2,0.1
							s-0.1,0-0.1,0.1h-0.1c-0.1,0-0.1,0-0.1-0.1c-0.4-0.5-0.8-0.7-1.3-0.6c-0.4,0.1-0.8,0.4-1,0.7c0,0.1-0.1,0.1-0.1,0.1
							C504.6,85.8,504.6,85.7,504.6,85.6z"/>
					</g>
				</g>
			</g>
			<g>
				<path class="st55" d="M504.7,91.7c0,1.1-0.9,1.8-2.1,1.8c-1.1,0-2.1-0.8-2.1-1.8H504.7z"/>
				<path class="st7" d="M504.1,92.3h-3c-0.1,0-0.3-0.1-0.3-0.3v-0.4h3.5v0.4C504.3,92.3,504.3,92.3,504.1,92.3z"/>
			</g>
			<g>
				<path class="st56" d="M496.4,90.3c-0.1,0-0.3-0.1-0.3-0.3v-1.1c0-0.1,0.1-0.3,0.3-0.3c0.1,0,0.3,0.1,0.3,0.3V90
					C496.6,90.1,496.6,90.3,496.4,90.3z"/>
				<path class="st56" d="M508.8,90.3c-0.1,0-0.3-0.1-0.3-0.3v-1.1c0-0.1,0.1-0.3,0.3-0.3c0.1,0,0.3,0.1,0.3,0.3V90
					C509.1,90.1,509,90.3,508.8,90.3z"/>
			</g>
			<path class="st6" d="M505.8,82.3c0.2,0.6,0.5,1.5,1.1,2c-1.8-0.4-3.2-1.5-4.4-2.8c0.1,0.6,0.5,1.3,1.1,2
				c-0.5-0.2-0.9-0.5-1.4-0.8c-1-0.7-1.8-1.6-2.5-2.5c-1.1,2.1-2.7,5-4,5.1c-1.8-3.6-1.3-11.1,6.5-11.4c9.6-0.3,9.3,10,8.6,12.5
				C508.9,85.8,506.2,82.9,505.8,82.3z"/>
		</g>
	</g>
	<polygon class="st56" points="468.7,91.7 474.9,84.6 477.9,93.6 	"/>
	<polygon class="st56" points="527.1,72.8 529.1,82.1 520.1,79.1 	"/>
	<polygon class="st56" points="501.4,125.4 508.4,119 510.5,128.3 	"/>
</g>
<g>
	<g>
		<g id="_Group_6">
			<path id="_Path_4" class="st12" d="M595.4,96.1c-3.1,0-5.5,2.5-5.5,5.5l0,0l0,0v138.7c0,3.1,2.5,5.6,5.5,5.6l0,0h215
				c3.1,0,5.5-2.5,5.5-5.5l0,0V101.7c0-3.1-2.5-5.5-5.5-5.5l0,0L595.4,96.1L595.4,96.1z"/>
			<path id="_Path_5" class="st57" d="M577.4,252.3h250.7c6.6,0,11.9-5.3,12-12H565.5C565.6,247,570.8,252.3,577.4,252.3z"/>
			<path id="_Path_6" class="st58" d="M567.4,246.8c2.2,3.5,5.9,5.5,10,5.5h250.7c4.1,0.1,7.9-2,10-5.5H567.4z"/>
			<circle id="_Path_7" class="st59" cx="587.1" cy="243.4" r="1.3"/>
			<circle id="_Path_8" class="st59" cx="583.6" cy="243.4" r="1.3"/>
			<circle id="_Path_9" class="st59" cx="579.7" cy="243.4" r="1.3"/>
		</g>
		<g id="_Group_2-2">
			<rect x="599.1" y="105.1" class="st2" width="207.5" height="129.3"/>
		</g>
		<rect x="599.1" y="105.1" class="st14" width="207.6" height="9.6"/>
	</g>
	<rect x="599.1" y="113.6" class="st1" width="207.6" height="52.9"/>
	<g>
		<rect x="599.1" y="113.2" class="st2" width="207.5" height="118.6"/>
		<rect x="607" y="122.6" class="st47" width="92.8" height="41.4"/>
		<rect x="607" y="173.6" class="st1" width="41.7" height="49.7"/>
		<rect x="658.5" y="173.6" class="st1" width="41.7" height="49.7"/>
		<rect x="758.3" y="122.6" class="st1" width="40.7" height="41.4"/>
		<rect x="757.8" y="173.6" class="st1" width="40.7" height="49.7"/>
		<rect x="709.4" y="122.6" class="st1" width="39.2" height="101.3"/>
		<g>
			<rect x="762.4" y="202" class="st2" width="15.7" height="15.7"/>
			<g>
				<circle class="st60" cx="770.3" cy="206" r="2.2"/>
				<path class="st60" d="M770.3,213.6c1.8,0,3.4-1,4.3-2.6c-0.9-1.3-2.3-2-3.8-2h-0.9c-1.5,0-2.9,0.8-3.8,2
					C766.9,212.6,768.5,213.6,770.3,213.6z"/>
			</g>
			<rect x="762.4" y="215" class="st14" width="15.7" height="2.8"/>
		</g>
		<g>
			<rect x="762.4" y="180.3" class="st2" width="15.7" height="15.7"/>
			<g>
				<circle class="st60" cx="770.3" cy="184.3" r="2.2"/>
				<path class="st60" d="M770.3,191.9c1.8,0,3.4-1,4.3-2.6c-0.9-1.3-2.3-2-3.8-2h-0.9c-1.5,0-2.9,0.8-3.8,2
					C766.9,190.9,768.5,191.9,770.3,191.9z"/>
			</g>
			<rect x="762.4" y="193.3" class="st14" width="15.7" height="2.8"/>
		</g>
		<rect x="780.7" y="184.3" class="st61" width="13.3" height="2.2"/>
		<rect x="780.7" y="189.2" class="st61" width="13.3" height="2.2"/>
		<rect x="780.7" y="206.4" class="st61" width="13.3" height="2.2"/>
		<rect x="780.7" y="211.2" class="st61" width="13.3" height="2.2"/>
		<g>
			<rect x="762.4" y="129.2" class="st14" width="6.3" height="6.3"/>
			<rect x="762.4" y="140.8" class="st46" width="6.3" height="6.3"/>
			<rect x="762.4" y="152.1" class="st8" width="6.3" height="6.3"/>
			<rect x="771.9" y="129.8" class="st14" width="18" height="1.9"/>
			<rect x="771.9" y="133.2" class="st61" width="23.9" height="1.9"/>
			<rect x="771.9" y="141.3" class="st46" width="18" height="1.9"/>
			<rect x="771.9" y="144.7" class="st61" width="23.9" height="1.9"/>
			<rect x="771.9" y="152.6" class="st8" width="18" height="1.9"/>
			<rect x="771.9" y="156" class="st61" width="23.9" height="1.9"/>
		</g>
		<g>
			<rect x="712.4" y="129.3" class="st14" width="6.3" height="6.3"/>
			<rect x="712.4" y="140.8" class="st46" width="6.3" height="6.3"/>
			<rect x="712.4" y="152.1" class="st60" width="6.3" height="6.3"/>
			<rect x="721.9" y="129.8" class="st14" width="18" height="1.9"/>
			<rect x="721.9" y="133.2" class="st61" width="23.9" height="1.9"/>
			<rect x="721.9" y="141.3" class="st46" width="18" height="1.9"/>
			<rect x="721.9" y="144.7" class="st61" width="23.9" height="1.9"/>
			<rect x="721.9" y="152.6" class="st60" width="18" height="1.9"/>
			<rect x="721.9" y="156" class="st61" width="23.9" height="1.9"/>
		</g>
		<g>
			<rect x="611.2" y="178.1" class="st14" width="6.3" height="6.3"/>
			<rect x="611.2" y="189.6" class="st46" width="6.3" height="6.3"/>
			<rect x="611.2" y="200.9" class="st8" width="6.3" height="6.3"/>
			<rect x="620.7" y="178.6" class="st14" width="18" height="1.9"/>
			<rect x="620.7" y="182" class="st61" width="23.9" height="1.9"/>
			<rect x="620.7" y="190.2" class="st46" width="18" height="1.9"/>
			<rect x="620.7" y="193.6" class="st61" width="23.9" height="1.9"/>
			<rect x="620.7" y="201.5" class="st8" width="18" height="1.9"/>
			<rect x="620.7" y="204.9" class="st61" width="23.9" height="1.9"/>
		</g>
		<g>
			<rect x="712.4" y="163.5" class="st14" width="6.3" height="6.3"/>
			<rect x="712.4" y="175" class="st46" width="6.3" height="6.3"/>
			<rect x="712.4" y="186.3" class="st8" width="6.3" height="6.3"/>
			<rect x="721.9" y="164" class="st14" width="18" height="1.9"/>
			<rect x="721.9" y="167.4" class="st61" width="23.9" height="1.9"/>
			<rect x="721.9" y="175.5" class="st46" width="18" height="1.9"/>
			<rect x="721.9" y="178.9" class="st61" width="23.9" height="1.9"/>
			<rect x="721.9" y="186.8" class="st8" width="18" height="1.9"/>
			<rect x="721.9" y="190.2" class="st61" width="23.9" height="1.9"/>
		</g>
		<g>
			<rect x="712.4" y="198.1" class="st14" width="6.3" height="6.3"/>
			<rect x="712.4" y="209.7" class="st46" width="6.3" height="6.3"/>
			<rect x="721.9" y="198.7" class="st14" width="18" height="1.9"/>
			<rect x="721.9" y="202.1" class="st61" width="23.9" height="1.9"/>
			<rect x="721.9" y="210.2" class="st46" width="18" height="1.9"/>
			<rect x="721.9" y="213.6" class="st61" width="23.9" height="1.9"/>
		</g>
		<circle class="st61" cx="621.2" cy="139.4" r="7.5"/>
		<g>
			<rect x="635.3" y="134.3" class="st61" width="20.9" height="2.2"/>
			<rect x="635.3" y="138.2" class="st1" width="57.9" height="2.2"/>
			<rect x="635.3" y="142.3" class="st1" width="36.7" height="2.2"/>
		</g>
		<rect x="611.2" y="212.2" class="st60" width="6.3" height="6.3"/>
		<rect x="620.7" y="212.8" class="st60" width="18" height="1.9"/>
		<rect x="620.7" y="216.2" class="st61" width="23.9" height="1.9"/>
		<path class="st56" d="M657.3,157h-18.8c-1.8,0-3.2-1.4-3.2-3.2l0,0c0-1.8,1.4-3.2,3.2-3.2h18.8c1.8,0,3.2,1.4,3.2,3.2l0,0
			C660.5,155.6,659,157,657.3,157z"/>
		<rect x="665.9" y="179" class="st14" width="26.9" height="26.9"/>
		<rect x="664.2" y="210.3" class="st61" width="30.3" height="1.9"/>
		<rect x="664.2" y="213.6" class="st61" width="20.1" height="1.9"/>
		<rect x="664.2" y="216.8" class="st61" width="25.4" height="1.9"/>
	</g>
	<g>
		<g>
			<path class="st62" d="M676.7,274.2H559.3c-1.9,0-3.4-1.5-3.4-3.4v-81.9c0-1.9,1.5-3.4,3.4-3.4h117.4c1.9,0,3.4,1.5,3.4,3.4v81.9
				C680,272.6,678.5,274.2,676.7,274.2z"/>
			<g>
				<defs>
					<path id="SVGID_1_" d="M672.2,270.8H563.7c-1.7,0-3.1-1.4-3.1-3.1v-75.7c0-1.7,1.4-3.1,3.1-3.1h108.5c1.7,0,3.1,1.4,3.1,3.1
						v75.7C675.3,269.4,673.9,270.8,672.2,270.8z"/>
				</defs>
				<use xlink:href="#SVGID_1_"  style="overflow:visible;fill:#AFD8F2;"/>
				<clipPath id="SVGID_2_">
					<use xlink:href="#SVGID_1_"  style="overflow:visible;"/>
				</clipPath>
				<rect x="553.6" y="188" class="st63" width="124.3" height="8.7"/>
			</g>
			<g>
				<rect x="619.6" y="226.4" class="st1" width="47.9" height="18.7"/>
				<g>
					<rect x="625.2" y="229.4" class="st14" width="4.5" height="4.5"/>
					<rect x="625.2" y="237.7" class="st14" width="4.5" height="4.5"/>
					<rect x="632" y="229.8" class="st14" width="12.9" height="1.3"/>
					<rect x="632" y="232.2" class="st19" width="29.8" height="1.3"/>
					<rect x="632" y="238.1" class="st14" width="12.9" height="1.3"/>
					<rect x="632" y="240.5" class="st19" width="24.6" height="1.3"/>
				</g>
			</g>
			<g>
				<rect x="568.6" y="226.4" class="st1" width="46.8" height="18.7"/>
				<g>
					<rect x="574.1" y="229.5" class="st46" width="4.5" height="4.5"/>
					<rect x="574.1" y="237.8" class="st46" width="4.5" height="4.5"/>
					<rect x="581" y="229.9" class="st46" width="12.9" height="1.3"/>
					<rect x="581" y="232.3" class="st19" width="28.8" height="1.3"/>
					<rect x="581" y="238.2" class="st46" width="12.9" height="1.3"/>
					<rect x="581" y="240.6" class="st19" width="25.5" height="1.3"/>
				</g>
			</g>
			<g>
				<g>
					<rect x="568.6" y="249.7" class="st1" width="47.2" height="13"/>
				</g>
				<circle class="st8" cx="576.4" cy="256.3" r="3.7"/>
				<g>
					<rect x="583.3" y="253.8" class="st14" width="10.2" height="1.1"/>
					<rect x="583.3" y="255.8" class="st19" width="28.5" height="1.1"/>
					<rect x="583.3" y="257.8" class="st19" width="18" height="1.1"/>
				</g>
			</g>
			<g>
				<rect x="568.6" y="199.9" class="st47" width="98.9" height="21.5"/>
				<rect x="592.1" y="207.2" class="st64" width="30.2" height="1.4"/>
				<rect x="592.1" y="210.4" class="st64" width="43.6" height="1.4"/>
				<rect x="592.1" y="213.6" class="st64" width="35.3" height="1.4"/>
			</g>
			<g>
				<g>
					<rect x="619.6" y="249.7" class="st1" width="47.9" height="13"/>
				</g>
				<circle class="st46" cx="628" cy="256.3" r="3.7"/>
				<g>
					<rect x="634.9" y="253.8" class="st46" width="10.2" height="1.1"/>
					<rect x="634.9" y="255.8" class="st19" width="28.5" height="1.1"/>
					<rect x="634.9" y="257.8" class="st19" width="18" height="1.1"/>
				</g>
			</g>
			<rect x="568.6" y="267" class="st1" width="98.9" height="3.7"/>
		</g>
		<circle class="st61" cx="580.1" cy="210.9" r="5.9"/>
		<path class="st56" d="M659.8,213.4h-13.6c-1.3,0-2.3-1-2.3-2.3l0,0c0-1.3,1-2.3,2.3-2.3h13.6c1.3,0,2.3,1,2.3,2.3l0,0
			C662.1,212.3,661.1,213.4,659.8,213.4z"/>
		<rect x="623.7" y="252.6" class="st46" width="8" height="8"/>
		<rect x="572.1" y="252.6" class="st14" width="8" height="8"/>
	</g>
	<g>
		<g>
			<path class="st14" d="M712,293.8c-0.3,0-0.7,0-1.1-0.1c-11.4-2.1-23-4.1-34.3-6.1l-5.1-0.9c-2.2-0.5-3.1-1.8-2.9-3.8v-54.6
				c0-2.2,1-3.4,3.2-3.6l5.1-0.9c11.2-2,22.8-4,34.1-6.1c0.4-0.1,0.8-0.1,1.1-0.1c2.5,0,2.5,2.3,2.5,3.1v69.9
				C714.6,291.4,714.6,293.8,712,293.8z M683.9,266.2c0,2.5,0,2.5,2.5,3.1c1.1,0.3,2.1,0.4,3,0.4c3.8,0,6.1-2.2,6.8-6.3
				c0.4-3-0.7-5.4-3.2-7.4c-0.4-0.3-0.9-0.6-1.5-1c-1.1-0.7-2.1-1.4-3.1-2.2c-2-1.6-2.7-3.9-1.7-6.1c1.3-2.9,4.2-2.9,5.2-2.9h0.1
				l0.1,0c1,0.1,2,0.4,2.9,0.8v-2.8c0,0-0.1,0-0.1,0c-1-0.4-2.1-0.7-3.2-0.7c-3.8,0-7.1,2.6-7.7,6.1c-0.8,3.6,0.4,6.4,3.5,8.7
				c0.4,0.3,0.8,0.6,1.3,0.9c0.9,0.6,1.9,1.3,2.8,2.2c1.6,1.6,2.1,3.8,1.2,5.9l-0.1,0.1c-0.7,1.5-2.2,2.3-4,2.3
				c-0.5,0-1-0.1-1.5-0.2c-1.3-0.2-2.4-0.7-3.4-1.4V266.2z"/>
			<path class="st7" d="M712.1,219c0.9,0,1,0.5,1,1.6c0,11.9,0,23.6,0,35.3c0,11.6,0,23.1,0,34.7c0,1.2-0.1,1.8-1.1,1.8
				c-0.2,0-0.5,0-0.9-0.1c-13.1-2.4-26.3-4.7-39.4-7c-1.4-0.3-1.8-0.9-1.7-2.3c0-18.2,0-36.5,0-54.7c0-1.5,0.5-2,1.8-2.1
				c13.1-2.3,26.3-4.6,39.4-7C711.6,219.1,711.9,219,712.1,219 M688.7,265.9c-0.4,0-0.8,0-1.2-0.1c-2-0.3-3.3-1.5-5.2-2.9
				c0,1.4,0,2.3,0,3.3c0,3.3,0.3,3.8,3.6,4.6c1.2,0.3,2.3,0.4,3.3,0.4c4.5,0,7.5-2.6,8.2-7.6c0.5-3.6-0.9-6.5-3.8-8.8
				c-1.5-1.1-3.2-2.1-4.6-3.2c-1.4-1.1-2-2.6-1.2-4.3c0.8-1.7,2.3-2,3.8-2c1.5,0.2,2.9,0.9,4.6,1.8c0-2,0-3.6,0-5.5
				c0-0.6-0.3-0.9-0.9-1.2c-1.3-0.6-2.6-0.8-3.9-0.8c-4.3,0-8.4,2.9-9.2,7.4c-0.9,4.3,0.6,7.6,4.1,10.2c1.2,0.9,2.7,1.7,4,2.9
				c1.2,1.2,1.5,2.7,0.9,4.3C690.8,265.5,689.8,265.9,688.7,265.9 M712.1,216L712.1,216c-0.4,0-0.8,0-1.4,0.1
				c-11.4,2.1-23,4.1-34.3,6.1l-5,0.9c-2.9,0.4-4.4,2.1-4.4,5.1v54.6c-0.2,2.8,1.2,4.7,4,5.4l0.1,0l0.1,0l5.1,0.9
				c11.3,2,22.9,4,34.3,6.1l0,0l0,0c0.5,0.1,1,0.1,1.4,0.1c1.2,0,4.1-0.5,4.1-4.8v-34.7l0-35.3C716.1,216.5,713.3,216,712.1,216
				L712.1,216z M694.7,262.8c0-1.7-0.7-3.4-2.1-4.8c-1-1-2.1-1.7-3.1-2.4c-0.4-0.3-0.8-0.6-1.2-0.8c-0.7-0.5-1.3-1-1.7-1.6
				c0.3,0.3,0.5,0.5,0.8,0.7c1,0.8,2.1,1.5,3.2,2.2c0.5,0.3,1,0.7,1.4,1C694,258.8,694.8,260.6,694.7,262.8L694.7,262.8z"/>
		</g>
		<g>
			<path class="st14" d="M722.3,284.1c-1.5,0-3-0.4-4.5-1.3c-1.5-0.8-2.2-2.1-2-3.7c0.1-2.5,0.1-5,0-7.7c0-1.5,0.6-2.6,1.7-3.3
				c1.4-1,3.1-1.5,4.9-1.5c1.9,0,3.7,0.6,5.1,1.8c0.3,0.2,0.5,0.3,0.5,0.3c0,0,0.1,0,0.3-0.2c2.7-1.5,4.6-3.6,6-6.3
				c0.2-0.4,0.2-0.5-0.1-1.1c-2.5-3.4-2.4-7.1,0.1-10.5c0.3-0.3,0.3-0.4,0-1c-1.3-2.7-3.2-4.6-5.9-6.2c-0.1,0-0.5-0.2-0.6-0.2
				c0,0-0.1,0-0.2,0.2c-1.8,1.8-4.1,2-5.8,2c-4.2-0.2-6.1-2.2-6.1-6.4v-2.4c0-0.4,0-0.8,0-1.1c0-0.6,0.1-1.2,0-1.6
				c-0.5-2.6,0.7-4.5,3.7-5.5c0.9-0.3,1.9-0.5,2.9-0.5c4.6,0,8.4,3.7,8.5,8.4c0,0.7,0,0.8,0.7,1.1c4.1,2,7.1,5.1,8.9,9.2
				c0.3,0.8,0.4,0.8,0.9,0.8c4.8,0.2,8.3,3.9,8.3,8.6c0,4.8-3.6,8.6-8.3,8.8c-0.7,0-0.8,0-1.2,0.7c-1.9,4-4.8,7-8.8,9.1
				c-0.7,0.4-0.7,0.6-0.7,1.1c0,3.4-1.6,6-4.6,7.6C724.9,283.7,723.6,284.1,722.3,284.1z"/>
			<path class="st7" d="M722.5,229c3.7,0,6.9,3,7,7c0,1.2,0.3,1.8,1.5,2.4c3.8,1.8,6.5,4.7,8.2,8.5c0.5,1.1,0.9,1.7,2.3,1.7
				c4,0.2,6.8,3.2,6.8,7.1c0,4-2.9,7.1-6.8,7.3c-1.4,0-1.8,0.5-2.4,1.5c-1.8,3.8-4.6,6.5-8.2,8.5c-1.1,0.6-1.5,1.2-1.5,2.4
				c0,2.7-1.2,4.9-3.8,6.2c-1.1,0.6-2.2,0.8-3.2,0.8c-1.3,0-2.5-0.4-3.7-1.1c-0.9-0.5-1.4-1.2-1.2-2.3c0.2-2.6,0.2-5.2,0-7.9
				c0-0.9,0.3-1.5,1.1-2c1.1-0.8,2.6-1.3,4-1.3c1.5,0,2.9,0.5,4.2,1.4c0.6,0.4,1,0.6,1.4,0.6c0.4,0,0.7-0.2,1.2-0.4
				c2.9-1.7,5-4,6.5-6.8c0.5-0.9,0.5-1.5-0.2-2.6c-2.1-2.9-2.1-5.9,0-8.8c0.8-0.9,0.6-1.7,0.2-2.6c-1.5-3-3.6-5.2-6.5-6.8
				c-0.5-0.2-0.9-0.4-1.4-0.4c-0.4,0-0.8,0.2-1.2,0.6c-1.2,1.2-2.9,1.5-4.7,1.5c-3.3-0.2-4.6-1.5-4.6-4.9c0-0.8,0-1.7,0-2.4
				c0-1.1,0.2-2.1,0-3c-0.5-2.3,0.9-3.2,2.7-3.8C720.9,229.2,721.7,229,722.5,229 M722.5,226L722.5,226c-1.2,0-2.3,0.2-3.4,0.6
				c-4.9,1.7-5.1,5.2-4.7,7.2c0,0.3,0,0.8,0,1.3c0,0.4,0,0.8,0,1.2v2.4c0,5,2.5,7.6,7.4,7.9l0.1,0h0.1c1.7,0,4.2-0.2,6.2-1.8
				c2.2,1.3,3.7,3,4.8,5.1c-2.6,3.7-2.6,8,0,11.7c-1.2,2.2-2.8,3.9-4.9,5.2c-1.6-1.2-3.6-1.8-5.6-1.8c-2.1,0-4.1,0.6-5.7,1.8
				c-1.1,0.7-2.4,2.1-2.4,4.5v0.1l0,0.1c0.1,2.6,0.1,5,0,7.5c-0.3,2.2,0.8,4.1,2.8,5.2c1.7,1,3.4,1.5,5.2,1.5c1.5,0,3.1-0.4,4.6-1.1
				l0,0l0,0c3.5-1.8,5.3-4.8,5.4-8.7c4.2-2.3,7.3-5.5,9.3-9.6c5.5-0.2,9.7-4.7,9.7-10.3c0-5.5-4-9.8-9.4-10.1
				c-2-4.4-5.1-7.7-9.4-9.8C732.3,230.3,727.9,226,722.5,226L722.5,226z"/>
		</g>
	</g>
</g>
<g>
	<path class="st2" d="M627.2-8.8L627.2-8.8c25.2,0,45.7,20.5,45.7,45.7v0c0,25.2-20.5,45.7-45.7,45.7h0c-25.2,0-45.7-20.5-45.7-45.7
		v0C581.5,11.7,602-8.8,627.2-8.8z"/>
	<g>
		<g id="woman_15_">
			<g>
				<path class="st52" d="M646.5,50.9l-1.5-0.1c0,0,0-1,0-1.8v-0.8h-4V49c0,0.7,0,1.8,0,1.8l-1.5,0.1l-1,6.3h9.1
					C647.5,57.2,646.5,50.9,646.5,50.9z"/>
				<polygon class="st52" points="641,48.4 641,49.3 644.9,50.7 644.9,48.4 				"/>
			</g>
			<path class="st8" d="M652.2,62.3h-18.4c0.1-2,0.1-3.6,0.2-4.2V58c0.2-1.9,0.5-4.2,2.1-5.8c1-0.9,2.1-1.2,3.3-1.3
				c0.1,0,0.2,0,0.3,0c-0.1,0.8,0,4.4,3.3,4.4c3.3,0,3.4-3.5,3.3-4.4c0.1,0,0.2,0,0.3,0c1.1,0.1,2.4,0.4,3.3,1.3
				c1.6,1.6,1.9,3.9,2.1,5.8v0.1C652.1,58.7,652.1,60.3,652.2,62.3z"/>
			<g>
				<path class="st6" d="M640.1,44.3c-3.6-1.4-4,3.1-3.8,5.9c0.3,3.3,0.1,4.7-1.1,7.9c2-1.5,4.2-2.1,4.4-6.2
					C639.6,48.4,641.1,44.7,640.1,44.3z"/>
				<g>
					<path class="st52" d="M647.5,41.4v-2.1c0-2.2-2.5-5-4.5-5s-4.5,2.8-4.5,5v2.1c-0.5,0-1,0.4-1,1v1c0,0.5,0.4,1,1,1
						c0,2.2,2.5,5,4.5,5s4.5-2.8,4.5-5c0.5,0,1-0.4,1-1v-1C648.5,41.8,648.1,41.4,647.5,41.4z"/>
					<path class="st65" d="M642.9,45.7v3.7c2,0,4.5-2.8,4.5-5c0.5,0,1-0.4,1-1v-1c0-0.5-0.4-1-1-1v-2.1c0-2.2-2.5-5-4.5-5v8
						c-0.7,1.5-1,3.2-1,3.2L642.9,45.7z"/>
					<g>
						<g>
							<circle class="st52" cx="640.5" cy="42.7" r="0.8"/>
							<circle class="st6" cx="640.5" cy="42.5" r="0.8"/>
							<circle class="st7" cx="640.8" cy="42.6" r="0.2"/>
							<path class="st6" d="M641.4,41.9c-0.1-0.4-0.5-0.6-0.9-0.6c-0.2,0-0.7,0-1.1,0.5h-0.1c-0.1,0-0.1,0-0.2-0.1
								c-0.1-0.1-0.2-0.2-0.2-0.2l0,0c0,0,0,0,0,0.1c0,0,0,0.1,0.1,0.1c0,0.1,0.1,0.1,0.1,0.2c0.1,0.1,0.1,0.1,0.2,0.1
								c0,0,0.1,0,0.1,0.1h0.1c0.1,0,0.1,0,0.1-0.1c0.2-0.4,0.6-0.5,1-0.5c0.3,0.1,0.7,0.2,0.8,0.5c0,0.1,0.1,0.1,0.1,0.1
								C641.4,42,641.5,41.9,641.4,41.9z"/>
						</g>
						<g>
							<circle class="st52" cx="645.5" cy="42.7" r="0.8"/>
							<circle class="st6" cx="645.5" cy="42.5" r="0.8"/>
							<circle class="st7" cx="645.7" cy="42.6" r="0.2"/>
							<path class="st6" d="M644.5,41.9c0.1-0.4,0.5-0.6,0.9-0.6c0.2,0,0.7,0,1.1,0.5h0.1c0.1,0,0.1,0,0.2-0.1
								c0.1-0.1,0.2-0.2,0.2-0.2l0,0c0,0,0,0,0,0.1c0,0,0,0.1-0.1,0.1c0,0.1-0.1,0.1-0.1,0.2c-0.1,0.1-0.1,0.1-0.2,0.1
								c0,0-0.1,0-0.1,0.1h-0.1c-0.1,0-0.1,0-0.1-0.1c-0.2-0.4-0.6-0.5-1-0.5c-0.4,0.1-0.7,0.2-0.8,0.5c0,0.1-0.1,0.1-0.1,0.1
								C644.5,42,644.5,41.9,644.5,41.9z"/>
						</g>
					</g>
				</g>
				<g>
					<path class="st55" d="M644.6,46.5c0,0.8-0.7,1.4-1.6,1.4c-0.8,0-1.6-0.6-1.6-1.4H644.6z"/>
					<path class="st7" d="M644.1,47h-2.2c-0.1,0-0.2-0.1-0.2-0.2v-0.3h2.7v0.3C644.3,46.9,644.2,47,644.1,47z"/>
				</g>
				<g>
					<circle class="st66" cx="648" cy="44.3" r="0.5"/>
					<circle class="st66" cx="637.9" cy="44.3" r="0.5"/>
				</g>
				<path class="st6" d="M645.6,39.7c0.1,0.5,0.4,1.1,0.8,1.5c-1.3-0.4-2.5-1.1-3.3-2.1c0.1,0.5,0.4,1,0.8,1.5
					c-0.4-0.2-0.7-0.4-1-0.6c-0.7-0.5-1.5-1.2-1.9-1.9c-0.8,1.6-2.2,3.6-3.3,3.6c-1.5-2.8-0.4-8.8,5.1-8.8c5.6,0,6.7,5.8,5.3,8.9
					C647.2,41.6,645.9,40.2,645.6,39.7z"/>
			</g>
		</g>
		<g id="man_10_">
			<g>
				<polygon class="st52" points="616.4,51.3 615.9,51 615.9,48.6 611.1,48.6 611.1,51 610.5,51.3 610.5,58 611.1,58 611.1,59 
					615.9,59 615.9,58 616.4,58 				"/>
				<polygon class="st52" points="615.9,48.9 615.9,51 611.1,50.6 611.1,48.9 				"/>
			</g>
			<g>
				<path class="st7" d="M618.9,62.5v-9.9h-2.7c0,1.3-1.2,2.4-2.7,2.4c-1.5,0-2.7-1-2.7-2.4h-2.7v9.9H618.9z"/>
				<g>
					<path class="st14" d="M610.9,62.5V51.2c-3.9,1.5-7.7,1.6-8,3.9c-0.4,2.3-1.1,4.8-1.3,7.4H610.9z"/>
				</g>
				<g>
					<path class="st14" d="M625.5,62.5c-0.2-2.7-1-5.1-1.3-7.4c-0.4-2.2-4.2-2.4-8-3.9v11.3C616.2,62.5,625.5,62.5,625.5,62.5z"/>
				</g>
			</g>
			<g id="man_63_">
				<g>
					<path class="st54" d="M618.6,41.7l0.2-2.1c0-2.7-2.6-5-5.4-5c-2.7,0-5.4,2.2-5.4,5l0.2,2.1c-0.2,0.1-0.3,0.1-0.4,0.2
						c-0.2,0.2-0.4,0.4-0.4,0.8v1c0,0.5,0.4,1,1,1c0,2.6,3.1,5,5,5s5-2.5,5-5c0.5,0,1-0.4,1-1v-1C619.4,42.2,619.1,41.8,618.6,41.7z
						"/>
					<path class="st53" d="M618.6,41.7l0.2-2.1c0-2.7-2.6-5-5.4-5v7.1c-0.7,1.5-1.2,3.7-1.2,3.7h1.2v4.3c1.9,0,5-2.5,5-5
						c0.5,0,1-0.4,1-1v-1C619.4,42.2,619.1,41.8,618.6,41.7z"/>
					<g>
						<g>
							<circle class="st54" cx="611.2" cy="42.3" r="0.8"/>
							<circle class="st6" cx="611.2" cy="42.1" r="0.8"/>
							<circle class="st7" cx="611.4" cy="41.9" r="0.2"/>
						</g>
						<g>
							<circle class="st54" cx="615.7" cy="42.3" r="0.8"/>
							<circle class="st6" cx="615.7" cy="42.1" r="0.8"/>
							<circle class="st7" cx="616" cy="41.9" r="0.2"/>
						</g>
					</g>
				</g>
				<path class="st6" d="M619,35.9c-0.9-1.7-2.6-3.4-5.5-3.4s-4.6,1.7-5.5,3.4c-1.3,2.4-1,5.4-0.5,7.2c0.1,0.3,0.2,0.6,0.3,0.8
					c0.2,0.3,0.4,0.5,0.5,0.5c0,0.1,0,0.1,0,0.1s-0.8,5.7,5.1,5.7s5.1-5.7,5.1-5.7v-0.1c0.2,0,0.4-0.2,0.5-0.5
					c0.1-0.2,0.2-0.5,0.3-0.8C620,41.4,620.2,38.3,619,35.9z M618.5,37.4L618.5,37.4L618.5,37.4L618.5,37.4z M616.7,46.2h-6.4
					c-0.9,0-1.6-1.5-1.6-2.4v-1.3V42c0.1-0.1,0.2-0.2,0.2-0.4c0.5-1,0.9-2.3,1.2-3.1c0-0.1,0-0.1,0.1-0.1v0.1
					c0.4,1.1,1.2,1.9,2.3,2.1c-0.2-0.2-0.2-0.7-0.2-1c0.2,0.4,0.7,0.7,1.2,1c1,0.5,2.4,0.8,2.9,0.7c-0.1-0.1-0.2-0.3-0.2-0.7
					c0.5,0.6,0.8,0.8,1.5,1.1c-0.1-0.3-0.2-0.7-0.1-1.2c0,0,0.2,0.6,0.4,1.2c0.1,0.2,0.1,0.4,0.2,0.5v0.4v1.3
					C618.3,44.7,617.6,46.2,616.7,46.2z"/>
				<g>
					<path class="st55" d="M615.2,46.6c0,0.9-0.8,1.6-1.8,1.6s-1.8-0.7-1.8-1.6H615.2z"/>
					<path class="st7" d="M614.7,47.2h-2.6c-0.1,0-0.2-0.1-0.2-0.2v-0.4h3V47C614.9,47,614.8,47.2,614.7,47.2z"/>
				</g>
			</g>
		</g>
		<g>
			<g>
				<g>
					<path class="st7" d="M653.5,10.9h-21.3c-0.1,0-0.1,0.1-0.1,0.2v16.1c0,0.1,0.1,0.2,0.1,0.2h12.1l0.1,3.9c0,0.2,0.2,0.2,0.3,0.1
						l2.8-4h1.5c2.5,0,4.6-2.2,4.6-5.1V11.1C653.6,11,653.6,10.9,653.5,10.9z"/>
				</g>
				<g>
					<path class="st7" d="M600.6,11.1v11.2c0,2.8,2.1,5.1,4.6,5.1h1.5l2.8,4c0.1,0.1,0.3,0.1,0.3-0.1l0.1-3.9H622
						c0.1,0,0.1-0.1,0.1-0.2V11.1c0-0.1-0.1-0.2-0.1-0.2h-21.3C600.7,10.9,600.6,11,600.6,11.1z"/>
				</g>
			</g>
			<circle class="st14" cx="637.1" cy="18.8" r="1.3"/>
			<circle class="st14" cx="642.4" cy="18.8" r="1.3"/>
			<circle class="st14" cx="647.9" cy="18.8" r="1.3"/>
			<circle class="st14" cx="605.7" cy="18.8" r="1.3"/>
			<circle class="st14" cx="611.1" cy="18.8" r="1.3"/>
			<circle class="st14" cx="616.6" cy="18.8" r="1.3"/>
		</g>
	</g>
</g>
<g>
	<path class="st1" d="M770.5-1.7L770.5-1.7c22.9,0,41.5,18.6,41.5,41.5v0c0,22.9-18.6,41.5-41.5,41.5h0c-22.9,0-41.5-18.6-41.5-41.5
		v0C729,16.9,747.6-1.7,770.5-1.7z"/>
	<g>
		<circle class="st67" cx="771.4" cy="42.8" r="18.4"/>
		<g id="man_67_">
			<rect x="769" y="19.7" class="st68" width="5.3" height="2.3"/>
			<g>
				<rect x="769.5" y="17.9" class="st52" width="4.4" height="9.3"/>
				<polygon class="st52" points="773.9,17.9 773.9,20.1 773.8,20 769.5,18.8 769.5,17.9 				"/>
			</g>
			<g>
				<polygon class="st68" points="772.9,23.4 771.7,24.6 770.5,23.4 769.7,23.8 771,25.2 771.7,25.2 772.4,25.2 773.6,23.8 				"/>
				<path class="st14" d="M782.9,30.4c-0.3-2.3-0.9-4.5-1.2-6.4c-0.4-2.1-3.7-2.2-7.3-3.6c0,0,0.3,4.2-2.7,4.2c-3,0-2.6-4.2-2.6-4.2
					c-3.6,1.4-6.9,1.5-7.3,3.6c-0.3,2-0.9,4.1-1.2,6.4H782.9z"/>
				<polygon class="st7" points="774.3,19.7 771.7,24.6 769,19.7 767.1,21.1 768.8,24.6 770.3,23.8 771.7,24.6 773.1,23.8 
					774.5,24.6 776.3,21.1 				"/>
			</g>
			<g>
				<g>
					<path class="st54" d="M776.5,11.4l0.1-1.9c0-2.5-2.4-4.6-5-4.6c-2.5,0-5,2.1-5,4.6l0.1,1.9c-0.1,0-0.3,0.1-0.4,0.2
						c-0.2,0.2-0.3,0.4-0.3,0.7v1c0,0.5,0.4,0.9,0.9,0.9c0,2.4,2.9,4.7,4.6,4.7c1.7,0,4.6-2.3,4.6-4.7c0.5,0,0.9-0.4,0.9-0.9v-1
						C777.2,11.9,776.9,11.5,776.5,11.4z"/>
					<path class="st69" d="M776.5,11.4l0.1-1.9c0-2.5-2.4-4.6-5-4.6c0,0,0,6.5,0,6.5c-0.7,1.4-1.1,3.5-1.1,3.5h1.1v4
						c1.7,0,4.6-2.3,4.6-4.7c0.5,0,0.9-0.4,0.9-0.9v-1C777.2,11.9,776.9,11.5,776.5,11.4z"/>
					<g>
						<g>
							<circle class="st54" cx="769.6" cy="12" r="0.7"/>
							<circle class="st70" cx="769.6" cy="11.8" r="0.7"/>
							<circle class="st7" cx="769.8" cy="11.6" r="0.2"/>
						</g>
						<g>
							<circle class="st54" cx="773.8" cy="12" r="0.7"/>
							<circle class="st70" cx="773.8" cy="11.8" r="0.7"/>
							<circle class="st7" cx="774.1" cy="11.6" r="0.2"/>
						</g>
					</g>
				</g>
				<g>
					<path class="st55" d="M773.3,15.8c0,0.8-0.7,1.5-1.7,1.5c-0.9,0-1.7-0.7-1.7-1.5H773.3z"/>
					<path class="st7" d="M772.9,16.3h-2.4c-0.1,0-0.2-0.1-0.2-0.2v-0.4h2.8v0.4C773,16.2,773,16.3,772.9,16.3z"/>
				</g>
				<path class="st71" d="M774.2,3.9c-1.2-0.9-3-1.3-4.8-0.3c-1.8,1-2,1.3-2.8,1.3c-0.3,0-0.6-0.1-0.6,0.2c-0.1,0.9,0,1.7,0.4,2.3
					c-0.6,2.5,0.5,5.3,0.5,5.3s-0.2-2.8,0.4-4.3c1.7,1.2,4.6,1.1,7.5-0.9c1.7,1.2,1.7,5.2,1.7,5.2S779.7,5.2,774.2,3.9z"/>
				<path class="st72" d="M776.7,10.7h-1c-0.3-0.2-0.8-0.3-1.4-0.3c-1,0-1.7,0.2-2.1,0.6c-0.2-0.1-0.4-0.2-0.7-0.2
					c-0.3,0-0.5,0.1-0.7,0.2c-0.4-0.4-1.1-0.6-2.1-0.6c-0.6,0-1.1,0.1-1.4,0.3h-1v0.7l0.3,0.1c0,0.1,0,0.3,0,0.4
					c0,1.1,0.3,1.7,2.1,1.7c1.5,0,2.1-0.4,2.3-1.7c0-0.2,0-0.3,0-0.4c0.1-0.1,0.2-0.1,0.4-0.1c0.2,0,0.4,0,0.4,0.1
					c0,0.1,0,0.3,0,0.4c0.3,1.3,0.8,1.7,2.3,1.7c1.8,0,2.1-0.6,2.1-1.7c0-0.1,0-0.3,0-0.4l0.3-0.1V10.7z M770.8,11.9
					c-0.2,1.1-0.6,1.4-2,1.4c-1.6,0-1.7-0.5-1.7-1.3c0-0.3,0-1.1,1.7-1.1c1.2,0,1.7,0.3,1.8,0.5C770.8,11.4,770.8,11.6,770.8,11.9z
					 M774.4,13.2c-1.3,0-1.7-0.3-2-1.4c-0.1-0.2,0-0.4,0.1-0.6c0.2-0.2,0.7-0.5,1.8-0.5c1.7,0,1.7,0.9,1.7,1.1
					C776.1,12.7,776,13.2,774.4,13.2z"/>
			</g>
		</g>
		<g id="man_4_">
			<g>
				<polygon class="st52" points="755.6,52.7 754.9,52.4 754.9,50.2 750.5,50.2 750.5,52.4 749.8,52.7 750,58.9 750.5,58.9 
					750.5,59.9 754.9,59.9 754.9,58.9 755.4,58.9 				"/>
				<polygon class="st52" points="754.9,50.5 754.9,52.2 750.5,51.3 750.5,50.5 				"/>
			</g>
			<g>
				<g>
					<path class="st7" d="M763.9,63c-0.4-2.8-0.8-4.8-1.8-6.9c-0.8-1.8-3.1-2.2-6.3-3.3c-0.1,0-0.2-0.1-0.4-0.1c0,0,0,0,0,0
						c-0.2,1.2-0.8,2.8-2.7,3c-1.9-0.2-2.5-1.8-2.7-3c0,0,0,0,0,0c-0.1,0-0.2,0.1-0.4,0.1c-3.3,1.1-5.5,1.6-6.3,3.3
						c-1,2.1-1.4,4.1-1.8,6.9H763.9z"/>
				</g>
				<g>
					<polygon class="st14" points="753.8,55.2 753.3,56 752.1,56 751.6,55.2 752.7,54.3 					"/>
					<polygon class="st73" points="752.7,54.3 751.3,55.8 748.7,53.1 750.5,52.3 751,52.8 					"/>
					<polygon class="st73" points="752.7,54.3 754.1,55.8 756.7,53.1 754.9,52.3 754.4,52.8 					"/>
					<polygon class="st14" points="753.6,63 753.3,56.2 752.1,56.2 751.8,63 					"/>
				</g>
			</g>
			<g>
				<g>
					<path class="st54" d="M757.5,44l0.1-1.9c0-2.5-2.4-4.6-5-4.6c-2.5,0-5,2.1-5,4.6l0.1,1.9c-0.1,0-0.3,0.1-0.4,0.2
						c-0.2,0.2-0.3,0.4-0.3,0.7v1c0,0.5,0.4,0.9,0.9,0.9c0,2.4,2.9,4.7,4.6,4.7s4.6-2.3,4.6-4.7c0.5,0,0.9-0.4,0.9-0.9v-1
						C758.2,44.5,757.9,44.1,757.5,44z"/>
					<path class="st69" d="M757.5,44l0.1-1.9c0-2.5-2.4-4.6-5-4.6c0,0,0,6.5,0,6.5c-0.7,1.4-1.1,3.5-1.1,3.5h1.1v4
						c1.7,0,4.6-2.3,4.6-4.7c0.5,0,0.9-0.4,0.9-0.9v-1C758.2,44.5,757.9,44.1,757.5,44z"/>
					<g>
						<g>
							<circle class="st54" cx="750.6" cy="44.6" r="0.7"/>
							<circle class="st70" cx="750.6" cy="44.4" r="0.7"/>
							<circle class="st7" cx="750.8" cy="44.2" r="0.2"/>
						</g>
						<g>
							<circle class="st54" cx="754.8" cy="44.6" r="0.7"/>
							<circle class="st70" cx="754.8" cy="44.4" r="0.7"/>
							<circle class="st7" cx="755" cy="44.2" r="0.2"/>
						</g>
					</g>
				</g>
				<g>
					<path class="st55" d="M754.3,48.3c0,0.8-0.7,1.5-1.7,1.5c-0.9,0-1.7-0.7-1.7-1.5H754.3z"/>
					<path class="st7" d="M753.9,48.9h-2.4c-0.1,0-0.2-0.1-0.2-0.2v-0.4h2.8v0.4C754,48.8,754,48.9,753.9,48.9z"/>
				</g>
				<path class="st74" d="M757.9,44c-0.2,0.6-0.4,0.9-0.6,1.5c0,0,0-1.8,0-1.8l-1-3.1c0,0-1.6,0.4-3.6,0.4c-1.9-0.1-3.6-0.4-3.6-0.4
					l-1,3.1c0,0,0,1.8,0,1.8c-0.1-0.3-0.5-1.2-0.6-1.5c-0.5-2-0.5-4,0.2-5.5c0,0,1.1-3,5-3c0.1,0,0.2,0,0.2,0c1,0,1.8,0.2,2.5,0.5
					c0,0,1.2,0.6,2.1,0.1c0,0,0.1,0,0.1,0c0,0.1-0.1,0.4-0.3,0.6c0.2,0,0.5,0,0.9-0.1c0,0,0,0,0,0v0c0,0.6-0.2,1.2-0.5,1.7
					C758.4,40,758.4,42,757.9,44z"/>
			</g>
		</g>
		<g id="woman_61_">
			<polygon class="st75" points="788.9,52.2 793.2,52.2 793.2,53.8 788.9,53.8 			"/>
			<g>
				<polygon class="st54" points="792.9,59.9 789.2,59.9 788.3,52.8 789.2,52.5 789.2,50.3 792.9,50.3 792.9,52.5 793.8,52.8 				
					"/>
				<polygon class="st52" points="789.2,50.3 789.2,51.4 792.9,52.5 792.9,50.3 				"/>
			</g>
			<g>
				<path class="st60" d="M799.5,63.1c-0.1-1.8-0.1-3.4-0.2-4l0-0.1c-0.2-1.7-0.4-3.9-2-5.3c-1.3-1.3-2.8-1.3-4.1-1.3
					c0,0-0.4,1.4-0.4,1.4l-1.8,4.1l-1.8-4.1l-0.2-1.4c-1.3,0-3,0-4.3,1.3c-1.5,1.5-1.8,3.6-2,5.3l0,0.1c-0.1,0.6-0.1,2.1-0.2,4
					H799.5z"/>
				<g>
					<polygon class="st76" points="791.2,63.1 791.2,57.8 791.1,58 790.9,57.8 790.9,63.1 					"/>
					<polygon class="st76" points="786.8,53.6 788.8,54.4 788,55.5 791.1,58 788.9,52.2 					"/>
					<polygon class="st76" points="795.4,53.6 793.2,52.2 791.1,58 794.1,55.5 793.3,54.4 					"/>
				</g>
			</g>
			<g>
				<path class="st77" d="M788.8,50.8c0.7,0,2.5,0.1,4.1,0c1.1-0.1,2.2-0.5,2.9-1.3c4.1-5.3-1.6-13-7.4-12.8
					C783.9,36.8,782.9,50.9,788.8,50.8z"/>
				<g>
					<path class="st54" d="M795.2,44v-1.9c0-2-2.3-4.6-4.2-4.6c-1.8,0-4.2,2.5-4.2,4.6V44c-0.5,0-0.9,0.4-0.9,0.9v0.9
						c0,0.5,0.4,0.9,0.9,0.9c0,2,2.3,4.6,4.2,4.6c1.8,0,4.2-2.6,4.2-4.6c0.5,0,0.9-0.4,0.9-0.9V45C796.2,44.5,795.7,44,795.2,44z"/>
					<path class="st69" d="M791.1,48.1v3.4c1.8,0,4.2-2.6,4.2-4.6c0.5,0,0.9-0.4,0.9-0.9V45c0-0.5-0.4-0.9-0.9-0.9v-1.9
						c0-2-2.3-4.6-4.2-4.6V45c-0.7,1.4-0.9,2.9-0.9,2.9L791.1,48.1z"/>
					<g>
						<g>
							<circle class="st54" cx="788.8" cy="45.3" r="0.7"/>
							<circle class="st70" cx="788.8" cy="45.1" r="0.7"/>
							<circle class="st7" cx="789" cy="44.9" r="0.2"/>
							<path class="st70" d="M789.7,44.5c-0.1-0.3-0.5-0.5-0.8-0.6c-0.2,0-0.7,0-1,0.5c0,0,0,0-0.1,0c0,0-0.1,0-0.2,0
								c-0.1,0-0.2-0.1-0.2-0.1c0,0,0,0,0,0c0,0,0,0,0,0c0,0,0,0,0,0.1c0,0,0.1,0.1,0.1,0.2c0.1,0.1,0.1,0.1,0.2,0.1
								c0,0,0.1,0,0.1,0c0,0,0,0,0,0c0,0,0.1,0,0.1-0.1c0.2-0.3,0.6-0.5,0.9-0.5c0.3,0,0.6,0.2,0.7,0.5c0,0,0.1,0.1,0.1,0
								C789.7,44.6,789.7,44.6,789.7,44.5z"/>
						</g>
						<g>
							<circle class="st54" cx="793.3" cy="45.3" r="0.7"/>
							<circle class="st70" cx="793.3" cy="45.1" r="0.7"/>
							<circle class="st7" cx="793.6" cy="44.9" r="0.2"/>
							<path class="st70" d="M792.5,44.5c0.1-0.3,0.5-0.5,0.8-0.6c0.2,0,0.7,0,1,0.5c0,0,0,0,0.1,0c0,0,0.1,0,0.2,0
								c0.1,0,0.2-0.1,0.2-0.1c0,0,0,0,0,0c0,0,0,0,0,0c0,0,0,0,0,0.1c0,0-0.1,0.1-0.1,0.2c-0.1,0.1-0.1,0.1-0.2,0.1
								c0,0-0.1,0-0.1,0c0,0,0,0,0,0c0,0-0.1,0-0.1-0.1c-0.2-0.3-0.6-0.5-0.9-0.5c-0.3,0-0.6,0.2-0.7,0.5c0,0-0.1,0.1-0.1,0
								C792.5,44.6,792.4,44.6,792.5,44.5z"/>
						</g>
					</g>
				</g>
				<g>
					<path class="st55" d="M792.5,48.7c0,0.7-0.7,1.3-1.5,1.3s-1.5-0.6-1.5-1.3H792.5z"/>
					<path class="st7" d="M792.1,49.2H790c-0.1,0-0.2-0.1-0.2-0.2v-0.3h2.4V49C792.3,49.1,792.2,49.2,792.1,49.2z"/>
				</g>
				<g>
					<path class="st14" d="M786.7,47.8c-0.1,0-0.2-0.1-0.2-0.2v-0.8c0-0.1,0.1-0.2,0.2-0.2c0.1,0,0.2,0.1,0.2,0.2v0.8
						C786.9,47.7,786.8,47.8,786.7,47.8z"/>
					<path class="st14" d="M795.4,47.8c-0.1,0-0.2-0.1-0.2-0.2v-0.8c0-0.1,0.1-0.2,0.2-0.2c0.1,0,0.2,0.1,0.2,0.2v0.8
						C795.6,47.7,795.5,47.8,795.4,47.8z"/>
				</g>
				<path class="st77" d="M797.6,44.9c-1.1-1.4-0.5-9.1-6.7-8.7c-6.3,0.3-4.3,7.1-3.9,7.9c0.2-0.1,1.6-2.2,2.3-3.7
					C790.8,43,795.8,44.6,797.6,44.9z"/>
				<path class="st78" d="M795.8,43.7h-0.6c-0.4-0.2-1-0.2-1.6-0.2c-1,0-1.7,0.2-2,0.6c-0.1-0.1-0.3-0.1-0.5-0.1s-0.4,0-0.5,0.1
					c-0.3-0.4-1-0.6-2-0.6c-0.6,0-1.3,0-1.6,0.2h-0.6v0.7l0.3,0.2c0,0.7,0.6,2,2,2c1,0,1.9-0.2,2.2-1.6c0-0.1,0-0.2,0-0.3
					c0-0.1,0.1-0.1,0.2-0.1s0.2,0.1,0.2,0.1c0,0.1,0,0.2,0,0.3c0.3,1.4,1.2,1.6,2.2,1.6c1.4,0,2-1.3,2-2l0.3-0.2V43.7z M790.5,44.8
					c-0.3,1-0.7,1.3-1.9,1.3c-1.3,0-1.7-1.2-1.7-1.7c0-0.5,1.2-0.6,1.7-0.6C789.7,44,790.6,44.4,790.5,44.8z M793.6,46.2
					c-1.2,0-1.6-0.4-1.9-1.3c-0.1-0.4,0.8-0.9,1.9-0.9c0.5,0,1.7,0,1.7,0.6C795.2,44.9,794.8,46.2,793.6,46.2z"/>
			</g>
		</g>
	</g>
	<path id="_Compound_Path_2_1_" class="st60" d="M763.6,41.5l1,0.4c-0.1,0.7-0.1,1.4,0.1,2.1l-0.9,0.5c-0.5,0.2-0.8,0.9-0.5,1.4
		c0,0,0,0.1,0.1,0.1l0.5,1.1c0.2,0.5,0.9,0.8,1.4,0.5c0,0,0.1,0,0.1-0.1l1-0.5c0.5,0.5,0.9,1,1.5,1.4l-0.4,1
		c-0.2,0.6,0.1,1.2,0.6,1.5l1.1,0.5c0.6,0.2,1.2-0.1,1.5-0.6l0.4-1c0.7,0.1,1.4,0.1,2.1-0.1l0.5,1c0.2,0.5,0.9,0.8,1.4,0.5
		c0,0,0.1,0,0.1-0.1l1.1-0.5c0.5-0.2,0.8-0.9,0.5-1.4c0,0,0-0.1-0.1-0.1l-0.5-1c0.5-0.5,1-0.9,1.4-1.5l1,0.4
		c0.6,0.2,1.2-0.1,1.5-0.6l0.5-1.1c0.1-0.3,0.1-0.6,0-0.9c-0.1-0.4-0.4-0.5-0.6-0.6l-1-0.4c0.1-0.7,0.1-1.4-0.1-2.1l1-0.5
		c0.5-0.2,0.8-0.9,0.5-1.4c0-0.1,0-0.1-0.1-0.1l-0.5-1.1c-0.2-0.5-0.9-0.8-1.4-0.5c0,0-0.1,0-0.1,0.1l-1,0.5c-0.5-0.5-0.9-1-1.5-1.4
		l0.4-0.9c0.1-0.3,0.1-0.6,0-0.9c-0.1-0.4-0.4-0.5-0.6-0.6l-1.1-0.5c-0.3-0.1-0.6-0.1-0.9,0c-0.3,0.1-0.5,0.4-0.6,0.6l-0.4,1
		c-0.7-0.1-1.4-0.1-2.1,0.1l-0.5-1c-0.2-0.5-0.9-0.8-1.4-0.5c0,0-0.1,0-0.1,0.1l-1.1,0.5c-0.5,0.2-0.8,0.9-0.5,1.4
		c0,0,0,0.1,0.1,0.1l0.5,1c-0.5,0.5-1,0.9-1.4,1.5l-1-0.4c-0.3-0.1-0.6-0.1-0.9,0c-0.4,0.1-0.5,0.4-0.6,0.6L763,40
		C762.8,40.6,763.1,41.2,763.6,41.5z M769.9,38.6c0.6-0.3,1.2-0.5,1.9-0.5c1.7,0,3.3,1,4,2.6c1,2.2,0,4.9-2.2,5.9
		c-0.6,0.3-1.2,0.5-1.9,0.5c-1.7,0-3.3-1-4-2.7C766.8,42.2,767.7,39.6,769.9,38.6z"/>
</g>
<g>
	<path class="st8" d="M711.6,91.2h-23.4c-3.6,0-6.6-3-6.6-6.6V61.1c0-3.6,3-6.6,6.6-6.6h23.4c3.6,0,6.6,3,6.6,6.6v23.4
		C718.2,88.3,715.2,91.2,711.6,91.2z"/>
	<g>
		<g>
			<path class="st7" d="M709.1,78.8h-13.5l-5.7-14h-3.6v-1.6h4.7l5.7,14h12.5v1.6C709.3,78.8,709.1,78.8,709.1,78.8z"/>
			<path class="st7" d="M712.5,66.4l-3.4,8.8h-11.3l-3.4-8.8H712.5z"/>
		</g>
		<circle class="st7" cx="699.1" cy="82.3" r="2.2"/>
		<circle class="st7" cx="705.7" cy="82.3" r="2.2"/>
	</g>
</g>
<g>
	<path class="st46" d="M533,265.8h-24.3c-3.8,0-6.9-3.1-6.9-6.9v-24.3c0-3.8,3.1-6.9,6.9-6.9H533c3.8,0,6.9,3.1,6.9,6.9v24.3
		C539.9,262.8,536.8,265.8,533,265.8z"/>
	<g>
		<g>
			<path class="st7" d="M526.5,237.5c-2.4,0-4.5,0.7-5.6,2.7c-1.1-2-3.2-2.7-5.6-2.7c-2.3,0-4.4,1.4-5.5,3.4
				c-1.3,2.4-0.9,4.5,0.2,6.9l0,0h5.3l1.2-2.2c0.2-0.4,0.9-0.4,1.1,0l2.2,4l3.4-7.3c0.2-0.5,1-0.5,1.2,0.1l1.9,5.4h5.6l0,0
				c1-2.4,1.5-4.5,0.2-6.9C530.9,238.8,528.8,237.5,526.5,237.5L526.5,237.5z"/>
			<path class="st7" d="M524.7,249.4l-1.2-3.3l-3.1,6.7c-0.2,0.5-0.9,0.5-1.1,0.1l-2.3-4.1l-0.4,0.8c-0.1,0.2-0.3,0.4-0.6,0.4h-4.8
				c2.7,3.7,7.8,7.1,9.3,8.2c0.3,0.2,0.6,0.2,0.9,0c1.6-1.1,6.7-4.5,9.3-8.2h-5.3C525.1,249.8,524.8,249.7,524.7,249.4L524.7,249.4z
				"/>
		</g>
	</g>
</g>
<g>
	<path class="st79" d="M865.2,178.5h-23.6c-3.7,0-6.7-3-6.7-6.7v-23.6c0-3.7,3-6.7,6.7-6.7h23.6c3.7,0,6.7,3,6.7,6.7v23.6
		C871.9,175.6,868.9,178.5,865.2,178.5z"/>
	<g>
		<path class="st7" d="M845.5,169.1c0.3,0,0.5-0.2,0.5-0.5v-8.5c0-0.3-0.2-0.5-0.5-0.5h-1.9c-0.3,0-0.5,0.2-0.5,0.5v8.5
			c0,0.3,0.2,0.5,0.5,0.5H845.5L845.5,169.1z"/>
		<path class="st7" d="M865.6,169.9h-23.8c-0.3,0-0.5,0.2-0.5,0.5v1.3c0,0.3,0.2,0.5,0.5,0.5h23.8c0.3,0,0.5-0.2,0.5-0.5v-1.3
			C866.1,170.1,865.9,169.9,865.6,169.9L865.6,169.9z"/>
		<path class="st7" d="M851.6,169.1c0.3,0,0.5-0.2,0.5-0.5v-8.5c0-0.3-0.2-0.5-0.5-0.5h-1.9c-0.3,0-0.5,0.2-0.5,0.5v8.5
			c0,0.3,0.2,0.5,0.5,0.5H851.6L851.6,169.1z"/>
		<g>
			<path class="st7" d="M863.9,169.1c0.3,0,0.5-0.2,0.5-0.5v-8.5c0-0.3-0.2-0.5-0.5-0.5H862c-0.3,0-0.5,0.2-0.5,0.5v8.5
				c0,0.3,0.2,0.5,0.5,0.5H863.9L863.9,169.1z"/>
			<path class="st7" d="M865.7,156.8l-10.1-8.4c-1.1-0.9-2.7-0.9-3.8,0l-10.1,8.4c-1.1,0.9-0.8,1.6,0.6,1.6h22.9
				C866.5,158.4,866.8,157.7,865.7,156.8L865.7,156.8z M853.7,156.3c-1.1,0-1.9-0.9-1.9-1.9s0.9-1.9,1.9-1.9s1.9,0.9,1.9,1.9
				S854.8,156.3,853.7,156.3L853.7,156.3z"/>
		</g>
		<path class="st7" d="M857.8,169.1c0.3,0,0.5-0.2,0.5-0.5v-8.5c0-0.3-0.2-0.5-0.5-0.5h-1.9c-0.3,0-0.5,0.2-0.5,0.5v8.5
			c0,0.3,0.2,0.5,0.5,0.5H857.8L857.8,169.1z"/>
	</g>
</g>
<g>
	<path class="st14" d="M563.3,174.5h-24.3c-3.8,0-6.9-3.1-6.9-6.9v-24.3c0-3.8,3.1-6.9,6.9-6.9h24.3c3.8,0,6.9,3.1,6.9,6.9v24.3
		C570.1,171.6,567.1,174.5,563.3,174.5z"/>
	<g>
		<path class="st7" d="M550.2,144.8c-0.1,0.1-0.1,0.2-0.2,0.3c-0.1,0.1-0.2,0.2-0.4,0.4c-0.1,0.1-0.1,0.1-0.3,0.1
			c-0.1,0.1-0.2,0.1-0.4,0.1c-0.1,0-0.2,0.1-0.4,0.1s-0.4,0-0.5-0.1h-0.1c-0.1-0.1-0.2-0.1-0.3-0.1l-0.1-0.1
			c-0.1-0.1-0.1-0.1-0.3-0.2c-0.1-0.1-0.1-0.2-0.2-0.4l-0.1-0.2l0,0l0,0l0,0l0,0v-0.1l-0.1-0.1l-0.1-0.1l-0.1-0.1c0,0-0.1,0-0.1-0.1
			l0,0h-0.1h-0.1c-0.1,0-0.2,0.1-0.4,0.1c-0.1,0-0.1,0-0.1,0.1h-0.1c-0.1,0-0.1,0-0.1,0.1c-0.1,0-0.2,0.1-0.3,0.1l-0.3,0.1
			c-0.1,0.1-0.3,0.1-0.3,0.1c-0.1,0.1-0.2,0-0.4-0.1l-0.1-0.1c-0.1-0.1-0.1-0.2-0.1-0.4l0.1-0.1c0-0.1,0.1-0.1,0.1-0.2
			c0.1-0.1,0.1-0.2,0.3-0.3c0.1-0.1,0.3-0.2,0.4-0.4c0.1-0.1,0.2-0.1,0.3-0.1c0.1,0,0.1-0.1,0.1-0.1h0.1c0.1,0,0.1,0,0.1,0
			c0.2-0.1,0.5,0,0.9,0.2l0.1,0.1c0.1,0.1,0.1,0.1,0.2,0.1l0.1,0.1c0.1,0.1,0.1,0.1,0.1,0.1l0.1,0.1c0.1,0.1,0.1,0.1,0.1,0.1
			l0.1,0.1c0,0,0,0,0.1,0l0.2,0.2l0.1,0.1l0.1,0.1h0.1c0.1,0,0.1,0,0.1,0.1h0.1h0.1c0.1,0,0.1,0,0.2,0h0.1h0.1c0,0,0.1,0,0.1-0.1
			c0.1,0,0.2-0.1,0.3-0.1c0.1-0.1,0.2-0.1,0.3-0.1l0.3-0.1c0.1-0.1,0.3,0,0.4,0.1c0.1,0.1,0.1,0.2,0.1,0.4
			C550.4,144.5,550.3,144.6,550.2,144.8z"/>
		<path class="st7" d="M539.4,161.2v5.8c0,0.2,0.1,0.4,0.4,0.4h23c0.2,0,0.4-0.1,0.4-0.4v-5.8c0-0.2-0.1-0.4-0.4-0.4h-1.3v-4.1
			c0-0.1-0.1-0.2-0.1-0.3l-4-3.3c-0.1-0.1-0.2-0.1-0.4,0s-0.1,0.1-0.1,0.3v2.6l-4.1-2.9c-0.1-0.1-0.2-0.1-0.4,0s-0.1,0.1-0.1,0.3
			v2.6l-3.5-2.9c-0.1-0.1-0.2-0.1-0.4,0s-0.1,0.1-0.1,0.3v4.1h-1l-0.9-11.1c0-0.1-0.1-0.3-0.4-0.3h-2.7c-0.1,0-0.3,0.1-0.4,0.3
			l-0.7,11.1h-1.5c-0.2,0-0.4,0.1-0.4,0.4v3h-0.6C539.5,160.9,539.4,161.1,539.4,161.2z M543.9,162.9v-3h3.3v3H543.9z M552.8,160v3
			h-3.3v-3H552.8z M558.8,160v3h-3.3v-3H558.8z"/>
	</g>
</g>
<g>
	<path class="st60" d="M889.2,265H866c-3.6,0-6.6-3-6.6-6.6v-23.2c0-3.6,3-6.6,6.6-6.6h23.2c3.6,0,6.6,3,6.6,6.6v23.2
		C895.7,262.2,892.8,265,889.2,265z"/>
	<g>
		<path class="st7" d="M887.5,255.5h-1.1v-5.4c0-0.1-0.1-0.3-0.3-0.3H885v-4.1l0.1,0.1c0.1,0,0.1,0,0.2,0c0.2,0,0.4-0.1,0.5-0.3
			l0.7-1.8c0.1-0.1,0.1-0.3,0-0.4c-0.1-0.1-0.2-0.2-0.3-0.3l-11.1-4.6c0.4-0.8,0.8-1.6,1.1-2.3c0.1-0.3,0-0.6-0.3-0.7l-4.4-1.8
			c-0.3-0.1-0.6,0-0.7,0.3c-1.1,2.5-1.8,5.4-2.2,8.9c0,0.2,0.1,0.4,0.3,0.5l1.9,0.8c0.2,0.1,0.5,0,0.6-0.2c0.8-1,1.5-2,2.1-3
			l2.2,0.9l-0.1,0.8l-0.3,2.3l-1.5,10.5h-3.5h-2.6c-0.3,0-0.5,0.2-0.5,0.5v2.3c0,0.3,0.2,0.5,0.5,0.5h19.7c0.3,0,0.5-0.2,0.5-0.5
			V256C888,255.8,887.7,255.5,887.5,255.5z M883.9,249.9h-1.2c-0.1,0-0.3,0.1-0.3,0.3v5.4h-1.2l-1.5-10.5l-0.2-1.5l4.3,1.8
			L883.9,249.9L883.9,249.9z M878.9,246.4l-1.8-1.3l1.4-1.2L878.9,246.4z M878.3,247.4l-2.3,1.5l0.4-2.8L878.3,247.4z M879.1,248.2
			l0.6,3.8l-3-2.3L879.1,248.2z M876.9,255.5l3-2.1l0.3,2.1H876.9z M877.9,242.9l-1.2,1l0.2-1.5L877.9,242.9z M875.8,250.4l3.1,2.4
			l-3.8,2.8L875.8,250.4z"/>
	</g>
</g>
</svg>
